STARTFONT 2.1
FONT neoletters
SIZE 12 75 75
FONTBOUNDINGBOX 18 16 0 -4
STARTPROPERTIES 3
PIXEL_SIZE 16
FONT_ASCENT 12
FONT_DESCENT 4
ENDPROPERTIES
CHARS 21935
STARTCHAR uni0000
ENCODING 0
SWIDTH 562 0
DWIDTH 9 0
BBX 8 11 0 0
BITMAP
A9
AD
AB
E9
00
00
E7
B4
97
B4
E4
ENDCHAR
STARTCHAR space
ENCODING 32
SWIDTH 562 0
DWIDTH 9 0
BBX 1 1 0 0
BITMAP
00
ENDCHAR
STARTCHAR exclam
ENCODING 33
SWIDTH 562 0
DWIDTH 9 0
BBX 2 12 3 0
BITMAP
C0
C0
C0
C0
C0
C0
C0
C0
00
00
C0
C0
ENDCHAR
STARTCHAR quotedbl
ENCODING 34
SWIDTH 562 0
DWIDTH 9 0
BBX 6 3 1 9
BITMAP
CC
CC
CC
ENDCHAR
STARTCHAR numbersign
ENCODING 35
SWIDTH 562 0
DWIDTH 9 0
BBX 8 12 0 0
BITMAP
66
66
66
FF
FF
66
66
FF
FF
66
66
66
ENDCHAR
STARTCHAR dollar
ENCODING 36
SWIDTH 562 0
DWIDTH 9 0
BBX 8 12 0 0
BITMAP
3C
7E
FF
D8
D8
FE
7F
1B
1B
FF
7E
3C
ENDCHAR
STARTCHAR percent
ENCODING 37
SWIDTH 562 0
DWIDTH 9 0
BBX 8 12 0 0
BITMAP
73
DB
8F
DE
7C
1C
38
3E
7B
F1
DB
CE
ENDCHAR
STARTCHAR ampersand
ENCODING 38
SWIDTH 562 0
DWIDTH 9 0
BBX 8 12 0 0
BITMAP
3C
7E
E7
C0
E0
F0
FB
DF
CE
EE
7F
3B
ENDCHAR
STARTCHAR quotesingle
ENCODING 39
SWIDTH 562 0
DWIDTH 9 0
BBX 2 3 3 9
BITMAP
C0
C0
C0
ENDCHAR
STARTCHAR parenleft
ENCODING 40
SWIDTH 562 0
DWIDTH 9 0
BBX 4 16 2 -4
BITMAP
30
70
E0
C0
C0
C0
C0
C0
C0
C0
C0
C0
C0
E0
70
30
ENDCHAR
STARTCHAR parenright
ENCODING 41
SWIDTH 562 0
DWIDTH 9 0
BBX 4 16 2 -4
BITMAP
C0
E0
70
30
30
30
30
30
30
30
30
30
30
70
E0
C0
ENDCHAR
STARTCHAR asterisk
ENCODING 42
SWIDTH 562 0
DWIDTH 9 0
BBX 8 8 0 2
BITMAP
18
DB
FF
7E
7E
FF
DB
18
ENDCHAR
STARTCHAR plus
ENCODING 43
SWIDTH 562 0
DWIDTH 9 0
BBX 8 8 0 2
BITMAP
18
18
18
FF
FF
18
18
18
ENDCHAR
STARTCHAR comma
ENCODING 44
SWIDTH 562 0
DWIDTH 9 0
BBX 3 3 2 -1
BITMAP
60
E0
C0
ENDCHAR
STARTCHAR hyphen
ENCODING 45
SWIDTH 562 0
DWIDTH 9 0
BBX 6 2 1 5
BITMAP
FC
FC
ENDCHAR
STARTCHAR period
ENCODING 46
SWIDTH 562 0
DWIDTH 9 0
BBX 2 2 3 0
BITMAP
C0
C0
ENDCHAR
STARTCHAR slash
ENCODING 47
SWIDTH 562 0
DWIDTH 9 0
BBX 8 12 0 0
BITMAP
03
03
07
0E
0C
1C
38
30
70
E0
C0
C0
ENDCHAR
STARTCHAR zero
ENCODING 48
SWIDTH 562 0
DWIDTH 9 0
BBX 8 12 0 0
BITMAP
3C
7E
E7
C3
C3
DB
DB
C3
C3
E7
7E
3C
ENDCHAR
STARTCHAR one
ENCODING 49
SWIDTH 562 0
DWIDTH 9 0
BBX 8 12 0 0
BITMAP
18
38
78
F8
58
18
18
18
18
18
FF
FF
ENDCHAR
STARTCHAR two
ENCODING 50
SWIDTH 562 0
DWIDTH 9 0
BBX 8 12 0 0
BITMAP
3C
7E
E7
C3
03
03
03
0F
1E
78
FF
FF
ENDCHAR
STARTCHAR three
ENCODING 51
SWIDTH 562 0
DWIDTH 9 0
BBX 8 12 0 0
BITMAP
3C
7E
E7
C3
03
1F
1F
03
C3
E7
7E
3C
ENDCHAR
STARTCHAR four
ENCODING 52
SWIDTH 562 0
DWIDTH 9 0
BBX 8 12 0 0
BITMAP
C3
C3
C3
C3
C3
FF
FF
03
03
03
03
03
ENDCHAR
STARTCHAR five
ENCODING 53
SWIDTH 562 0
DWIDTH 9 0
BBX 8 12 0 0
BITMAP
FF
FF
C0
C0
FF
FF
03
03
03
E7
7E
3C
ENDCHAR
STARTCHAR six
ENCODING 54
SWIDTH 562 0
DWIDTH 9 0
BBX 8 12 0 0
BITMAP
3C
7E
E7
C0
FC
FE
E7
C3
C3
E7
7E
3C
ENDCHAR
STARTCHAR seven
ENCODING 55
SWIDTH 562 0
DWIDTH 9 0
BBX 8 12 0 0
BITMAP
FF
FF
06
06
0C
FF
FF
18
30
30
60
60
ENDCHAR
STARTCHAR eight
ENCODING 56
SWIDTH 562 0
DWIDTH 9 0
BBX 8 12 0 0
BITMAP
3C
7E
E7
C3
E7
7E
7E
E7
C3
E7
7E
3C
ENDCHAR
STARTCHAR nine
ENCODING 57
SWIDTH 562 0
DWIDTH 9 0
BBX 8 12 0 0
BITMAP
3C
7E
E7
C3
C3
E7
7F
3F
03
E7
7E
3C
ENDCHAR
STARTCHAR colon
ENCODING 58
SWIDTH 562 0
DWIDTH 9 0
BBX 2 8 3 0
BITMAP
C0
C0
00
00
00
00
C0
C0
ENDCHAR
STARTCHAR semicolon
ENCODING 59
SWIDTH 562 0
DWIDTH 9 0
BBX 3 9 2 -1
BITMAP
60
60
00
00
00
00
60
E0
C0
ENDCHAR
STARTCHAR less
ENCODING 60
SWIDTH 562 0
DWIDTH 9 0
BBX 8 8 0 2
BITMAP
07
1F
3C
F0
F0
3C
1F
07
ENDCHAR
STARTCHAR equal
ENCODING 61
SWIDTH 562 0
DWIDTH 9 0
BBX 8 6 0 3
BITMAP
FF
FF
00
00
FF
FF
ENDCHAR
STARTCHAR greater
ENCODING 62
SWIDTH 562 0
DWIDTH 9 0
BBX 8 8 0 2
BITMAP
E0
F8
3C
0F
0F
3C
F8
E0
ENDCHAR
STARTCHAR question
ENCODING 63
SWIDTH 562 0
DWIDTH 9 0
BBX 8 12 0 0
BITMAP
3C
7E
E7
C3
03
07
1E
1C
00
00
18
18
ENDCHAR
STARTCHAR at
ENCODING 64
SWIDTH 562 0
DWIDTH 9 0
BBX 8 12 0 0
BITMAP
3C
7E
E7
C3
DB
DF
DF
D8
C3
E7
7E
3C
ENDCHAR
STARTCHAR A
ENCODING 65
SWIDTH 562 0
DWIDTH 9 0
BBX 8 12 0 0
BITMAP
3C
7E
E7
C3
C3
C3
FF
FF
C3
C3
C3
C3
ENDCHAR
STARTCHAR B
ENCODING 66
SWIDTH 562 0
DWIDTH 9 0
BBX 8 12 0 0
BITMAP
FC
FE
C7
C3
C3
FF
FF
C3
C3
C7
FE
FC
ENDCHAR
STARTCHAR C
ENCODING 67
SWIDTH 562 0
DWIDTH 9 0
BBX 8 12 0 0
BITMAP
3C
7E
E7
C3
C0
C0
C0
C0
C3
E7
7E
3C
ENDCHAR
STARTCHAR D
ENCODING 68
SWIDTH 562 0
DWIDTH 9 0
BBX 8 12 0 0
BITMAP
FC
FE
C7
C3
C3
C3
C3
C3
C3
C7
FE
FC
ENDCHAR
STARTCHAR E
ENCODING 69
SWIDTH 562 0
DWIDTH 9 0
BBX 8 12 0 0
BITMAP
FF
FF
C0
C0
C0
FC
FC
C0
C0
C0
FF
FF
ENDCHAR
STARTCHAR F
ENCODING 70
SWIDTH 562 0
DWIDTH 9 0
BBX 8 12 0 0
BITMAP
FF
FF
C0
C0
C0
FC
FC
C0
C0
C0
C0
C0
ENDCHAR
STARTCHAR G
ENCODING 71
SWIDTH 562 0
DWIDTH 9 0
BBX 8 12 0 0
BITMAP
3C
7E
E7
C3
C0
C0
C7
C7
C3
E7
7E
3C
ENDCHAR
STARTCHAR H
ENCODING 72
SWIDTH 562 0
DWIDTH 9 0
BBX 8 12 0 0
BITMAP
C3
C3
C3
C3
C3
FF
FF
C3
C3
C3
C3
C3
ENDCHAR
STARTCHAR I
ENCODING 73
SWIDTH 562 0
DWIDTH 9 0
BBX 8 12 0 0
BITMAP
FF
FF
18
18
18
18
18
18
18
18
FF
FF
ENDCHAR
STARTCHAR J
ENCODING 74
SWIDTH 562 0
DWIDTH 9 0
BBX 8 12 0 0
BITMAP
FF
FF
03
03
03
03
03
03
C3
E7
7E
3C
ENDCHAR
STARTCHAR K
ENCODING 75
SWIDTH 562 0
DWIDTH 9 0
BBX 8 12 0 0
BITMAP
C3
C3
C3
C7
CE
FC
FC
CE
C7
C3
C3
C3
ENDCHAR
STARTCHAR L
ENCODING 76
SWIDTH 562 0
DWIDTH 9 0
BBX 8 12 0 0
BITMAP
C0
C0
C0
C0
C0
C0
C0
C0
C0
C0
FF
FF
ENDCHAR
STARTCHAR M
ENCODING 77
SWIDTH 562 0
DWIDTH 9 0
BBX 8 12 0 0
BITMAP
FF
FF
DB
DB
DB
DB
DB
DB
C3
C3
C3
C3
ENDCHAR
STARTCHAR N
ENCODING 78
SWIDTH 562 0
DWIDTH 9 0
BBX 8 12 0 0
BITMAP
C3
C3
E3
E3
F3
FB
DF
CF
C7
C7
C3
C3
ENDCHAR
STARTCHAR O
ENCODING 79
SWIDTH 562 0
DWIDTH 9 0
BBX 8 12 0 0
BITMAP
3C
7E
E7
C3
C3
C3
C3
C3
C3
E7
7E
3C
ENDCHAR
STARTCHAR P
ENCODING 80
SWIDTH 562 0
DWIDTH 9 0
BBX 8 12 0 0
BITMAP
FC
FE
C7
C3
C3
C7
FE
FC
C0
C0
C0
C0
ENDCHAR
STARTCHAR Q
ENCODING 81
SWIDTH 562 0
DWIDTH 9 0
BBX 8 12 0 0
BITMAP
3C
7E
E7
C3
C3
C3
C3
C3
CF
EF
7F
3F
ENDCHAR
STARTCHAR R
ENCODING 82
SWIDTH 562 0
DWIDTH 9 0
BBX 8 12 0 0
BITMAP
FC
FE
C7
C3
C3
C7
FE
FC
C6
C6
C3
C3
ENDCHAR
STARTCHAR S
ENCODING 83
SWIDTH 562 0
DWIDTH 9 0
BBX 8 12 0 0
BITMAP
3C
7E
E7
C0
C0
FE
7F
03
03
E7
7E
3C
ENDCHAR
STARTCHAR T
ENCODING 84
SWIDTH 562 0
DWIDTH 9 0
BBX 8 12 0 0
BITMAP
FF
FF
18
18
18
18
18
18
18
18
18
18
ENDCHAR
STARTCHAR U
ENCODING 85
SWIDTH 562 0
DWIDTH 9 0
BBX 8 12 0 0
BITMAP
C3
C3
C3
C3
C3
C3
C3
C3
C3
E7
7E
3C
ENDCHAR
STARTCHAR V
ENCODING 86
SWIDTH 562 0
DWIDTH 9 0
BBX 8 12 0 0
BITMAP
C3
C3
C3
E7
66
66
7E
3C
3C
3C
18
18
ENDCHAR
STARTCHAR W
ENCODING 87
SWIDTH 562 0
DWIDTH 9 0
BBX 8 12 0 0
BITMAP
C3
C3
C3
C3
DB
DB
DB
DB
DB
DB
FF
FF
ENDCHAR
STARTCHAR X
ENCODING 88
SWIDTH 562 0
DWIDTH 9 0
BBX 8 12 0 0
BITMAP
C3
C3
E7
66
7E
3C
3C
7E
66
E7
C3
C3
ENDCHAR
STARTCHAR Y
ENCODING 89
SWIDTH 562 0
DWIDTH 9 0
BBX 8 12 0 0
BITMAP
C3
C3
E7
66
7E
3C
18
18
18
18
18
18
ENDCHAR
STARTCHAR Z
ENCODING 90
SWIDTH 562 0
DWIDTH 9 0
BBX 8 12 0 0
BITMAP
FF
FF
06
0E
0C
1C
38
30
70
60
FF
FF
ENDCHAR
STARTCHAR bracketleft
ENCODING 91
SWIDTH 562 0
DWIDTH 9 0
BBX 4 16 2 -4
BITMAP
F0
F0
C0
C0
C0
C0
C0
C0
C0
C0
C0
C0
C0
C0
F0
F0
ENDCHAR
STARTCHAR backslash
ENCODING 92
SWIDTH 562 0
DWIDTH 9 0
BBX 8 12 0 0
BITMAP
C0
C0
E0
70
30
38
1C
0C
0E
07
03
03
ENDCHAR
STARTCHAR bracketright
ENCODING 93
SWIDTH 562 0
DWIDTH 9 0
BBX 4 16 2 -4
BITMAP
F0
F0
30
30
30
30
30
30
30
30
30
30
30
30
F0
F0
ENDCHAR
STARTCHAR asciicircum
ENCODING 94
SWIDTH 562 0
DWIDTH 9 0
BBX 8 4 0 8
BITMAP
18
3C
7E
E7
ENDCHAR
STARTCHAR underscore
ENCODING 95
SWIDTH 562 0
DWIDTH 9 0
BBX 8 2 0 -2
BITMAP
FF
FF
ENDCHAR
STARTCHAR grave
ENCODING 96
SWIDTH 562 0
DWIDTH 9 0
BBX 4 4 2 8
BITMAP
C0
E0
70
30
ENDCHAR
STARTCHAR a
ENCODING 97
SWIDTH 562 0
DWIDTH 9 0
BBX 8 8 0 0
BITMAP
3F
7F
E3
C3
C3
E3
7F
3F
ENDCHAR
STARTCHAR b
ENCODING 98
SWIDTH 562 0
DWIDTH 9 0
BBX 8 12 0 0
BITMAP
C0
C0
C0
C0
FC
FE
E7
C3
C3
E7
7E
3C
ENDCHAR
STARTCHAR c
ENCODING 99
SWIDTH 562 0
DWIDTH 9 0
BBX 8 8 0 0
BITMAP
3F
7F
E0
C0
C0
E0
7F
3F
ENDCHAR
STARTCHAR d
ENCODING 100
SWIDTH 562 0
DWIDTH 9 0
BBX 8 12 0 0
BITMAP
03
03
03
03
3F
7F
E7
C3
C3
E7
7E
3C
ENDCHAR
STARTCHAR e
ENCODING 101
SWIDTH 562 0
DWIDTH 9 0
BBX 8 8 0 0
BITMAP
3F
7F
E0
FC
FC
E0
7F
3F
ENDCHAR
STARTCHAR f
ENCODING 102
SWIDTH 562 0
DWIDTH 9 0
BBX 8 12 0 0
BITMAP
07
0F
1C
18
FF
FF
18
18
18
18
18
18
ENDCHAR
STARTCHAR g
ENCODING 103
SWIDTH 562 0
DWIDTH 9 0
BBX 8 12 0 -4
BITMAP
3C
7E
E7
C3
C3
E7
7F
3F
03
E7
7E
3C
ENDCHAR
STARTCHAR h
ENCODING 104
SWIDTH 562 0
DWIDTH 9 0
BBX 8 12 0 0
BITMAP
C0
C0
C0
C0
FC
FE
E7
C3
C3
C3
C3
C3
ENDCHAR
STARTCHAR i
ENCODING 105
SWIDTH 562 0
DWIDTH 9 0
BBX 8 12 0 0
BITMAP
18
18
00
00
78
78
18
18
18
18
FF
FF
ENDCHAR
STARTCHAR j
ENCODING 106
SWIDTH 562 0
DWIDTH 9 0
BBX 8 16 0 -4
BITMAP
03
03
00
00
0F
0F
03
03
03
03
03
03
03
E7
7E
3C
ENDCHAR
STARTCHAR k
ENCODING 107
SWIDTH 562 0
DWIDTH 9 0
BBX 8 12 0 0
BITMAP
C0
C0
C0
C0
C3
C7
CE
FC
FC
CE
C7
C3
ENDCHAR
STARTCHAR l
ENCODING 108
SWIDTH 562 0
DWIDTH 9 0
BBX 8 12 0 0
BITMAP
E0
F0
38
18
18
18
18
18
18
1C
0F
07
ENDCHAR
STARTCHAR m
ENCODING 109
SWIDTH 562 0
DWIDTH 9 0
BBX 8 8 0 0
BITMAP
3C
7E
FF
DB
DB
DB
DB
DB
ENDCHAR
STARTCHAR n
ENCODING 110
SWIDTH 562 0
DWIDTH 9 0
BBX 8 8 0 0
BITMAP
3C
7E
E7
C3
C3
C3
C3
C3
ENDCHAR
STARTCHAR o
ENCODING 111
SWIDTH 562 0
DWIDTH 9 0
BBX 8 8 0 0
BITMAP
3C
7E
E7
C3
C3
E7
7E
3C
ENDCHAR
STARTCHAR p
ENCODING 112
SWIDTH 562 0
DWIDTH 9 0
BBX 8 12 0 -4
BITMAP
3C
7E
E7
C3
C3
E7
FE
FC
C0
C0
C0
C0
ENDCHAR
STARTCHAR q
ENCODING 113
SWIDTH 562 0
DWIDTH 9 0
BBX 8 12 0 -4
BITMAP
3C
7E
E7
C3
C3
E7
7F
3F
03
03
03
03
ENDCHAR
STARTCHAR r
ENCODING 114
SWIDTH 562 0
DWIDTH 9 0
BBX 8 8 0 0
BITMAP
3C
7E
E7
C3
C0
C0
C0
C0
ENDCHAR
STARTCHAR s
ENCODING 115
SWIDTH 562 0
DWIDTH 9 0
BBX 8 8 0 0
BITMAP
3F
7F
60
7C
3E
06
FE
FC
ENDCHAR
STARTCHAR t
ENCODING 116
SWIDTH 562 0
DWIDTH 9 0
BBX 8 12 0 0
BITMAP
18
18
18
18
FF
FF
18
18
18
1C
0F
07
ENDCHAR
STARTCHAR u
ENCODING 117
SWIDTH 562 0
DWIDTH 9 0
BBX 8 8 0 0
BITMAP
C3
C3
C3
C3
C3
E7
7E
3C
ENDCHAR
STARTCHAR v
ENCODING 118
SWIDTH 562 0
DWIDTH 9 0
BBX 8 8 0 0
BITMAP
C3
C3
66
66
3C
3C
18
18
ENDCHAR
STARTCHAR w
ENCODING 119
SWIDTH 562 0
DWIDTH 9 0
BBX 8 8 0 0
BITMAP
DB
DB
DB
DB
DB
FF
7E
3C
ENDCHAR
STARTCHAR x
ENCODING 120
SWIDTH 562 0
DWIDTH 9 0
BBX 8 8 0 0
BITMAP
C3
E7
7E
3C
3C
7E
E7
C3
ENDCHAR
STARTCHAR y
ENCODING 121
SWIDTH 562 0
DWIDTH 9 0
BBX 8 12 0 -4
BITMAP
C3
C3
C3
C3
C3
E7
7F
3F
03
E7
7E
3C
ENDCHAR
STARTCHAR z
ENCODING 122
SWIDTH 562 0
DWIDTH 9 0
BBX 8 8 0 0
BITMAP
FE
FE
0C
1C
38
30
7F
7F
ENDCHAR
STARTCHAR braceleft
ENCODING 123
SWIDTH 562 0
DWIDTH 9 0
BBX 6 16 0 -4
BITMAP
1C
3C
30
30
30
30
30
F0
F0
30
30
30
30
30
3C
1C
ENDCHAR
STARTCHAR bar
ENCODING 124
SWIDTH 562 0
DWIDTH 9 0
BBX 2 12 3 0
BITMAP
C0
C0
C0
C0
C0
C0
C0
C0
C0
C0
C0
C0
ENDCHAR
STARTCHAR braceright
ENCODING 125
SWIDTH 562 0
DWIDTH 9 0
BBX 6 16 2 -4
BITMAP
E0
F0
30
30
30
30
30
3C
3C
30
30
30
30
30
F0
E0
ENDCHAR
STARTCHAR asciitilde
ENCODING 126
SWIDTH 562 0
DWIDTH 9 0
BBX 8 3 0 5
BITMAP
73
FF
CE
ENDCHAR
STARTCHAR uni00A0
ENCODING 160
SWIDTH 562 0
DWIDTH 9 0
BBX 8 16 0 -4
BITMAP
C3
81
00
00
00
00
00
00
00
00
00
00
00
00
81
C3
ENDCHAR
STARTCHAR exclamdown
ENCODING 161
SWIDTH 562 0
DWIDTH 9 0
BBX 2 12 3 0
BITMAP
C0
C0
00
00
C0
C0
C0
C0
C0
C0
C0
C0
ENDCHAR
STARTCHAR cent
ENCODING 162
SWIDTH 562 0
DWIDTH 9 0
BBX 8 12 0 -2
BITMAP
18
18
3F
7F
F8
D8
D8
F8
7F
3F
18
18
ENDCHAR
STARTCHAR sterling
ENCODING 163
SWIDTH 562 0
DWIDTH 9 0
BBX 8 12 0 0
BITMAP
1F
3F
60
60
60
FE
FE
60
60
60
FF
FF
ENDCHAR
STARTCHAR currency
ENCODING 164
SWIDTH 562 0
DWIDTH 9 0
BBX 8 8 0 2
BITMAP
C3
FF
66
42
42
66
FF
C3
ENDCHAR
STARTCHAR yen
ENCODING 165
SWIDTH 562 0
DWIDTH 9 0
BBX 8 12 0 0
BITMAP
C3
C3
C3
E7
7E
FF
FF
18
FF
FF
18
18
ENDCHAR
STARTCHAR brokenbar
ENCODING 166
SWIDTH 562 0
DWIDTH 9 0
BBX 2 12 3 0
BITMAP
C0
C0
C0
C0
C0
00
00
C0
C0
C0
C0
C0
ENDCHAR
STARTCHAR section
ENCODING 167
SWIDTH 562 0
DWIDTH 9 0
BBX 8 12 0 0
BITMAP
3F
7F
60
7C
7E
66
66
7E
3E
06
FE
FC
ENDCHAR
STARTCHAR dieresis
ENCODING 168
SWIDTH 562 0
DWIDTH 9 0
BBX 6 2 1 10
BITMAP
CC
CC
ENDCHAR
STARTCHAR copyright
ENCODING 169
SWIDTH 562 0
DWIDTH 9 0
BBX 8 8 0 0
BITMAP
7E
C3
BD
A1
A1
BD
C3
7E
ENDCHAR
STARTCHAR ordfeminine
ENCODING 170
SWIDTH 562 0
DWIDTH 9 0
BBX 6 9 1 3
BITMAP
7C
FC
CC
CC
FC
7C
00
FC
FC
ENDCHAR
STARTCHAR guillemotleft
ENCODING 171
SWIDTH 562 0
DWIDTH 9 0
BBX 6 6 1 3
BITMAP
24
6C
D8
D8
6C
24
ENDCHAR
STARTCHAR logicalnot
ENCODING 172
SWIDTH 562 0
DWIDTH 9 0
BBX 8 4 0 3
BITMAP
FF
FF
03
03
ENDCHAR
STARTCHAR uni00AD
ENCODING 173
SWIDTH 562 0
DWIDTH 9 0
BBX 4 2 2 5
BITMAP
F0
F0
ENDCHAR
STARTCHAR registered
ENCODING 174
SWIDTH 562 0
DWIDTH 9 0
BBX 8 8 0 0
BITMAP
7E
C3
B9
A5
B9
AD
C3
7E
ENDCHAR
STARTCHAR macron
ENCODING 175
SWIDTH 562 0
DWIDTH 9 0
BBX 4 2 2 10
BITMAP
F0
F0
ENDCHAR
STARTCHAR degree
ENCODING 176
SWIDTH 562 0
DWIDTH 9 0
BBX 5 5 1 7
BITMAP
70
F8
D8
F8
70
ENDCHAR
STARTCHAR plusminus
ENCODING 177
SWIDTH 562 0
DWIDTH 9 0
BBX 8 8 0 2
BITMAP
18
18
FF
FF
18
18
FF
FF
ENDCHAR
STARTCHAR uni00B2
ENCODING 178
SWIDTH 562 0
DWIDTH 9 0
BBX 8 8 0 4
BITMAP
7E
FF
C3
07
1E
7C
FF
FF
ENDCHAR
STARTCHAR uni00B3
ENCODING 179
SWIDTH 562 0
DWIDTH 9 0
BBX 8 8 0 4
BITMAP
7E
FF
03
3F
3F
03
FF
7E
ENDCHAR
STARTCHAR acute
ENCODING 180
SWIDTH 562 0
DWIDTH 9 0
BBX 5 3 2 9
BITMAP
38
70
E0
ENDCHAR
STARTCHAR mu
ENCODING 181
SWIDTH 562 0
DWIDTH 9 0
BBX 8 12 0 -4
BITMAP
C6
C6
C6
C6
C6
EE
FF
FF
C0
C0
C0
C0
ENDCHAR
STARTCHAR paragraph
ENCODING 182
SWIDTH 562 0
DWIDTH 9 0
BBX 8 12 0 0
BITMAP
7F
FF
FB
FB
7B
1B
1B
1B
1B
1B
1B
1B
ENDCHAR
STARTCHAR periodcentered
ENCODING 183
SWIDTH 562 0
DWIDTH 9 0
BBX 2 2 3 5
BITMAP
C0
C0
ENDCHAR
STARTCHAR cedilla
ENCODING 184
SWIDTH 562 0
DWIDTH 9 0
BBX 4 4 1 -4
BITMAP
20
30
F0
E0
ENDCHAR
STARTCHAR uni00B9
ENCODING 185
SWIDTH 562 0
DWIDTH 9 0
BBX 8 8 0 4
BITMAP
38
78
F8
D8
18
18
FF
FF
ENDCHAR
STARTCHAR ordmasculine
ENCODING 186
SWIDTH 562 0
DWIDTH 9 0
BBX 6 9 1 3
BITMAP
78
FC
CC
CC
FC
78
00
FC
FC
ENDCHAR
STARTCHAR guillemotright
ENCODING 187
SWIDTH 562 0
DWIDTH 9 0
BBX 6 6 1 3
BITMAP
90
D8
6C
6C
D8
90
ENDCHAR
STARTCHAR onequarter
ENCODING 188
SWIDTH 562 0
DWIDTH 9 0
BBX 8 16 0 -4
BITMAP
E0
E0
60
60
F0
F0
0F
1F
F8
F0
03
1B
1F
1F
03
03
ENDCHAR
STARTCHAR onehalf
ENCODING 189
SWIDTH 562 0
DWIDTH 9 0
BBX 8 16 0 -4
BITMAP
E0
E0
60
60
F0
F0
0F
1F
F8
F0
07
0F
03
06
0F
0F
ENDCHAR
STARTCHAR threequarters
ENCODING 190
SWIDTH 562 0
DWIDTH 9 0
BBX 8 16 0 -4
BITMAP
60
F0
30
F0
30
F0
6F
1F
F8
F0
03
1B
1F
1F
03
03
ENDCHAR
STARTCHAR questiondown
ENCODING 191
SWIDTH 562 0
DWIDTH 9 0
BBX 8 12 0 0
BITMAP
18
18
00
00
38
78
E0
C0
C3
E7
7E
3C
ENDCHAR
STARTCHAR Agrave
ENCODING 192
SWIDTH 562 0
DWIDTH 9 0
BBX 8 12 0 0
BITMAP
70
38
1C
00
3C
7E
E7
C3
FF
FF
C3
C3
ENDCHAR
STARTCHAR Aacute
ENCODING 193
SWIDTH 562 0
DWIDTH 9 0
BBX 8 12 0 0
BITMAP
0E
1C
38
00
3C
7E
E7
C3
FF
FF
C3
C3
ENDCHAR
STARTCHAR Acircumflex
ENCODING 194
SWIDTH 562 0
DWIDTH 9 0
BBX 8 12 0 0
BITMAP
18
3C
66
00
3C
7E
E7
C3
FF
FF
C3
C3
ENDCHAR
STARTCHAR Atilde
ENCODING 195
SWIDTH 562 0
DWIDTH 9 0
BBX 8 12 0 0
BITMAP
73
FF
CE
00
3C
7E
E7
C3
FF
FF
C3
C3
ENDCHAR
STARTCHAR Adieresis
ENCODING 196
SWIDTH 562 0
DWIDTH 9 0
BBX 8 12 0 0
BITMAP
66
66
00
00
3C
7E
E7
C3
FF
FF
C3
C3
ENDCHAR
STARTCHAR Aring
ENCODING 197
SWIDTH 562 0
DWIDTH 9 0
BBX 8 12 0 0
BITMAP
18
24
24
18
3C
7E
E7
C3
FF
FF
C3
C3
ENDCHAR
STARTCHAR AE
ENCODING 198
SWIDTH 562 0
DWIDTH 9 0
BBX 8 12 0 0
BITMAP
3F
7F
EC
CC
CC
FF
FF
CC
CC
CC
CF
CF
ENDCHAR
STARTCHAR Ccedilla
ENCODING 199
SWIDTH 562 0
DWIDTH 9 0
BBX 8 16 0 -4
BITMAP
3C
7E
E7
C3
C0
C0
C0
C0
C3
E7
7E
3C
18
0C
3C
38
ENDCHAR
STARTCHAR Egrave
ENCODING 200
SWIDTH 562 0
DWIDTH 9 0
BBX 8 12 0 0
BITMAP
70
38
1C
00
FF
FF
C0
FC
FC
C0
FF
FF
ENDCHAR
STARTCHAR Eacute
ENCODING 201
SWIDTH 562 0
DWIDTH 9 0
BBX 8 12 0 0
BITMAP
0E
1C
38
00
FF
FF
C0
FC
FC
C0
FF
FF
ENDCHAR
STARTCHAR Ecircumflex
ENCODING 202
SWIDTH 562 0
DWIDTH 9 0
BBX 8 12 0 0
BITMAP
18
3C
66
00
FF
FF
C0
FC
FC
C0
FF
FF
ENDCHAR
STARTCHAR Edieresis
ENCODING 203
SWIDTH 562 0
DWIDTH 9 0
BBX 8 12 0 0
BITMAP
66
66
00
00
FF
FF
C0
FC
FC
C0
FF
FF
ENDCHAR
STARTCHAR Igrave
ENCODING 204
SWIDTH 562 0
DWIDTH 9 0
BBX 8 12 0 0
BITMAP
70
38
1C
00
FF
FF
18
18
18
18
FF
FF
ENDCHAR
STARTCHAR Iacute
ENCODING 205
SWIDTH 562 0
DWIDTH 9 0
BBX 8 12 0 0
BITMAP
0E
1C
38
00
FF
FF
18
18
18
18
FF
FF
ENDCHAR
STARTCHAR Icircumflex
ENCODING 206
SWIDTH 562 0
DWIDTH 9 0
BBX 8 12 0 0
BITMAP
18
3C
66
00
FF
FF
18
18
18
18
FF
FF
ENDCHAR
STARTCHAR Idieresis
ENCODING 207
SWIDTH 562 0
DWIDTH 9 0
BBX 8 12 0 0
BITMAP
66
66
00
00
FF
FF
18
18
18
18
FF
FF
ENDCHAR
STARTCHAR Eth
ENCODING 208
SWIDTH 562 0
DWIDTH 9 0
BBX 8 12 0 0
BITMAP
7C
7E
67
63
63
F3
F3
63
63
67
7E
7C
ENDCHAR
STARTCHAR Ntilde
ENCODING 209
SWIDTH 562 0
DWIDTH 9 0
BBX 8 12 0 0
BITMAP
73
FF
CE
00
C3
E3
F3
FB
DF
CF
C7
C3
ENDCHAR
STARTCHAR Ograve
ENCODING 210
SWIDTH 562 0
DWIDTH 9 0
BBX 8 12 0 0
BITMAP
70
38
1C
00
7E
FF
C3
C3
C3
C3
FF
7E
ENDCHAR
STARTCHAR Oacute
ENCODING 211
SWIDTH 562 0
DWIDTH 9 0
BBX 8 12 0 0
BITMAP
0E
1C
38
00
7E
FF
C3
C3
C3
C3
FF
7E
ENDCHAR
STARTCHAR Ocircumflex
ENCODING 212
SWIDTH 562 0
DWIDTH 9 0
BBX 8 12 0 0
BITMAP
18
3C
66
00
7E
FF
C3
C3
C3
C3
FF
7E
ENDCHAR
STARTCHAR Otilde
ENCODING 213
SWIDTH 562 0
DWIDTH 9 0
BBX 8 12 0 0
BITMAP
73
FF
CE
00
7E
FF
C3
C3
C3
C3
FF
7E
ENDCHAR
STARTCHAR Odieresis
ENCODING 214
SWIDTH 562 0
DWIDTH 9 0
BBX 8 12 0 0
BITMAP
66
66
00
00
7E
FF
C3
C3
C3
C3
FF
7E
ENDCHAR
STARTCHAR multiply
ENCODING 215
SWIDTH 562 0
DWIDTH 9 0
BBX 8 8 0 2
BITMAP
C3
E7
7E
3C
3C
7E
E7
C3
ENDCHAR
STARTCHAR Oslash
ENCODING 216
SWIDTH 562 0
DWIDTH 9 0
BBX 8 12 0 0
BITMAP
3F
7F
E7
CF
CF
DF
FB
F3
F3
E7
FE
FC
ENDCHAR
STARTCHAR Ugrave
ENCODING 217
SWIDTH 562 0
DWIDTH 9 0
BBX 8 12 0 0
BITMAP
70
38
1C
00
C3
C3
C3
C3
C3
C3
FF
7E
ENDCHAR
STARTCHAR Uacute
ENCODING 218
SWIDTH 562 0
DWIDTH 9 0
BBX 8 12 0 0
BITMAP
0E
1C
38
00
C3
C3
C3
C3
C3
C3
FF
7E
ENDCHAR
STARTCHAR Ucircumflex
ENCODING 219
SWIDTH 562 0
DWIDTH 9 0
BBX 8 12 0 0
BITMAP
18
3C
66
00
C3
C3
C3
C3
C3
C3
FF
7E
ENDCHAR
STARTCHAR Udieresis
ENCODING 220
SWIDTH 562 0
DWIDTH 9 0
BBX 8 12 0 0
BITMAP
66
66
00
00
C3
C3
C3
C3
C3
C3
FF
7E
ENDCHAR
STARTCHAR Yacute
ENCODING 221
SWIDTH 562 0
DWIDTH 9 0
BBX 8 12 0 0
BITMAP
0E
1C
38
00
C3
E7
7E
3C
18
18
18
18
ENDCHAR
STARTCHAR Thorn
ENCODING 222
SWIDTH 562 0
DWIDTH 9 0
BBX 8 12 0 0
BITMAP
C0
C0
FC
FE
C7
C3
C3
C7
FE
FC
C0
C0
ENDCHAR
STARTCHAR germandbls
ENCODING 223
SWIDTH 562 0
DWIDTH 9 0
BBX 8 12 0 0
BITMAP
3C
7E
E6
CE
DC
D8
DC
CE
C7
C7
DE
DC
ENDCHAR
STARTCHAR agrave
ENCODING 224
SWIDTH 562 0
DWIDTH 9 0
BBX 8 12 0 0
BITMAP
70
38
1C
00
3F
7F
E3
C3
C3
E3
7F
3F
ENDCHAR
STARTCHAR aacute
ENCODING 225
SWIDTH 562 0
DWIDTH 9 0
BBX 8 12 0 0
BITMAP
0E
1C
38
00
3F
7F
E3
C3
C3
E3
7F
3F
ENDCHAR
STARTCHAR acircumflex
ENCODING 226
SWIDTH 562 0
DWIDTH 9 0
BBX 8 12 0 0
BITMAP
18
3C
66
00
3F
7F
E3
C3
C3
E3
7F
3F
ENDCHAR
STARTCHAR atilde
ENCODING 227
SWIDTH 562 0
DWIDTH 9 0
BBX 8 12 0 0
BITMAP
73
FF
CE
00
3F
7F
E3
C3
C3
E3
7F
3F
ENDCHAR
STARTCHAR adieresis
ENCODING 228
SWIDTH 562 0
DWIDTH 9 0
BBX 8 12 0 0
BITMAP
66
66
00
00
3F
7F
E3
C3
C3
E3
7F
3F
ENDCHAR
STARTCHAR aring
ENCODING 229
SWIDTH 562 0
DWIDTH 9 0
BBX 8 12 0 0
BITMAP
18
24
24
18
3F
7F
E3
C3
C3
E3
7F
3F
ENDCHAR
STARTCHAR ae
ENCODING 230
SWIDTH 562 0
DWIDTH 9 0
BBX 8 8 0 0
BITMAP
7E
FF
DF
1F
78
FB
FF
7E
ENDCHAR
STARTCHAR ccedilla
ENCODING 231
SWIDTH 562 0
DWIDTH 9 0
BBX 8 12 0 -4
BITMAP
3F
7F
E0
C0
C0
E0
7F
3F
18
0C
3C
38
ENDCHAR
STARTCHAR egrave
ENCODING 232
SWIDTH 562 0
DWIDTH 9 0
BBX 8 12 0 0
BITMAP
70
38
1C
00
3F
7F
E0
FC
FC
E0
7F
3F
ENDCHAR
STARTCHAR eacute
ENCODING 233
SWIDTH 562 0
DWIDTH 9 0
BBX 8 12 0 0
BITMAP
0E
1C
38
00
3F
7F
E0
FC
FC
E0
7F
3F
ENDCHAR
STARTCHAR ecircumflex
ENCODING 234
SWIDTH 562 0
DWIDTH 9 0
BBX 8 12 0 0
BITMAP
18
3C
66
00
3F
7F
E0
FC
FC
E0
7F
3F
ENDCHAR
STARTCHAR edieresis
ENCODING 235
SWIDTH 562 0
DWIDTH 9 0
BBX 8 12 0 0
BITMAP
66
66
00
00
3F
7F
E0
FC
FC
E0
7F
3F
ENDCHAR
STARTCHAR igrave
ENCODING 236
SWIDTH 562 0
DWIDTH 9 0
BBX 8 12 0 0
BITMAP
70
38
1C
00
78
78
18
18
18
18
FF
FF
ENDCHAR
STARTCHAR iacute
ENCODING 237
SWIDTH 562 0
DWIDTH 9 0
BBX 8 12 0 0
BITMAP
0E
1C
38
00
78
78
18
18
18
18
FF
FF
ENDCHAR
STARTCHAR icircumflex
ENCODING 238
SWIDTH 562 0
DWIDTH 9 0
BBX 8 12 0 0
BITMAP
18
3C
66
00
78
78
18
18
18
18
FF
FF
ENDCHAR
STARTCHAR idieresis
ENCODING 239
SWIDTH 562 0
DWIDTH 9 0
BBX 8 12 0 0
BITMAP
66
66
00
00
78
78
18
18
18
18
FF
FF
ENDCHAR
STARTCHAR eth
ENCODING 240
SWIDTH 562 0
DWIDTH 9 0
BBX 8 12 0 0
BITMAP
0C
1F
1F
06
3E
7F
E7
C3
C3
E7
7E
3C
ENDCHAR
STARTCHAR ntilde
ENCODING 241
SWIDTH 562 0
DWIDTH 9 0
BBX 8 12 0 0
BITMAP
73
FF
CE
00
3C
7E
E7
C3
C3
C3
C3
C3
ENDCHAR
STARTCHAR ograve
ENCODING 242
SWIDTH 562 0
DWIDTH 9 0
BBX 8 12 0 0
BITMAP
70
38
1C
00
3C
7E
E7
C3
C3
E7
7E
3C
ENDCHAR
STARTCHAR oacute
ENCODING 243
SWIDTH 562 0
DWIDTH 9 0
BBX 8 12 0 0
BITMAP
0E
1C
38
00
3C
7E
E7
C3
C3
E7
7E
3C
ENDCHAR
STARTCHAR ocircumflex
ENCODING 244
SWIDTH 562 0
DWIDTH 9 0
BBX 8 12 0 0
BITMAP
18
3C
66
00
3C
7E
E7
C3
C3
E7
7E
3C
ENDCHAR
STARTCHAR otilde
ENCODING 245
SWIDTH 562 0
DWIDTH 9 0
BBX 8 12 0 0
BITMAP
73
FF
CE
00
3C
7E
E7
C3
C3
E7
7E
3C
ENDCHAR
STARTCHAR odieresis
ENCODING 246
SWIDTH 562 0
DWIDTH 9 0
BBX 8 12 0 0
BITMAP
66
66
00
00
3C
7E
E7
C3
C3
E7
7E
3C
ENDCHAR
STARTCHAR divide
ENCODING 247
SWIDTH 562 0
DWIDTH 9 0
BBX 8 8 0 2
BITMAP
18
18
00
FF
FF
00
18
18
ENDCHAR
STARTCHAR oslash
ENCODING 248
SWIDTH 562 0
DWIDTH 9 0
BBX 8 8 0 0
BITMAP
3F
7F
CF
DF
FB
F3
FE
FC
ENDCHAR
STARTCHAR ugrave
ENCODING 249
SWIDTH 562 0
DWIDTH 9 0
BBX 8 12 0 0
BITMAP
70
38
1C
00
C3
C3
C3
C3
C3
E7
7E
3C
ENDCHAR
STARTCHAR uacute
ENCODING 250
SWIDTH 562 0
DWIDTH 9 0
BBX 8 12 0 0
BITMAP
0E
1C
38
00
C3
C3
C3
C3
C3
E7
7E
3C
ENDCHAR
STARTCHAR ucircumflex
ENCODING 251
SWIDTH 562 0
DWIDTH 9 0
BBX 8 12 0 0
BITMAP
18
3C
66
00
C3
C3
C3
C3
C3
E7
7E
3C
ENDCHAR
STARTCHAR udieresis
ENCODING 252
SWIDTH 562 0
DWIDTH 9 0
BBX 8 12 0 0
BITMAP
66
66
00
00
C3
C3
C3
C3
C3
E7
7E
3C
ENDCHAR
STARTCHAR yacute
ENCODING 253
SWIDTH 562 0
DWIDTH 9 0
BBX 8 16 0 -4
BITMAP
0E
1C
38
00
C3
C3
C3
C3
C3
E7
7F
3F
03
E7
7E
3C
ENDCHAR
STARTCHAR thorn
ENCODING 254
SWIDTH 562 0
DWIDTH 9 0
BBX 8 16 0 -4
BITMAP
C0
C0
C0
C0
FC
FE
E7
C3
C3
E7
FE
FC
C0
C0
C0
C0
ENDCHAR
STARTCHAR ydieresis
ENCODING 255
SWIDTH 562 0
DWIDTH 9 0
BBX 8 16 0 -4
BITMAP
66
66
00
00
C3
C3
C3
C3
C3
E7
7F
3F
03
E7
7E
3C
ENDCHAR
STARTCHAR Amacron
ENCODING 256
SWIDTH 562 0
DWIDTH 9 0
BBX 8 12 0 0
BITMAP
7E
7E
00
00
3C
7E
E7
C3
FF
FF
C3
C3
ENDCHAR
STARTCHAR amacron
ENCODING 257
SWIDTH 562 0
DWIDTH 9 0
BBX 8 12 0 0
BITMAP
7E
7E
00
00
3F
7F
E3
C3
C3
E3
7F
3F
ENDCHAR
STARTCHAR Abreve
ENCODING 258
SWIDTH 562 0
DWIDTH 9 0
BBX 8 12 0 0
BITMAP
66
7E
3C
00
3C
7E
E7
C3
FF
FF
C3
C3
ENDCHAR
STARTCHAR abreve
ENCODING 259
SWIDTH 562 0
DWIDTH 9 0
BBX 8 12 0 0
BITMAP
66
7E
3C
00
3F
7F
E3
C3
C3
E3
7F
3F
ENDCHAR
STARTCHAR Aogonek
ENCODING 260
SWIDTH 562 0
DWIDTH 9 0
BBX 8 16 0 -4
BITMAP
3C
7E
E7
C3
C3
C3
FF
FF
C3
C3
C3
C3
06
0C
0F
07
ENDCHAR
STARTCHAR aogonek
ENCODING 261
SWIDTH 562 0
DWIDTH 9 0
BBX 8 12 0 -4
BITMAP
3F
7F
E3
C3
C3
E3
7F
3F
06
0C
0F
07
ENDCHAR
STARTCHAR Cacute
ENCODING 262
SWIDTH 562 0
DWIDTH 9 0
BBX 8 12 0 0
BITMAP
0E
1C
38
00
7F
FF
C3
C0
C0
C3
FF
7F
ENDCHAR
STARTCHAR cacute
ENCODING 263
SWIDTH 562 0
DWIDTH 9 0
BBX 8 12 0 0
BITMAP
0E
1C
38
00
3F
7F
E0
C0
C0
E0
7F
3F
ENDCHAR
STARTCHAR Ccircumflex
ENCODING 264
SWIDTH 562 0
DWIDTH 9 0
BBX 8 12 0 0
BITMAP
18
3C
66
00
7F
FF
C3
C0
C0
C3
FF
7F
ENDCHAR
STARTCHAR ccircumflex
ENCODING 265
SWIDTH 562 0
DWIDTH 9 0
BBX 8 12 0 0
BITMAP
18
3C
66
00
3F
7F
E0
C0
C0
E0
7F
3F
ENDCHAR
STARTCHAR Cdotaccent
ENCODING 266
SWIDTH 562 0
DWIDTH 9 0
BBX 8 12 0 0
BITMAP
18
18
00
00
7F
FF
C3
C0
C0
C3
FF
7F
ENDCHAR
STARTCHAR cdotaccent
ENCODING 267
SWIDTH 562 0
DWIDTH 9 0
BBX 8 12 0 0
BITMAP
18
18
00
00
3F
7F
E0
C0
C0
E0
7F
3F
ENDCHAR
STARTCHAR Ccaron
ENCODING 268
SWIDTH 562 0
DWIDTH 9 0
BBX 8 12 0 0
BITMAP
66
3C
18
00
7F
FF
C3
C0
C0
C3
FF
7F
ENDCHAR
STARTCHAR ccaron
ENCODING 269
SWIDTH 562 0
DWIDTH 9 0
BBX 8 12 0 0
BITMAP
66
3C
18
00
3F
7F
E0
C0
C0
E0
7F
3F
ENDCHAR
STARTCHAR Dcaron
ENCODING 270
SWIDTH 562 0
DWIDTH 9 0
BBX 8 12 0 0
BITMAP
66
3C
18
00
FC
FE
C7
C3
C3
C7
FE
FC
ENDCHAR
STARTCHAR dcaron
ENCODING 271
SWIDTH 562 0
DWIDTH 9 0
BBX 9 12 0 0
BITMAP
0D80
0D80
0D80
0D80
7C00
FC00
CC00
CC00
CC00
CC00
FC00
7800
ENDCHAR
STARTCHAR Dcroat
ENCODING 272
SWIDTH 562 0
DWIDTH 9 0
BBX 8 12 0 0
BITMAP
7C
7E
67
63
63
FB
FB
63
63
67
7E
7C
ENDCHAR
STARTCHAR dcroat
ENCODING 273
SWIDTH 562 0
DWIDTH 9 0
BBX 8 12 0 0
BITMAP
06
1F
1F
06
3E
7E
EE
C6
C6
EE
7C
38
ENDCHAR
STARTCHAR Emacron
ENCODING 274
SWIDTH 562 0
DWIDTH 9 0
BBX 8 12 0 0
BITMAP
7E
7E
00
00
FF
FF
C0
FC
FC
C0
FF
FF
ENDCHAR
STARTCHAR emacron
ENCODING 275
SWIDTH 562 0
DWIDTH 9 0
BBX 8 12 0 0
BITMAP
7E
7E
00
00
3F
7F
E0
FC
FC
E0
7F
3F
ENDCHAR
STARTCHAR Ebreve
ENCODING 276
SWIDTH 562 0
DWIDTH 9 0
BBX 8 12 0 0
BITMAP
66
7E
3C
00
FF
FF
C0
FC
FC
C0
FF
FF
ENDCHAR
STARTCHAR ebreve
ENCODING 277
SWIDTH 562 0
DWIDTH 9 0
BBX 8 12 0 0
BITMAP
66
7E
3C
00
3F
7F
E0
FC
FC
E0
7F
3F
ENDCHAR
STARTCHAR Edotaccent
ENCODING 278
SWIDTH 562 0
DWIDTH 9 0
BBX 8 12 0 0
BITMAP
18
18
00
00
FF
FF
C0
FC
FC
C0
FF
FF
ENDCHAR
STARTCHAR edotaccent
ENCODING 279
SWIDTH 562 0
DWIDTH 9 0
BBX 8 12 0 0
BITMAP
18
18
00
00
3F
7F
E0
FC
FC
E0
7F
3F
ENDCHAR
STARTCHAR Eogonek
ENCODING 280
SWIDTH 562 0
DWIDTH 9 0
BBX 8 16 0 -4
BITMAP
FF
FF
C0
C0
C0
FC
FC
C0
C0
C0
FF
FF
06
0C
0F
07
ENDCHAR
STARTCHAR eogonek
ENCODING 281
SWIDTH 562 0
DWIDTH 9 0
BBX 8 12 0 -4
BITMAP
3F
7F
E0
FC
FC
E0
7F
3F
06
0C
0F
07
ENDCHAR
STARTCHAR Ecaron
ENCODING 282
SWIDTH 562 0
DWIDTH 9 0
BBX 8 12 0 0
BITMAP
66
3C
18
00
FF
FF
C0
FC
FC
C0
FF
FF
ENDCHAR
STARTCHAR ecaron
ENCODING 283
SWIDTH 562 0
DWIDTH 9 0
BBX 8 12 0 0
BITMAP
66
3C
18
00
3F
7F
E0
FC
FC
E0
7F
3F
ENDCHAR
STARTCHAR Gcircumflex
ENCODING 284
SWIDTH 562 0
DWIDTH 9 0
BBX 8 12 0 0
BITMAP
18
3C
66
00
7F
FF
C0
C7
C7
C3
FF
7F
ENDCHAR
STARTCHAR gcircumflex
ENCODING 285
SWIDTH 562 0
DWIDTH 9 0
BBX 8 16 0 -4
BITMAP
18
3C
66
00
3C
7E
E7
C3
C3
E7
7F
3F
03
E7
7E
3C
ENDCHAR
STARTCHAR Gbreve
ENCODING 286
SWIDTH 562 0
DWIDTH 9 0
BBX 8 12 0 0
BITMAP
66
7E
3C
00
7F
FF
C0
C7
C7
C3
FF
7F
ENDCHAR
STARTCHAR gbreve
ENCODING 287
SWIDTH 562 0
DWIDTH 9 0
BBX 8 16 0 -4
BITMAP
66
7E
3C
00
3C
7E
E7
C3
C3
E7
7F
3F
03
E7
7E
3C
ENDCHAR
STARTCHAR Gdotaccent
ENCODING 288
SWIDTH 562 0
DWIDTH 9 0
BBX 8 12 0 0
BITMAP
18
18
00
00
7F
FF
C0
C7
C7
C3
FF
7F
ENDCHAR
STARTCHAR gdotaccent
ENCODING 289
SWIDTH 562 0
DWIDTH 9 0
BBX 8 16 0 -4
BITMAP
18
18
00
00
3C
7E
E7
C3
C3
E7
7F
3F
03
E7
7E
3C
ENDCHAR
STARTCHAR Gcommaaccent
ENCODING 290
SWIDTH 562 0
DWIDTH 9 0
BBX 8 16 0 -4
BITMAP
3C
7E
E7
C3
C0
C0
C7
C7
C3
E7
7E
3C
00
18
38
30
ENDCHAR
STARTCHAR gcommaaccent
ENCODING 291
SWIDTH 562 0
DWIDTH 9 0
BBX 8 16 0 -4
BITMAP
0C
1C
18
00
3C
7E
E7
C3
C3
E7
7F
3F
03
E7
7E
3C
ENDCHAR
STARTCHAR Hcircumflex
ENCODING 292
SWIDTH 562 0
DWIDTH 9 0
BBX 8 12 0 0
BITMAP
18
3C
66
00
C3
C3
C3
FF
FF
C3
C3
C3
ENDCHAR
STARTCHAR hcircumflex
ENCODING 293
SWIDTH 562 0
DWIDTH 9 0
BBX 8 12 0 0
BITMAP
CC
DE
F3
C0
C0
FC
FE
E7
C3
C3
C3
C3
ENDCHAR
STARTCHAR Hbar
ENCODING 294
SWIDTH 562 0
DWIDTH 9 0
BBX 8 12 0 0
BITMAP
66
FF
FF
66
66
7E
7E
66
66
66
66
66
ENDCHAR
STARTCHAR hbar
ENCODING 295
SWIDTH 562 0
DWIDTH 9 0
BBX 8 12 0 0
BITMAP
60
F8
F8
60
7C
7E
77
63
63
63
63
63
ENDCHAR
STARTCHAR Itilde
ENCODING 296
SWIDTH 562 0
DWIDTH 9 0
BBX 8 12 0 0
BITMAP
73
FF
CE
00
FF
FF
18
18
18
18
FF
FF
ENDCHAR
STARTCHAR itilde
ENCODING 297
SWIDTH 562 0
DWIDTH 9 0
BBX 8 12 0 0
BITMAP
73
FF
CE
00
78
78
18
18
18
18
FF
FF
ENDCHAR
STARTCHAR Imacron
ENCODING 298
SWIDTH 562 0
DWIDTH 9 0
BBX 8 12 0 0
BITMAP
7E
7E
00
00
FF
FF
18
18
18
18
FF
FF
ENDCHAR
STARTCHAR imacron
ENCODING 299
SWIDTH 562 0
DWIDTH 9 0
BBX 8 12 0 0
BITMAP
7E
7E
00
00
78
78
18
18
18
18
FF
FF
ENDCHAR
STARTCHAR Ibreve
ENCODING 300
SWIDTH 562 0
DWIDTH 9 0
BBX 8 12 0 0
BITMAP
66
7E
3C
00
FF
FF
18
18
18
18
FF
FF
ENDCHAR
STARTCHAR ibreve
ENCODING 301
SWIDTH 562 0
DWIDTH 9 0
BBX 8 12 0 0
BITMAP
66
7E
3C
00
78
78
18
18
18
18
FF
FF
ENDCHAR
STARTCHAR Iogonek
ENCODING 302
SWIDTH 562 0
DWIDTH 9 0
BBX 8 16 0 -4
BITMAP
FF
FF
18
18
18
18
18
18
18
18
FF
FF
06
0C
0F
07
ENDCHAR
STARTCHAR iogonek
ENCODING 303
SWIDTH 562 0
DWIDTH 9 0
BBX 8 16 0 -4
BITMAP
18
18
00
00
78
78
18
18
18
18
FF
FF
06
0C
0F
07
ENDCHAR
STARTCHAR Idotaccent
ENCODING 304
SWIDTH 562 0
DWIDTH 9 0
BBX 8 12 0 0
BITMAP
18
18
00
00
FF
FF
18
18
18
18
FF
FF
ENDCHAR
STARTCHAR dotlessi
ENCODING 305
SWIDTH 562 0
DWIDTH 9 0
BBX 8 8 0 0
BITMAP
78
78
18
18
18
18
FF
FF
ENDCHAR
STARTCHAR IJ
ENCODING 306
SWIDTH 562 0
DWIDTH 9 0
BBX 8 16 0 -4
BITMAP
FF
FF
63
63
63
63
63
63
63
63
F3
F3
03
07
1E
1C
ENDCHAR
STARTCHAR ij
ENCODING 307
SWIDTH 562 0
DWIDTH 9 0
BBX 8 16 0 -4
BITMAP
66
66
00
00
EF
EF
63
63
63
63
F3
F3
03
07
1E
1C
ENDCHAR
STARTCHAR Jcircumflex
ENCODING 308
SWIDTH 562 0
DWIDTH 9 0
BBX 8 12 0 0
BITMAP
18
3C
66
00
FF
FF
03
03
03
E7
7E
3C
ENDCHAR
STARTCHAR jcircumflex
ENCODING 309
SWIDTH 562 0
DWIDTH 9 0
BBX 8 16 0 -4
BITMAP
0C
1E
33
00
0F
0F
03
03
03
03
03
03
03
E7
7E
3C
ENDCHAR
STARTCHAR Kcommaaccent
ENCODING 310
SWIDTH 562 0
DWIDTH 9 0
BBX 8 16 0 -4
BITMAP
C3
C3
C3
C7
CE
FC
FC
CE
C7
C3
C3
C3
00
18
38
30
ENDCHAR
STARTCHAR kcommaaccent
ENCODING 311
SWIDTH 562 0
DWIDTH 9 0
BBX 8 16 0 -4
BITMAP
C0
C0
C0
C0
C3
C7
CE
FC
FC
CE
C7
C3
00
18
38
30
ENDCHAR
STARTCHAR kgreenlandic
ENCODING 312
SWIDTH 562 0
DWIDTH 9 0
BBX 8 8 0 0
BITMAP
C3
C7
CE
FC
FC
CE
C7
C3
ENDCHAR
STARTCHAR Lacute
ENCODING 313
SWIDTH 562 0
DWIDTH 9 0
BBX 8 12 0 0
BITMAP
0E
1C
38
00
C0
C0
C0
C0
C0
C0
FF
FF
ENDCHAR
STARTCHAR lacute
ENCODING 314
SWIDTH 562 0
DWIDTH 9 0
BBX 6 12 1 0
BITMAP
1C
38
70
00
E0
F0
30
30
30
30
3C
1C
ENDCHAR
STARTCHAR Lcommaaccent
ENCODING 315
SWIDTH 562 0
DWIDTH 9 0
BBX 8 16 0 -4
BITMAP
C0
C0
C0
C0
C0
C0
C0
C0
C0
C0
FF
FF
00
18
38
30
ENDCHAR
STARTCHAR lcommaaccent
ENCODING 316
SWIDTH 562 0
DWIDTH 9 0
BBX 8 16 0 -4
BITMAP
E0
F0
38
18
18
18
18
18
18
1C
0F
07
00
18
38
30
ENDCHAR
STARTCHAR Lcaron
ENCODING 317
SWIDTH 562 0
DWIDTH 9 0
BBX 8 12 0 0
BITMAP
D8
D8
D8
D8
C0
C0
C0
C0
C0
C0
FF
FF
ENDCHAR
STARTCHAR lcaron
ENCODING 318
SWIDTH 562 0
DWIDTH 9 0
BBX 8 12 0 0
BITMAP
E3
F3
3B
1B
18
18
18
18
18
1C
0F
07
ENDCHAR
STARTCHAR Ldot
ENCODING 319
SWIDTH 562 0
DWIDTH 9 0
BBX 8 12 0 0
BITMAP
C0
C0
C0
C0
C0
D8
D8
C0
C0
C0
FF
FF
ENDCHAR
STARTCHAR ldot
ENCODING 320
SWIDTH 562 0
DWIDTH 9 0
BBX 8 12 0 0
BITMAP
E0
F0
38
18
18
1B
1B
18
18
1C
0F
07
ENDCHAR
STARTCHAR Lslash
ENCODING 321
SWIDTH 562 0
DWIDTH 9 0
BBX 8 12 0 0
BITMAP
60
60
60
60
78
78
E0
E0
60
60
7F
7F
ENDCHAR
STARTCHAR lslash
ENCODING 322
SWIDTH 562 0
DWIDTH 9 0
BBX 8 12 0 0
BITMAP
E0
F0
38
18
18
1E
7E
78
18
1C
0F
07
ENDCHAR
STARTCHAR Nacute
ENCODING 323
SWIDTH 562 0
DWIDTH 9 0
BBX 8 12 0 0
BITMAP
0E
1C
38
00
C3
E3
F3
FB
DF
CF
C7
C3
ENDCHAR
STARTCHAR nacute
ENCODING 324
SWIDTH 562 0
DWIDTH 9 0
BBX 8 12 0 0
BITMAP
0E
1C
38
00
3C
7E
E7
C3
C3
C3
C3
C3
ENDCHAR
STARTCHAR Ncommaaccent
ENCODING 325
SWIDTH 562 0
DWIDTH 9 0
BBX 8 16 0 -4
BITMAP
C3
C3
E3
E3
F3
FB
DF
CF
C7
C7
C3
C3
00
18
38
30
ENDCHAR
STARTCHAR ncommaaccent
ENCODING 326
SWIDTH 562 0
DWIDTH 9 0
BBX 8 12 0 -4
BITMAP
3C
7E
E7
C3
C3
C3
C3
C3
00
18
38
30
ENDCHAR
STARTCHAR Ncaron
ENCODING 327
SWIDTH 562 0
DWIDTH 9 0
BBX 8 12 0 0
BITMAP
66
3C
18
00
C3
E3
F3
FB
DF
CF
C7
C3
ENDCHAR
STARTCHAR ncaron
ENCODING 328
SWIDTH 562 0
DWIDTH 9 0
BBX 8 12 0 0
BITMAP
66
3C
18
00
3C
7E
E7
C3
C3
C3
C3
C3
ENDCHAR
STARTCHAR napostrophe
ENCODING 329
SWIDTH 562 0
DWIDTH 9 0
BBX 8 12 0 0
BITMAP
C0
C0
C0
00
1C
3E
77
63
63
63
63
63
ENDCHAR
STARTCHAR Eng
ENCODING 330
SWIDTH 562 0
DWIDTH 9 0
BBX 8 16 0 -4
BITMAP
FC
FE
E7
C3
C3
C3
C3
C3
C3
C3
C3
C3
03
07
0E
0C
ENDCHAR
STARTCHAR eng
ENCODING 331
SWIDTH 562 0
DWIDTH 9 0
BBX 8 12 0 -4
BITMAP
3C
7E
E7
C3
C3
C3
C3
C3
03
07
0E
0C
ENDCHAR
STARTCHAR Omacron
ENCODING 332
SWIDTH 562 0
DWIDTH 9 0
BBX 8 12 0 0
BITMAP
7E
7E
00
00
7E
FF
C3
C3
C3
C3
FF
7E
ENDCHAR
STARTCHAR omacron
ENCODING 333
SWIDTH 562 0
DWIDTH 9 0
BBX 8 12 0 0
BITMAP
7E
7E
00
00
3C
7E
E7
C3
C3
E7
7E
3C
ENDCHAR
STARTCHAR Obreve
ENCODING 334
SWIDTH 562 0
DWIDTH 9 0
BBX 8 12 0 0
BITMAP
66
7E
3C
00
7E
FF
C3
C3
C3
C3
FF
7E
ENDCHAR
STARTCHAR obreve
ENCODING 335
SWIDTH 562 0
DWIDTH 9 0
BBX 8 12 0 0
BITMAP
66
7E
3C
00
3C
7E
E7
C3
C3
E7
7E
3C
ENDCHAR
STARTCHAR Ohungarumlaut
ENCODING 336
SWIDTH 562 0
DWIDTH 9 0
BBX 8 12 0 0
BITMAP
33
66
CC
00
7E
FF
C3
C3
C3
C3
FF
7E
ENDCHAR
STARTCHAR ohungarumlaut
ENCODING 337
SWIDTH 562 0
DWIDTH 9 0
BBX 8 12 0 0
BITMAP
33
66
CC
00
3C
7E
E7
C3
C3
E7
7E
3C
ENDCHAR
STARTCHAR OE
ENCODING 338
SWIDTH 562 0
DWIDTH 9 0
BBX 8 12 0 0
BITMAP
7F
FF
CC
CC
CC
CF
CF
CC
CC
CC
FF
7F
ENDCHAR
STARTCHAR oe
ENCODING 339
SWIDTH 562 0
DWIDTH 9 0
BBX 8 8 0 0
BITMAP
7E
FF
DF
DF
D8
DB
FF
7E
ENDCHAR
STARTCHAR Racute
ENCODING 340
SWIDTH 562 0
DWIDTH 9 0
BBX 8 12 0 0
BITMAP
0E
1C
38
00
FE
FF
C3
FF
FE
C6
C7
C3
ENDCHAR
STARTCHAR racute
ENCODING 341
SWIDTH 562 0
DWIDTH 9 0
BBX 8 12 0 0
BITMAP
0E
1C
38
00
3C
7E
E7
C3
C0
C0
C0
C0
ENDCHAR
STARTCHAR Rcommaaccent
ENCODING 342
SWIDTH 562 0
DWIDTH 9 0
BBX 8 16 0 -4
BITMAP
FC
FE
C7
C3
C3
C7
FE
FC
C6
C6
C3
C3
00
18
38
30
ENDCHAR
STARTCHAR rcommaaccent
ENCODING 343
SWIDTH 562 0
DWIDTH 9 0
BBX 8 12 0 -4
BITMAP
3C
7E
E7
C3
C0
C0
C0
C0
00
18
38
30
ENDCHAR
STARTCHAR Rcaron
ENCODING 344
SWIDTH 562 0
DWIDTH 9 0
BBX 8 12 0 0
BITMAP
66
3C
18
00
FE
FF
C3
FF
FE
C6
C3
C3
ENDCHAR
STARTCHAR rcaron
ENCODING 345
SWIDTH 562 0
DWIDTH 9 0
BBX 8 12 0 0
BITMAP
66
3C
18
00
3C
7E
E7
C3
C0
C0
C0
C0
ENDCHAR
STARTCHAR Sacute
ENCODING 346
SWIDTH 562 0
DWIDTH 9 0
BBX 8 12 0 0
BITMAP
0E
1C
38
00
7E
FF
C3
F8
1F
C3
FF
7E
ENDCHAR
STARTCHAR sacute
ENCODING 347
SWIDTH 562 0
DWIDTH 9 0
BBX 8 12 0 0
BITMAP
0E
1C
38
00
3F
7F
60
7C
3E
06
FE
FC
ENDCHAR
STARTCHAR Scircumflex
ENCODING 348
SWIDTH 562 0
DWIDTH 9 0
BBX 8 12 0 0
BITMAP
18
3C
66
00
7E
FF
C3
F8
1F
C3
FF
7E
ENDCHAR
STARTCHAR scircumflex
ENCODING 349
SWIDTH 562 0
DWIDTH 9 0
BBX 8 12 0 0
BITMAP
18
3C
66
00
3F
7F
60
7C
3E
06
FE
FC
ENDCHAR
STARTCHAR Scedilla
ENCODING 350
SWIDTH 562 0
DWIDTH 9 0
BBX 8 16 0 -4
BITMAP
3C
7E
E7
C0
C0
FE
7F
03
03
E3
7E
3C
06
03
0F
0E
ENDCHAR
STARTCHAR scedilla
ENCODING 351
SWIDTH 562 0
DWIDTH 9 0
BBX 8 12 0 -4
BITMAP
3F
7F
60
7C
3E
06
FE
FC
60
30
F0
E0
ENDCHAR
STARTCHAR Scaron
ENCODING 352
SWIDTH 562 0
DWIDTH 9 0
BBX 8 12 0 0
BITMAP
66
3C
18
00
7E
FF
C3
F8
1F
C3
FF
7E
ENDCHAR
STARTCHAR scaron
ENCODING 353
SWIDTH 562 0
DWIDTH 9 0
BBX 8 12 0 0
BITMAP
66
3C
18
00
3F
7F
60
7C
3E
06
FE
FC
ENDCHAR
STARTCHAR Tcommaaccent
ENCODING 354
SWIDTH 562 0
DWIDTH 9 0
BBX 8 16 0 -4
BITMAP
FF
FF
18
18
18
18
18
18
18
18
18
18
18
0C
3C
38
ENDCHAR
STARTCHAR tcommaaccent
ENCODING 355
SWIDTH 562 0
DWIDTH 9 0
BBX 8 16 0 -4
BITMAP
18
18
18
18
FF
FF
18
18
18
1C
0F
07
06
03
0F
0E
ENDCHAR
STARTCHAR Tcaron
ENCODING 356
SWIDTH 562 0
DWIDTH 9 0
BBX 8 12 0 0
BITMAP
66
3C
18
00
FF
FF
18
18
18
18
18
18
ENDCHAR
STARTCHAR tcaron
ENCODING 357
SWIDTH 562 0
DWIDTH 9 0
BBX 8 12 0 0
BITMAP
33
33
33
33
FC
FC
30
30
30
38
1E
0E
ENDCHAR
STARTCHAR Tbar
ENCODING 358
SWIDTH 562 0
DWIDTH 9 0
BBX 8 12 0 0
BITMAP
FF
FF
18
18
18
7E
7E
18
18
18
18
18
ENDCHAR
STARTCHAR tbar
ENCODING 359
SWIDTH 562 0
DWIDTH 9 0
BBX 8 12 0 0
BITMAP
18
18
18
18
FF
FF
18
7E
7E
18
1E
0E
ENDCHAR
STARTCHAR Utilde
ENCODING 360
SWIDTH 562 0
DWIDTH 9 0
BBX 8 12 0 0
BITMAP
73
FF
CE
00
C3
C3
C3
C3
C3
C3
FF
7E
ENDCHAR
STARTCHAR utilde
ENCODING 361
SWIDTH 562 0
DWIDTH 9 0
BBX 8 12 0 0
BITMAP
73
FF
CE
00
C3
C3
C3
C3
C3
E7
7E
3C
ENDCHAR
STARTCHAR Umacron
ENCODING 362
SWIDTH 562 0
DWIDTH 9 0
BBX 8 12 0 0
BITMAP
7E
7E
00
00
C3
C3
C3
C3
C3
C3
FF
7E
ENDCHAR
STARTCHAR umacron
ENCODING 363
SWIDTH 562 0
DWIDTH 9 0
BBX 8 12 0 0
BITMAP
7E
7E
00
00
C3
C3
C3
C3
C3
E7
7E
3C
ENDCHAR
STARTCHAR Ubreve
ENCODING 364
SWIDTH 562 0
DWIDTH 9 0
BBX 8 12 0 0
BITMAP
66
7E
3C
00
C3
C3
C3
C3
C3
C3
FF
7E
ENDCHAR
STARTCHAR ubreve
ENCODING 365
SWIDTH 562 0
DWIDTH 9 0
BBX 8 12 0 0
BITMAP
66
7E
3C
00
C3
C3
C3
C3
C3
E7
7E
3C
ENDCHAR
STARTCHAR Uring
ENCODING 366
SWIDTH 562 0
DWIDTH 9 0
BBX 8 12 0 0
BITMAP
18
24
24
18
C3
C3
C3
C3
C3
C3
FF
7E
ENDCHAR
STARTCHAR uring
ENCODING 367
SWIDTH 562 0
DWIDTH 9 0
BBX 8 12 0 0
BITMAP
18
24
24
18
C3
C3
C3
C3
C3
E7
7E
3C
ENDCHAR
STARTCHAR Uhungarumlaut
ENCODING 368
SWIDTH 562 0
DWIDTH 9 0
BBX 8 12 0 0
BITMAP
33
66
CC
00
C3
C3
C3
C3
C3
C3
FF
7E
ENDCHAR
STARTCHAR uhungarumlaut
ENCODING 369
SWIDTH 562 0
DWIDTH 9 0
BBX 8 12 0 0
BITMAP
33
66
CC
00
C3
C3
C3
C3
C3
E7
7E
3C
ENDCHAR
STARTCHAR Uogonek
ENCODING 370
SWIDTH 562 0
DWIDTH 9 0
BBX 8 16 0 -4
BITMAP
C3
C3
C3
C3
C3
C3
C3
C3
C3
E7
7E
3C
18
30
3C
1C
ENDCHAR
STARTCHAR uogonek
ENCODING 371
SWIDTH 562 0
DWIDTH 9 0
BBX 8 12 0 -4
BITMAP
C3
C3
C3
C3
C3
E7
7E
3C
18
30
3C
1C
ENDCHAR
STARTCHAR Wcircumflex
ENCODING 372
SWIDTH 562 0
DWIDTH 9 0
BBX 8 12 0 0
BITMAP
18
3C
66
00
C3
C3
DB
DB
DB
DB
FF
FF
ENDCHAR
STARTCHAR wcircumflex
ENCODING 373
SWIDTH 562 0
DWIDTH 9 0
BBX 8 12 0 0
BITMAP
18
3C
66
00
C3
C3
DB
DB
DB
FF
7E
3C
ENDCHAR
STARTCHAR Ycircumflex
ENCODING 374
SWIDTH 562 0
DWIDTH 9 0
BBX 8 12 0 0
BITMAP
18
3C
66
00
C3
E7
7E
3C
18
18
18
18
ENDCHAR
STARTCHAR ycircumflex
ENCODING 375
SWIDTH 562 0
DWIDTH 9 0
BBX 8 16 0 -4
BITMAP
18
3C
66
00
C3
C3
C3
C3
C3
E7
7F
3F
03
E7
7E
3C
ENDCHAR
STARTCHAR Ydieresis
ENCODING 376
SWIDTH 562 0
DWIDTH 9 0
BBX 8 12 0 0
BITMAP
66
66
00
00
C3
E7
7E
3C
18
18
18
18
ENDCHAR
STARTCHAR Zacute
ENCODING 377
SWIDTH 562 0
DWIDTH 9 0
BBX 8 12 0 0
BITMAP
0E
1C
38
00
FF
FF
0E
1C
38
70
FF
FF
ENDCHAR
STARTCHAR zacute
ENCODING 378
SWIDTH 562 0
DWIDTH 9 0
BBX 8 12 0 0
BITMAP
0E
1C
38
00
FE
FE
0C
1C
38
30
7F
7F
ENDCHAR
STARTCHAR Zdotaccent
ENCODING 379
SWIDTH 562 0
DWIDTH 9 0
BBX 8 12 0 0
BITMAP
18
18
00
00
FF
FF
0E
1C
38
70
FF
FF
ENDCHAR
STARTCHAR zdotaccent
ENCODING 380
SWIDTH 562 0
DWIDTH 9 0
BBX 8 12 0 0
BITMAP
18
18
00
00
FE
FE
0C
1C
38
30
7F
7F
ENDCHAR
STARTCHAR Zcaron
ENCODING 381
SWIDTH 562 0
DWIDTH 9 0
BBX 8 12 0 0
BITMAP
66
3C
18
00
FF
FF
0E
1C
38
70
FF
FF
ENDCHAR
STARTCHAR zcaron
ENCODING 382
SWIDTH 562 0
DWIDTH 9 0
BBX 8 12 0 0
BITMAP
66
3C
18
00
FE
FE
0C
1C
38
30
7F
7F
ENDCHAR
STARTCHAR longs
ENCODING 383
SWIDTH 562 0
DWIDTH 9 0
BBX 5 12 3 0
BITMAP
38
78
E0
C0
C0
C0
C0
C0
C0
C0
C0
C0
ENDCHAR
STARTCHAR uni0180
ENCODING 384
SWIDTH 562 0
DWIDTH 9 0
BBX 8 12 0 0
BITMAP
60
F8
F8
60
7C
7E
77
63
63
77
3E
1C
ENDCHAR
STARTCHAR uni0181
ENCODING 385
SWIDTH 562 0
DWIDTH 9 0
BBX 8 12 0 0
BITMAP
FC
FE
B7
33
33
3F
3F
33
33
37
3E
3C
ENDCHAR
STARTCHAR uni0182
ENCODING 386
SWIDTH 562 0
DWIDTH 9 0
BBX 8 12 0 0
BITMAP
FE
FE
C0
C0
C0
FC
FE
C7
C3
C7
FE
FC
ENDCHAR
STARTCHAR uni0183
ENCODING 387
SWIDTH 562 0
DWIDTH 9 0
BBX 8 12 0 0
BITMAP
FE
FE
C0
C0
FC
FE
E7
C3
C3
E7
7E
3C
ENDCHAR
STARTCHAR uni0184
ENCODING 388
SWIDTH 562 0
DWIDTH 9 0
BBX 8 12 0 0
BITMAP
30
70
F0
70
30
3C
3E
37
33
37
3E
3C
ENDCHAR
STARTCHAR uni0185
ENCODING 389
SWIDTH 562 0
DWIDTH 9 0
BBX 8 12 0 0
BITMAP
30
70
F0
70
3E
3F
33
33
33
33
3F
1E
ENDCHAR
STARTCHAR uni0186
ENCODING 390
SWIDTH 562 0
DWIDTH 9 0
BBX 8 12 0 0
BITMAP
3C
7E
E7
C3
C3
03
03
C3
C3
E7
7E
3C
ENDCHAR
STARTCHAR uni0187
ENCODING 391
SWIDTH 562 0
DWIDTH 9 0
BBX 8 12 0 0
BITMAP
03
07
3E
7E
E6
C0
C0
C0
C0
E6
7E
3C
ENDCHAR
STARTCHAR uni0188
ENCODING 392
SWIDTH 562 0
DWIDTH 9 0
BBX 8 11 0 0
BITMAP
07
0F
0C
3C
7C
E0
C0
C0
E0
7C
3C
ENDCHAR
STARTCHAR uni0189
ENCODING 393
SWIDTH 562 0
DWIDTH 9 0
BBX 8 12 0 0
BITMAP
7E
7F
63
63
63
F3
F3
63
63
63
7F
7E
ENDCHAR
STARTCHAR uni018A
ENCODING 394
SWIDTH 562 0
DWIDTH 9 0
BBX 8 12 0 0
BITMAP
FC
FE
B7
33
33
33
33
33
33
37
3E
3C
ENDCHAR
STARTCHAR uni018B
ENCODING 395
SWIDTH 562 0
DWIDTH 9 0
BBX 8 12 0 0
BITMAP
7F
7F
03
03
03
3F
7F
E3
C3
E3
7F
3F
ENDCHAR
STARTCHAR uni018C
ENCODING 396
SWIDTH 562 0
DWIDTH 9 0
BBX 8 12 0 0
BITMAP
7F
7F
03
03
3F
7F
E7
C3
C3
E7
7E
3C
ENDCHAR
STARTCHAR uni018D
ENCODING 397
SWIDTH 562 0
DWIDTH 9 0
BBX 8 12 0 -4
BITMAP
3C
7E
E7
C3
C3
E7
7E
3C
0C
0C
FC
F8
ENDCHAR
STARTCHAR uni018E
ENCODING 398
SWIDTH 562 0
DWIDTH 9 0
BBX 8 12 0 0
BITMAP
FF
FF
03
03
03
3F
3F
03
03
03
FF
FF
ENDCHAR
STARTCHAR uni018F
ENCODING 399
SWIDTH 562 0
DWIDTH 9 0
BBX 8 12 0 0
BITMAP
3C
7E
E7
03
03
FF
FF
C3
C3
E7
7E
3C
ENDCHAR
STARTCHAR uni0190
ENCODING 400
SWIDTH 562 0
DWIDTH 9 0
BBX 8 12 0 0
BITMAP
3E
7F
E3
C0
C0
7C
7C
C0
C0
E3
7F
3E
ENDCHAR
STARTCHAR uni0191
ENCODING 401
SWIDTH 562 0
DWIDTH 9 0
BBX 8 16 0 -4
BITMAP
7F
7F
60
60
60
7E
7E
60
60
60
60
60
60
60
E0
C0
ENDCHAR
STARTCHAR florin
ENCODING 402
SWIDTH 562 0
DWIDTH 9 0
BBX 8 16 0 -4
BITMAP
07
0F
1C
18
7E
7E
18
18
18
18
18
18
18
38
F0
E0
ENDCHAR
STARTCHAR uni0193
ENCODING 403
SWIDTH 562 0
DWIDTH 9 0
BBX 8 11 0 0
BITMAP
03
07
06
3E
7E
E0
CE
CE
E6
7E
3C
ENDCHAR
STARTCHAR uni0194
ENCODING 404
SWIDTH 562 0
DWIDTH 9 0
BBX 8 12 0 0
BITMAP
C3
C3
66
66
3C
3C
18
18
3C
24
24
3C
ENDCHAR
STARTCHAR uni0195
ENCODING 405
SWIDTH 562 0
DWIDTH 9 0
BBX 8 12 0 0
BITMAP
C0
C0
C0
C0
C0
F3
FB
DB
DB
DB
DF
CE
ENDCHAR
STARTCHAR uni0196
ENCODING 406
SWIDTH 562 0
DWIDTH 9 0
BBX 4 12 3 0
BITMAP
C0
C0
C0
C0
C0
C0
C0
C0
C0
E0
70
30
ENDCHAR
STARTCHAR uni0197
ENCODING 407
SWIDTH 562 0
DWIDTH 9 0
BBX 8 12 0 0
BITMAP
FF
FF
18
18
18
3C
3C
18
18
18
FF
FF
ENDCHAR
STARTCHAR uni0198
ENCODING 408
SWIDTH 562 0
DWIDTH 9 0
BBX 8 12 0 0
BITMAP
CE
DF
DB
D8
D8
F8
F8
DC
CE
C6
C7
C3
ENDCHAR
STARTCHAR uni0199
ENCODING 409
SWIDTH 562 0
DWIDTH 9 0
BBX 8 12 0 0
BITMAP
70
F8
D8
C0
C3
C7
CE
FC
FC
CE
C7
C3
ENDCHAR
STARTCHAR uni019A
ENCODING 410
SWIDTH 562 0
DWIDTH 9 0
BBX 8 12 0 0
BITMAP
E0
F0
38
18
18
3C
3C
18
18
1C
0F
07
ENDCHAR
STARTCHAR uni019B
ENCODING 411
SWIDTH 562 0
DWIDTH 9 0
BBX 8 12 0 0
BITMAP
60
60
30
3E
FE
F8
0C
1C
3E
76
E3
C3
ENDCHAR
STARTCHAR uni019C
ENCODING 412
SWIDTH 562 0
DWIDTH 9 0
BBX 8 12 0 0
BITMAP
C3
C3
C3
DB
DB
DB
DB
DB
DB
FF
FF
67
ENDCHAR
STARTCHAR uni019D
ENCODING 413
SWIDTH 562 0
DWIDTH 9 0
BBX 8 16 0 -4
BITMAP
63
73
73
7B
7B
7B
6F
6F
6F
67
67
63
60
60
E0
C0
ENDCHAR
STARTCHAR uni019E
ENCODING 414
SWIDTH 562 0
DWIDTH 9 0
BBX 8 12 0 -4
BITMAP
3C
7E
E7
C3
C3
C3
C3
C3
03
03
03
03
ENDCHAR
STARTCHAR uni019F
ENCODING 415
SWIDTH 562 0
DWIDTH 9 0
BBX 8 12 0 0
BITMAP
3C
7E
E7
C3
C3
D7
EB
C3
C3
E7
7E
3C
ENDCHAR
STARTCHAR Ohorn
ENCODING 416
SWIDTH 562 0
DWIDTH 9 0
BBX 8 12 0 0
BITMAP
03
03
07
07
7E
FF
C3
C3
C3
C3
FF
7E
ENDCHAR
STARTCHAR ohorn
ENCODING 417
SWIDTH 562 0
DWIDTH 9 0
BBX 8 12 0 0
BITMAP
03
03
06
06
3E
7E
E7
C3
C3
E7
7E
3C
ENDCHAR
STARTCHAR uni01A2
ENCODING 418
SWIDTH 562 0
DWIDTH 9 0
BBX 8 14 0 -2
BITMAP
7E
FF
DB
DB
DB
DB
DB
DB
DB
DB
FB
73
03
03
ENDCHAR
STARTCHAR uni01A3
ENCODING 419
SWIDTH 562 0
DWIDTH 9 0
BBX 8 10 0 -2
BITMAP
7E
FF
DB
DB
DB
DB
FB
73
03
03
ENDCHAR
STARTCHAR uni01A4
ENCODING 420
SWIDTH 562 0
DWIDTH 9 0
BBX 8 12 0 0
BITMAP
FC
FE
B7
33
33
37
3E
3C
30
30
30
30
ENDCHAR
STARTCHAR uni01A5
ENCODING 421
SWIDTH 562 0
DWIDTH 9 0
BBX 8 16 0 -4
BITMAP
70
F0
C0
C0
FC
FE
E7
C3
C3
E7
FE
FC
C0
C0
C0
C0
ENDCHAR
STARTCHAR uni01A6
ENCODING 422
SWIDTH 562 0
DWIDTH 9 0
BBX 8 14 0 -2
BITMAP
C0
C0
C0
FE
FF
C3
C3
FF
FE
F8
DC
CE
07
03
ENDCHAR
STARTCHAR uni01A7
ENCODING 423
SWIDTH 562 0
DWIDTH 9 0
BBX 8 12 0 0
BITMAP
FC
FE
07
03
07
3E
7C
E0
C0
E0
7F
3F
ENDCHAR
STARTCHAR uni01A8
ENCODING 424
SWIDTH 562 0
DWIDTH 9 0
BBX 8 8 0 0
BITMAP
FE
FF
03
7F
FE
C0
FF
7F
ENDCHAR
STARTCHAR uni01A9
ENCODING 425
SWIDTH 562 0
DWIDTH 9 0
BBX 8 12 0 0
BITMAP
FF
FF
60
70
38
1C
1C
38
70
60
FF
FF
ENDCHAR
STARTCHAR uni01AA
ENCODING 426
SWIDTH 562 0
DWIDTH 9 0
BBX 7 16 0 -4
BITMAP
70
F8
D8
F8
78
18
18
18
18
18
18
18
18
18
1E
0E
ENDCHAR
STARTCHAR uni01AB
ENCODING 427
SWIDTH 562 0
DWIDTH 9 0
BBX 8 16 0 -4
BITMAP
18
18
18
FF
FF
18
18
18
18
1C
0F
07
03
03
0F
0E
ENDCHAR
STARTCHAR uni01AC
ENCODING 428
SWIDTH 562 0
DWIDTH 9 0
BBX 8 12 0 0
BITMAP
7F
FF
D8
D8
18
18
18
18
18
18
18
18
ENDCHAR
STARTCHAR uni01AD
ENCODING 429
SWIDTH 562 0
DWIDTH 9 0
BBX 8 12 0 0
BITMAP
0E
1E
18
FF
FF
18
18
18
18
1C
0F
07
ENDCHAR
STARTCHAR uni01AE
ENCODING 430
SWIDTH 562 0
DWIDTH 9 0
BBX 8 16 0 -4
BITMAP
FF
FF
18
18
18
18
18
18
18
18
18
18
18
1C
0F
07
ENDCHAR
STARTCHAR Uhorn
ENCODING 431
SWIDTH 562 0
DWIDTH 9 0
BBX 8 12 0 0
BITMAP
03
03
DF
DE
D8
D8
D8
D8
D8
D8
F8
70
ENDCHAR
STARTCHAR uhorn
ENCODING 432
SWIDTH 562 0
DWIDTH 9 0
BBX 8 10 0 0
BITMAP
03
03
CF
CE
CC
CC
CC
CC
FC
78
ENDCHAR
STARTCHAR uni01B1
ENCODING 433
SWIDTH 562 0
DWIDTH 9 0
BBX 8 12 0 0
BITMAP
E7
E7
66
66
E7
C3
C3
C3
C3
E7
7E
3C
ENDCHAR
STARTCHAR uni01B2
ENCODING 434
SWIDTH 562 0
DWIDTH 9 0
BBX 8 12 0 0
BITMAP
C0
CC
CE
C6
C3
C3
C3
C3
C3
E7
7E
3C
ENDCHAR
STARTCHAR uni01B3
ENCODING 435
SWIDTH 562 0
DWIDTH 9 0
BBX 8 12 0 0
BITMAP
CE
DF
DB
D8
D8
F8
70
30
30
30
30
30
ENDCHAR
STARTCHAR uni01B4
ENCODING 436
SWIDTH 562 0
DWIDTH 9 0
BBX 8 14 0 -4
BITMAP
0E
1F
DB
D8
D8
D8
D8
D8
F8
78
18
18
78
70
ENDCHAR
STARTCHAR uni01B5
ENCODING 437
SWIDTH 562 0
DWIDTH 9 0
BBX 8 12 0 0
BITMAP
FF
FF
06
06
0C
7E
7E
30
60
60
FF
FF
ENDCHAR
STARTCHAR uni01B6
ENCODING 438
SWIDTH 562 0
DWIDTH 9 0
BBX 8 8 0 0
BITMAP
FE
FE
0C
7E
7E
30
7F
7F
ENDCHAR
STARTCHAR uni01B7
ENCODING 439
SWIDTH 562 0
DWIDTH 9 0
BBX 8 12 0 0
BITMAP
FF
FF
0E
1C
38
7C
7E
07
03
C7
FE
7C
ENDCHAR
STARTCHAR uni01B8
ENCODING 440
SWIDTH 562 0
DWIDTH 9 0
BBX 8 12 0 0
BITMAP
FF
FF
70
38
1C
3E
7E
E0
C0
E3
7F
3E
ENDCHAR
STARTCHAR uni01B9
ENCODING 441
SWIDTH 562 0
DWIDTH 9 0
BBX 8 12 0 -4
BITMAP
7F
7F
30
38
1C
0C
7E
FE
C0
C3
FF
7E
ENDCHAR
STARTCHAR uni01BA
ENCODING 442
SWIDTH 562 0
DWIDTH 9 0
BBX 8 12 0 -4
BITMAP
FF
FF
0E
1C
3E
3F
03
3F
7E
60
7C
3C
ENDCHAR
STARTCHAR uni01BB
ENCODING 443
SWIDTH 562 0
DWIDTH 9 0
BBX 8 12 0 0
BITMAP
3C
7E
E7
C3
03
07
FF
FF
38
70
FF
FF
ENDCHAR
STARTCHAR uni01BC
ENCODING 444
SWIDTH 562 0
DWIDTH 9 0
BBX 8 12 0 0
BITMAP
FF
FF
60
60
60
7E
7F
03
03
C3
FF
7E
ENDCHAR
STARTCHAR uni01BD
ENCODING 445
SWIDTH 562 0
DWIDTH 9 0
BBX 8 8 0 0
BITMAP
FF
FF
60
7E
7F
03
7F
7E
ENDCHAR
STARTCHAR uni01BE
ENCODING 446
SWIDTH 562 0
DWIDTH 9 0
BBX 8 12 0 0
BITMAP
18
7E
7E
18
1C
1E
07
03
C3
E7
7E
3C
ENDCHAR
STARTCHAR uni01BF
ENCODING 447
SWIDTH 562 0
DWIDTH 9 0
BBX 8 12 0 -3
BITMAP
CE
DF
FB
F3
C7
CE
DC
F8
F0
E0
C0
C0
ENDCHAR
STARTCHAR uni01C0
ENCODING 448
SWIDTH 562 0
DWIDTH 9 0
BBX 2 12 3 -2
BITMAP
C0
C0
C0
C0
C0
C0
C0
C0
C0
C0
C0
C0
ENDCHAR
STARTCHAR uni01C1
ENCODING 449
SWIDTH 562 0
DWIDTH 9 0
BBX 6 12 1 -2
BITMAP
CC
CC
CC
CC
CC
CC
CC
CC
CC
CC
CC
CC
ENDCHAR
STARTCHAR uni01C2
ENCODING 450
SWIDTH 562 0
DWIDTH 9 0
BBX 6 12 1 -2
BITMAP
30
30
FC
FC
30
30
30
30
FC
FC
30
30
ENDCHAR
STARTCHAR uni01C3
ENCODING 451
SWIDTH 562 0
DWIDTH 9 0
BBX 2 12 3 -2
BITMAP
C0
C0
C0
C0
C0
C0
C0
C0
00
00
C0
C0
ENDCHAR
STARTCHAR uni01C4
ENCODING 452
SWIDTH 562 0
DWIDTH 9 0
BBX 8 12 0 0
BITMAP
1B
0E
04
F7
FF
DB
DB
DF
DE
DE
FF
F7
ENDCHAR
STARTCHAR uni01C5
ENCODING 453
SWIDTH 562 0
DWIDTH 9 0
BBX 8 12 0 0
BITMAP
1B
0E
E4
F0
F8
DF
DF
DB
DE
FC
FF
EF
ENDCHAR
STARTCHAR uni01C6
ENCODING 454
SWIDTH 562 0
DWIDTH 9 0
BBX 8 12 0 0
BITMAP
1B
0E
04
18
18
7F
FF
DB
DE
DC
FF
7F
ENDCHAR
STARTCHAR uni01C7
ENCODING 455
SWIDTH 562 0
DWIDTH 9 0
BBX 8 15 0 -3
BITMAP
CF
CF
C3
C3
C3
C3
C3
C3
C3
C3
F3
F3
07
1E
1C
ENDCHAR
STARTCHAR uni01C8
ENCODING 456
SWIDTH 562 0
DWIDTH 9 0
BBX 8 16 0 -4
BITMAP
C3
C3
C0
C0
C3
C3
C3
C3
C3
C3
FB
FB
03
07
1E
1C
ENDCHAR
STARTCHAR uni01C9
ENCODING 457
SWIDTH 562 0
DWIDTH 9 0
BBX 8 16 0 -4
BITMAP
C3
E3
60
60
63
63
63
63
63
63
73
33
03
07
1E
1C
ENDCHAR
STARTCHAR uni01CA
ENCODING 458
SWIDTH 562 0
DWIDTH 9 0
BBX 8 16 0 -4
BITMAP
8B
CB
CB
EB
EB
EB
BB
BB
BB
9B
9B
8B
03
07
1E
1C
ENDCHAR
STARTCHAR uni01CB
ENCODING 459
SWIDTH 562 0
DWIDTH 9 0
BBX 8 16 0 -4
BITMAP
8B
CB
C8
E8
EB
EB
BB
BB
BB
9B
9B
8B
03
07
1E
1C
ENDCHAR
STARTCHAR uni01CC
ENCODING 460
SWIDTH 562 0
DWIDTH 9 0
BBX 8 16 0 -4
BITMAP
03
03
00
00
73
FB
DB
DB
DB
DB
DB
DB
03
07
1E
1C
ENDCHAR
STARTCHAR uni01CD
ENCODING 461
SWIDTH 562 0
DWIDTH 9 0
BBX 8 12 0 0
BITMAP
66
3C
18
00
3C
7E
E7
C3
FF
FF
C3
C3
ENDCHAR
STARTCHAR uni01CE
ENCODING 462
SWIDTH 562 0
DWIDTH 9 0
BBX 8 12 0 0
BITMAP
66
3C
18
00
3F
7F
E3
C3
C3
E3
7F
3F
ENDCHAR
STARTCHAR uni01CF
ENCODING 463
SWIDTH 562 0
DWIDTH 9 0
BBX 8 12 0 0
BITMAP
66
3C
18
00
FF
FF
18
18
18
18
FF
FF
ENDCHAR
STARTCHAR uni01D0
ENCODING 464
SWIDTH 562 0
DWIDTH 9 0
BBX 8 12 0 0
BITMAP
66
3C
18
00
78
78
18
18
18
18
FF
FF
ENDCHAR
STARTCHAR uni01D1
ENCODING 465
SWIDTH 562 0
DWIDTH 9 0
BBX 8 12 0 0
BITMAP
66
3C
18
00
7E
FF
C3
C3
C3
C3
FF
7E
ENDCHAR
STARTCHAR uni01D2
ENCODING 466
SWIDTH 562 0
DWIDTH 9 0
BBX 8 12 0 0
BITMAP
66
3C
18
00
3C
7E
E7
C3
C3
E7
7E
3C
ENDCHAR
STARTCHAR uni01D3
ENCODING 467
SWIDTH 562 0
DWIDTH 9 0
BBX 8 12 0 0
BITMAP
66
3C
18
00
C3
C3
C3
C3
C3
C3
FF
7E
ENDCHAR
STARTCHAR uni01D4
ENCODING 468
SWIDTH 562 0
DWIDTH 9 0
BBX 8 12 0 0
BITMAP
66
3C
18
00
C3
C3
C3
C3
C3
E7
7E
3C
ENDCHAR
STARTCHAR uni01D5
ENCODING 469
SWIDTH 562 0
DWIDTH 9 0
BBX 8 12 0 0
BITMAP
7E
00
66
00
C3
C3
C3
C3
C3
C3
FF
7E
ENDCHAR
STARTCHAR uni01D6
ENCODING 470
SWIDTH 562 0
DWIDTH 9 0
BBX 8 12 0 0
BITMAP
7E
00
66
00
C3
C3
C3
C3
C3
E7
7E
3C
ENDCHAR
STARTCHAR uni01D7
ENCODING 471
SWIDTH 562 0
DWIDTH 9 0
BBX 8 12 0 0
BITMAP
0C
DB
D3
00
C3
C3
C3
C3
C3
C3
FF
7E
ENDCHAR
STARTCHAR uni01D8
ENCODING 472
SWIDTH 562 0
DWIDTH 9 0
BBX 8 12 0 0
BITMAP
0C
DB
D3
00
C3
C3
C3
C3
C3
E7
7E
3C
ENDCHAR
STARTCHAR uni01D9
ENCODING 473
SWIDTH 562 0
DWIDTH 9 0
BBX 8 12 0 0
BITMAP
66
3C
DB
00
C3
C3
C3
C3
C3
C3
FF
7E
ENDCHAR
STARTCHAR uni01DA
ENCODING 474
SWIDTH 562 0
DWIDTH 9 0
BBX 8 12 0 0
BITMAP
66
3C
DB
00
C3
C3
C3
C3
C3
E7
7E
3C
ENDCHAR
STARTCHAR uni01DB
ENCODING 475
SWIDTH 562 0
DWIDTH 9 0
BBX 8 12 0 0
BITMAP
30
DB
CB
00
C3
C3
C3
C3
C3
C3
FF
7E
ENDCHAR
STARTCHAR uni01DC
ENCODING 476
SWIDTH 562 0
DWIDTH 9 0
BBX 8 12 0 0
BITMAP
30
DB
CB
00
C3
C3
C3
C3
C3
E7
7E
3C
ENDCHAR
STARTCHAR uni01DD
ENCODING 477
SWIDTH 562 0
DWIDTH 9 0
BBX 8 8 0 0
BITMAP
FC
FE
07
3F
3F
07
FE
FC
ENDCHAR
STARTCHAR uni01DE
ENCODING 478
SWIDTH 562 0
DWIDTH 9 0
BBX 8 12 0 0
BITMAP
7E
00
66
00
3C
7E
E7
C3
FF
FF
C3
C3
ENDCHAR
STARTCHAR uni01DF
ENCODING 479
SWIDTH 562 0
DWIDTH 9 0
BBX 8 12 0 0
BITMAP
7E
00
66
00
3F
7F
E3
C3
C3
E3
7F
3F
ENDCHAR
STARTCHAR uni01E0
ENCODING 480
SWIDTH 562 0
DWIDTH 9 0
BBX 8 12 0 0
BITMAP
7E
00
18
00
3C
7E
E7
C3
FF
FF
C3
C3
ENDCHAR
STARTCHAR uni01E1
ENCODING 481
SWIDTH 562 0
DWIDTH 9 0
BBX 8 12 0 0
BITMAP
7E
00
18
00
3F
7F
E3
C3
C3
E3
7F
3F
ENDCHAR
STARTCHAR uni01E2
ENCODING 482
SWIDTH 562 0
DWIDTH 9 0
BBX 8 12 0 0
BITMAP
7E
7E
00
00
7F
FF
D8
FE
FE
D8
DF
DF
ENDCHAR
STARTCHAR uni01E3
ENCODING 483
SWIDTH 562 0
DWIDTH 9 0
BBX 8 12 0 0
BITMAP
7E
7E
00
00
7E
FF
1B
7F
FE
D8
FF
7E
ENDCHAR
STARTCHAR uni01E4
ENCODING 484
SWIDTH 562 0
DWIDTH 9 0
BBX 8 12 0 0
BITMAP
3C
7E
E7
C3
C0
C6
DF
DF
C6
EE
7C
38
ENDCHAR
STARTCHAR uni01E5
ENCODING 485
SWIDTH 562 0
DWIDTH 9 0
BBX 8 12 0 -4
BITMAP
3C
7E
E6
CF
CF
E6
7E
3E
06
E6
7E
3C
ENDCHAR
STARTCHAR Gcaron
ENCODING 486
SWIDTH 562 0
DWIDTH 9 0
BBX 8 12 0 0
BITMAP
66
3C
18
00
3F
7F
E0
CF
CF
E3
7F
3F
ENDCHAR
STARTCHAR gcaron
ENCODING 487
SWIDTH 562 0
DWIDTH 9 0
BBX 8 16 0 -4
BITMAP
66
3C
18
00
3C
7E
E7
C3
C3
E7
7F
3F
03
E7
7E
3C
ENDCHAR
STARTCHAR uni01E8
ENCODING 488
SWIDTH 562 0
DWIDTH 9 0
BBX 8 12 0 0
BITMAP
66
3C
18
00
C3
C7
CE
FC
FC
CE
C7
C3
ENDCHAR
STARTCHAR uni01E9
ENCODING 489
SWIDTH 562 0
DWIDTH 9 0
BBX 8 12 0 0
BITMAP
66
3C
18
C0
C0
C0
C3
CF
FC
FC
CF
C3
ENDCHAR
STARTCHAR uni01EA
ENCODING 490
SWIDTH 562 0
DWIDTH 9 0
BBX 8 16 0 -4
BITMAP
3C
7E
E7
C3
C3
C3
C3
C3
C3
E7
7E
3C
18
30
3C
1C
ENDCHAR
STARTCHAR uni01EB
ENCODING 491
SWIDTH 562 0
DWIDTH 9 0
BBX 8 12 0 -4
BITMAP
3C
7E
E7
C3
C3
E7
7E
3C
18
30
3C
1C
ENDCHAR
STARTCHAR uni01EC
ENCODING 492
SWIDTH 562 0
DWIDTH 9 0
BBX 8 15 0 -4
BITMAP
7E
7E
00
7E
FF
C3
C3
C3
C3
FF
7E
18
30
3C
1C
ENDCHAR
STARTCHAR uni01ED
ENCODING 493
SWIDTH 562 0
DWIDTH 9 0
BBX 8 15 0 -4
BITMAP
7E
7E
00
3C
7E
E7
C3
C3
E7
7E
3C
18
30
3C
1C
ENDCHAR
STARTCHAR uni01EE
ENCODING 494
SWIDTH 562 0
DWIDTH 9 0
BBX 8 14 0 -2
BITMAP
66
3C
18
00
FF
FF
1E
78
FE
FF
03
E3
7F
3E
ENDCHAR
STARTCHAR uni01EF
ENCODING 495
SWIDTH 562 0
DWIDTH 9 0
BBX 8 16 0 -4
BITMAP
66
3C
18
00
FE
FE
0C
1C
38
30
7E
7F
03
E3
7F
3E
ENDCHAR
STARTCHAR uni01F0
ENCODING 496
SWIDTH 562 0
DWIDTH 9 0
BBX 7 16 0 -4
BITMAP
66
3C
18
00
1E
1E
06
06
06
06
06
06
C6
EE
7C
38
ENDCHAR
STARTCHAR uni01F1
ENCODING 497
SWIDTH 562 0
DWIDTH 9 0
BBX 8 12 0 0
BITMAP
EF
FF
FB
DB
DB
DF
DE
DC
DC
FC
FF
EF
ENDCHAR
STARTCHAR uni01F2
ENCODING 498
SWIDTH 562 0
DWIDTH 9 0
BBX 8 12 0 0
BITMAP
E0
F0
F8
D8
DF
DF
DB
DF
DE
FC
FF
EF
ENDCHAR
STARTCHAR uni01F3
ENCODING 499
SWIDTH 562 0
DWIDTH 9 0
BBX 8 12 0 0
BITMAP
18
18
18
18
7F
FF
DB
DF
DE
DC
FF
7F
ENDCHAR
STARTCHAR uni01F4
ENCODING 500
SWIDTH 562 0
DWIDTH 9 0
BBX 8 12 0 0
BITMAP
0E
1C
38
00
3F
7F
E0
CF
CF
E3
7F
3F
ENDCHAR
STARTCHAR uni01F5
ENCODING 501
SWIDTH 562 0
DWIDTH 9 0
BBX 8 16 0 -4
BITMAP
0E
1C
38
00
3C
7E
E7
C3
C3
E7
7F
3F
03
E7
7E
3C
ENDCHAR
STARTCHAR uni01F6
ENCODING 502
SWIDTH 562 0
DWIDTH 9 0
BBX 8 12 0 0
BITMAP
D8
D8
D8
D8
D8
FB
FB
DB
DB
DB
DF
CE
ENDCHAR
STARTCHAR uni01F7
ENCODING 503
SWIDTH 562 0
DWIDTH 9 0
BBX 8 12 0 0
BITMAP
CE
DF
FB
F3
C7
CE
DC
F8
F0
E0
C0
C0
ENDCHAR
STARTCHAR uni01F8
ENCODING 504
SWIDTH 562 0
DWIDTH 9 0
BBX 8 12 0 0
BITMAP
70
38
1C
00
C3
E3
F3
FB
DF
CF
C7
C3
ENDCHAR
STARTCHAR uni01F9
ENCODING 505
SWIDTH 562 0
DWIDTH 9 0
BBX 8 12 0 0
BITMAP
70
38
1C
00
3C
7E
E7
C3
C3
C3
C3
C3
ENDCHAR
STARTCHAR Aringacute
ENCODING 506
SWIDTH 562 0
DWIDTH 9 0
BBX 8 12 0 0
BITMAP
01
1B
26
24
3C
7E
E7
C3
FF
FF
C3
C3
ENDCHAR
STARTCHAR aringacute
ENCODING 507
SWIDTH 562 0
DWIDTH 9 0
BBX 8 12 0 0
BITMAP
01
1B
26
24
3F
7F
E3
C3
C3
E3
7F
3F
ENDCHAR
STARTCHAR AEacute
ENCODING 508
SWIDTH 562 0
DWIDTH 9 0
BBX 8 12 0 0
BITMAP
0E
1C
38
00
7F
FF
CC
FE
FE
CC
CF
CF
ENDCHAR
STARTCHAR aeacute
ENCODING 509
SWIDTH 562 0
DWIDTH 9 0
BBX 8 12 0 0
BITMAP
0E
1C
38
00
7E
FF
1B
7F
FF
D8
FF
7E
ENDCHAR
STARTCHAR Oslashacute
ENCODING 510
SWIDTH 562 0
DWIDTH 9 0
BBX 8 12 0 0
BITMAP
0E
1C
38
00
7F
FF
CF
DF
FB
F3
FF
FE
ENDCHAR
STARTCHAR oslashacute
ENCODING 511
SWIDTH 562 0
DWIDTH 9 0
BBX 8 12 0 0
BITMAP
0E
1C
38
00
3F
7F
CF
DF
FB
F3
FE
FC
ENDCHAR
STARTCHAR uni0200
ENCODING 512
SWIDTH 562 0
DWIDTH 9 0
BBX 8 12 0 0
BITMAP
CC
66
33
00
3C
7E
E7
C3
FF
FF
C3
C3
ENDCHAR
STARTCHAR uni0201
ENCODING 513
SWIDTH 562 0
DWIDTH 9 0
BBX 8 12 0 0
BITMAP
CC
66
33
00
3F
7F
E3
C3
C3
E3
7F
3F
ENDCHAR
STARTCHAR uni0202
ENCODING 514
SWIDTH 562 0
DWIDTH 9 0
BBX 8 12 0 0
BITMAP
3C
7E
66
00
3C
7E
E7
C3
FF
FF
C3
C3
ENDCHAR
STARTCHAR uni0203
ENCODING 515
SWIDTH 562 0
DWIDTH 9 0
BBX 8 12 0 0
BITMAP
3C
7E
66
00
3F
7F
E3
C3
C3
E3
7F
3F
ENDCHAR
STARTCHAR uni0204
ENCODING 516
SWIDTH 562 0
DWIDTH 9 0
BBX 8 12 0 0
BITMAP
CC
66
33
00
FF
FF
C0
FC
FC
C0
FF
FF
ENDCHAR
STARTCHAR uni0205
ENCODING 517
SWIDTH 562 0
DWIDTH 9 0
BBX 8 12 0 0
BITMAP
CC
66
33
00
3F
7F
E0
FC
FC
E0
7F
3F
ENDCHAR
STARTCHAR uni0206
ENCODING 518
SWIDTH 562 0
DWIDTH 9 0
BBX 8 12 0 0
BITMAP
3C
7E
66
00
FF
FF
C0
FC
FC
C0
FF
FF
ENDCHAR
STARTCHAR uni0207
ENCODING 519
SWIDTH 562 0
DWIDTH 9 0
BBX 8 12 0 0
BITMAP
3C
7E
66
00
3F
7F
E0
FF
FF
E0
7F
3F
ENDCHAR
STARTCHAR uni0208
ENCODING 520
SWIDTH 562 0
DWIDTH 9 0
BBX 8 12 0 0
BITMAP
CC
66
33
00
FF
FF
18
18
18
18
FF
FF
ENDCHAR
STARTCHAR uni0209
ENCODING 521
SWIDTH 562 0
DWIDTH 9 0
BBX 8 12 0 0
BITMAP
CC
66
33
00
78
78
18
18
18
18
FF
FF
ENDCHAR
STARTCHAR uni020A
ENCODING 522
SWIDTH 562 0
DWIDTH 9 0
BBX 8 12 0 0
BITMAP
3C
7E
66
00
FF
FF
18
18
18
18
FF
FF
ENDCHAR
STARTCHAR uni020B
ENCODING 523
SWIDTH 562 0
DWIDTH 9 0
BBX 8 12 0 0
BITMAP
3C
7E
66
00
78
78
18
18
18
18
FF
FF
ENDCHAR
STARTCHAR uni020C
ENCODING 524
SWIDTH 562 0
DWIDTH 9 0
BBX 8 12 0 0
BITMAP
CC
66
33
00
7E
FF
C3
C3
C3
C3
FF
7E
ENDCHAR
STARTCHAR uni020D
ENCODING 525
SWIDTH 562 0
DWIDTH 9 0
BBX 8 12 0 0
BITMAP
CC
66
33
00
3C
7E
E7
C3
C3
E7
7E
3C
ENDCHAR
STARTCHAR uni020E
ENCODING 526
SWIDTH 562 0
DWIDTH 9 0
BBX 8 12 0 0
BITMAP
3C
7E
66
00
7E
FF
C3
C3
C3
C3
FF
7E
ENDCHAR
STARTCHAR uni020F
ENCODING 527
SWIDTH 562 0
DWIDTH 9 0
BBX 8 12 0 0
BITMAP
3C
7E
66
00
3C
7E
E7
C3
C3
E7
7E
3C
ENDCHAR
STARTCHAR uni0210
ENCODING 528
SWIDTH 562 0
DWIDTH 9 0
BBX 8 12 0 0
BITMAP
CC
66
33
00
FE
FF
C3
FF
FE
C6
C3
C3
ENDCHAR
STARTCHAR uni0211
ENCODING 529
SWIDTH 562 0
DWIDTH 9 0
BBX 8 12 0 0
BITMAP
CC
66
33
00
3C
7E
E7
C3
C0
C0
C0
C0
ENDCHAR
STARTCHAR uni0212
ENCODING 530
SWIDTH 562 0
DWIDTH 9 0
BBX 8 12 0 0
BITMAP
3C
7E
66
00
FE
FF
C3
FF
FE
C6
C3
C3
ENDCHAR
STARTCHAR uni0213
ENCODING 531
SWIDTH 562 0
DWIDTH 9 0
BBX 8 12 0 0
BITMAP
3C
7E
66
00
3C
7E
E7
C3
C0
C0
C0
C0
ENDCHAR
STARTCHAR uni0214
ENCODING 532
SWIDTH 562 0
DWIDTH 9 0
BBX 8 12 0 0
BITMAP
CC
66
33
00
C3
C3
C3
C3
C3
C3
FF
7E
ENDCHAR
STARTCHAR uni0215
ENCODING 533
SWIDTH 562 0
DWIDTH 9 0
BBX 8 12 0 0
BITMAP
CC
66
33
00
C3
C3
C3
C3
C3
C3
FF
7E
ENDCHAR
STARTCHAR uni0216
ENCODING 534
SWIDTH 562 0
DWIDTH 9 0
BBX 8 12 0 0
BITMAP
3C
7E
66
00
C3
C3
C3
C3
C3
C3
FF
7E
ENDCHAR
STARTCHAR uni0217
ENCODING 535
SWIDTH 562 0
DWIDTH 9 0
BBX 8 12 0 0
BITMAP
3C
7E
66
00
C3
C3
C3
C3
C3
E7
7E
3C
ENDCHAR
STARTCHAR Scommaaccent
ENCODING 536
SWIDTH 562 0
DWIDTH 9 0
BBX 8 16 0 -4
BITMAP
3C
7E
E7
C0
E0
7C
3E
07
03
E7
7E
3C
00
18
38
30
ENDCHAR
STARTCHAR scommaaccent
ENCODING 537
SWIDTH 562 0
DWIDTH 9 0
BBX 8 12 0 -4
BITMAP
3F
7F
60
7C
3E
06
FE
FC
00
18
38
30
ENDCHAR
STARTCHAR uni021A
ENCODING 538
SWIDTH 562 0
DWIDTH 9 0
BBX 8 16 0 -4
BITMAP
FF
FF
18
18
18
18
18
18
18
18
18
18
00
18
38
30
ENDCHAR
STARTCHAR uni021B
ENCODING 539
SWIDTH 562 0
DWIDTH 9 0
BBX 8 15 0 -4
BITMAP
18
18
18
FF
FF
18
18
18
1C
0F
07
00
18
38
30
ENDCHAR
STARTCHAR uni021C
ENCODING 540
SWIDTH 562 0
DWIDTH 9 0
BBX 8 16 0 -4
BITMAP
3C
FE
E7
03
03
07
0E
3E
3F
03
03
07
0E
3C
F8
E0
ENDCHAR
STARTCHAR uni021D
ENCODING 541
SWIDTH 562 0
DWIDTH 9 0
BBX 8 13 0 -4
BITMAP
3E
FF
E3
07
0E
3E
3F
03
07
0E
3C
F8
E0
ENDCHAR
STARTCHAR uni021E
ENCODING 542
SWIDTH 562 0
DWIDTH 9 0
BBX 8 12 0 0
BITMAP
66
3C
18
00
C3
C3
C3
FF
FF
C3
C3
C3
ENDCHAR
STARTCHAR uni021F
ENCODING 543
SWIDTH 562 0
DWIDTH 9 0
BBX 8 12 0 0
BITMAP
66
3C
D8
C0
C0
C0
FC
FE
E7
C3
C3
C3
ENDCHAR
STARTCHAR uni0220
ENCODING 544
SWIDTH 562 0
DWIDTH 9 0
BBX 8 16 0 -4
BITMAP
FC
FE
E7
C3
C3
C3
C3
C3
C3
C3
C3
C3
03
03
03
03
ENDCHAR
STARTCHAR uni0221
ENCODING 545
SWIDTH 562 0
DWIDTH 9 0
BBX 8 16 0 -4
BITMAP
18
18
18
18
78
F8
D8
D8
D8
D8
FE
7F
1B
1F
1E
18
ENDCHAR
STARTCHAR uni0222
ENCODING 546
SWIDTH 562 0
DWIDTH 9 0
BBX 8 12 0 0
BITMAP
06
67
E3
C3
FF
7E
E7
C3
C3
E7
7E
3C
ENDCHAR
STARTCHAR uni0223
ENCODING 547
SWIDTH 562 0
DWIDTH 9 0
BBX 8 12 0 0
BITMAP
24
66
E7
C3
E7
7E
7E
E7
C3
E7
7E
3C
ENDCHAR
STARTCHAR uni0224
ENCODING 548
SWIDTH 562 0
DWIDTH 9 0
BBX 8 16 0 -4
BITMAP
FF
FF
06
0E
0C
1C
38
30
70
60
FF
FF
03
03
07
06
ENDCHAR
STARTCHAR uni0225
ENCODING 549
SWIDTH 562 0
DWIDTH 9 0
BBX 8 12 0 -4
BITMAP
FE
FE
0C
1C
38
30
7F
7F
03
03
07
06
ENDCHAR
STARTCHAR uni0226
ENCODING 550
SWIDTH 562 0
DWIDTH 9 0
BBX 8 12 0 0
BITMAP
18
18
00
00
3C
7E
E7
C3
FF
FF
C3
C3
ENDCHAR
STARTCHAR uni0227
ENCODING 551
SWIDTH 562 0
DWIDTH 9 0
BBX 8 12 0 0
BITMAP
18
18
00
00
3F
7F
E3
C3
C3
E3
7F
3F
ENDCHAR
STARTCHAR uni0228
ENCODING 552
SWIDTH 562 0
DWIDTH 9 0
BBX 8 16 0 -4
BITMAP
FF
FF
C0
C0
C0
FC
FC
C0
C0
C0
FF
FF
18
0C
3C
38
ENDCHAR
STARTCHAR uni0229
ENCODING 553
SWIDTH 562 0
DWIDTH 9 0
BBX 8 12 0 -4
BITMAP
3F
7F
E0
FC
FC
E0
7F
3F
18
0C
3C
38
ENDCHAR
STARTCHAR uni022A
ENCODING 554
SWIDTH 562 0
DWIDTH 9 0
BBX 8 12 0 0
BITMAP
7E
00
66
00
7E
FF
C3
C3
C3
C3
FF
7E
ENDCHAR
STARTCHAR uni022B
ENCODING 555
SWIDTH 562 0
DWIDTH 9 0
BBX 8 12 0 0
BITMAP
7E
00
66
00
3C
7E
E7
C3
C3
E7
7E
3C
ENDCHAR
STARTCHAR uni022C
ENCODING 556
SWIDTH 562 0
DWIDTH 9 0
BBX 8 12 0 0
BITMAP
FF
00
7B
DE
00
7E
FF
C3
C3
C3
FF
7E
ENDCHAR
STARTCHAR uni022D
ENCODING 557
SWIDTH 562 0
DWIDTH 9 0
BBX 8 12 0 0
BITMAP
FF
00
7B
DE
00
3C
7E
E7
C3
E7
7E
3C
ENDCHAR
STARTCHAR uni022E
ENCODING 558
SWIDTH 562 0
DWIDTH 9 0
BBX 8 12 0 0
BITMAP
18
18
00
00
7E
FF
C3
C3
C3
C3
FF
7E
ENDCHAR
STARTCHAR uni022F
ENCODING 559
SWIDTH 562 0
DWIDTH 9 0
BBX 8 12 0 0
BITMAP
18
18
00
00
3C
7E
E7
C3
C3
E7
7E
3C
ENDCHAR
STARTCHAR uni0230
ENCODING 560
SWIDTH 562 0
DWIDTH 9 0
BBX 8 12 0 0
BITMAP
7E
00
18
00
7E
FF
C3
C3
C3
C3
FF
7E
ENDCHAR
STARTCHAR uni0231
ENCODING 561
SWIDTH 562 0
DWIDTH 9 0
BBX 8 12 0 0
BITMAP
7E
00
18
00
3C
7E
E7
C3
C3
E7
7E
3C
ENDCHAR
STARTCHAR uni0232
ENCODING 562
SWIDTH 562 0
DWIDTH 9 0
BBX 8 12 0 0
BITMAP
7E
7E
00
00
C3
E7
7E
3C
18
18
18
18
ENDCHAR
STARTCHAR uni0233
ENCODING 563
SWIDTH 562 0
DWIDTH 9 0
BBX 8 16 0 -4
BITMAP
7E
7E
00
00
C3
C3
C3
C3
C3
E7
7F
3F
03
E7
7E
3C
ENDCHAR
STARTCHAR uni0234
ENCODING 564
SWIDTH 562 0
DWIDTH 9 0
BBX 8 12 0 0
BITMAP
E0
F0
38
18
18
18
18
1E
1F
1B
1F
0E
ENDCHAR
STARTCHAR uni0235
ENCODING 565
SWIDTH 562 0
DWIDTH 9 0
BBX 8 8 0 0
BITMAP
70
F8
D8
DE
DF
DB
DF
DE
ENDCHAR
STARTCHAR uni0236
ENCODING 566
SWIDTH 562 0
DWIDTH 9 0
BBX 7 10 0 0
BITMAP
30
30
FC
FC
30
3C
3E
36
3E
1C
ENDCHAR
STARTCHAR uni0237
ENCODING 567
SWIDTH 562 0
DWIDTH 9 0
BBX 8 12 0 -4
BITMAP
0F
0F
03
03
03
03
03
03
03
E7
7E
3C
ENDCHAR
STARTCHAR uni0238
ENCODING 568
SWIDTH 562 0
DWIDTH 9 0
BBX 8 12 0 0
BITMAP
18
18
18
18
7E
FF
DB
DB
DB
DB
FF
7E
ENDCHAR
STARTCHAR uni0239
ENCODING 569
SWIDTH 562 0
DWIDTH 9 0
BBX 8 12 0 -4
BITMAP
7E
FF
DB
DB
DB
DB
FF
7E
18
18
18
18
ENDCHAR
STARTCHAR uni023A
ENCODING 570
SWIDTH 562 0
DWIDTH 9 0
BBX 8 12 0 0
BITMAP
3F
7F
E7
CF
CF
DF
FF
FF
F3
E3
C3
C3
ENDCHAR
STARTCHAR uni023B
ENCODING 571
SWIDTH 562 0
DWIDTH 9 0
BBX 8 12 0 0
BITMAP
3F
7F
E7
CF
CC
DC
F8
F0
F3
E7
FE
FC
ENDCHAR
STARTCHAR uni023C
ENCODING 572
SWIDTH 562 0
DWIDTH 9 0
BBX 8 8 0 0
BITMAP
3F
7F
EE
DC
F8
F0
FF
FF
ENDCHAR
STARTCHAR uni023D
ENCODING 573
SWIDTH 562 0
DWIDTH 9 0
BBX 8 12 0 0
BITMAP
60
60
60
60
60
F0
F0
60
60
60
7F
7F
ENDCHAR
STARTCHAR uni023E
ENCODING 574
SWIDTH 562 0
DWIDTH 9 0
BBX 8 12 0 0
BITMAP
FF
FF
1F
1E
1C
1C
38
38
78
F8
D8
D8
ENDCHAR
STARTCHAR uni023F
ENCODING 575
SWIDTH 562 0
DWIDTH 9 0
BBX 8 11 0 -3
BITMAP
3F
7F
60
7C
3E
06
FE
FC
70
3E
1E
ENDCHAR
STARTCHAR uni0240
ENCODING 576
SWIDTH 562 0
DWIDTH 9 0
BBX 8 11 0 -3
BITMAP
FF
FF
0E
1C
38
70
E0
E0
78
3F
0F
ENDCHAR
STARTCHAR uni0241
ENCODING 577
SWIDTH 562 0
DWIDTH 9 0
BBX 8 12 0 0
BITMAP
3C
7E
E7
C3
C3
07
1E
1C
18
18
3C
3C
ENDCHAR
STARTCHAR uni0242
ENCODING 578
SWIDTH 562 0
DWIDTH 9 0
BBX 8 10 0 -2
BITMAP
3C
7E
E7
C3
03
07
1E
1C
18
18
ENDCHAR
STARTCHAR uni0243
ENCODING 579
SWIDTH 562 0
DWIDTH 9 0
BBX 8 12 0 0
BITMAP
7C
7E
67
63
63
7F
7F
63
F3
67
7E
7C
ENDCHAR
STARTCHAR uni0244
ENCODING 580
SWIDTH 562 0
DWIDTH 9 0
BBX 8 12 0 0
BITMAP
66
66
66
66
66
FF
FF
66
66
66
7E
3C
ENDCHAR
STARTCHAR uni0245
ENCODING 581
SWIDTH 562 0
DWIDTH 9 0
BBX 8 12 0 0
BITMAP
18
18
3C
3C
7E
7E
66
66
C3
C3
C3
C3
ENDCHAR
STARTCHAR uni0246
ENCODING 582
SWIDTH 562 0
DWIDTH 9 0
BBX 8 12 0 0
BITMAP
FF
FF
C7
CE
CC
FC
FC
F0
F0
E0
FF
FF
ENDCHAR
STARTCHAR uni0247
ENCODING 583
SWIDTH 562 0
DWIDTH 9 0
BBX 8 8 0 0
BITMAP
3F
7F
EE
FF
FF
F0
FF
FF
ENDCHAR
STARTCHAR uni0248
ENCODING 584
SWIDTH 562 0
DWIDTH 9 0
BBX 8 12 0 0
BITMAP
FE
FE
06
06
0F
0F
06
06
C6
EE
7C
38
ENDCHAR
STARTCHAR uni0249
ENCODING 585
SWIDTH 562 0
DWIDTH 9 0
BBX 8 16 0 -4
BITMAP
06
06
00
00
1E
1E
06
06
1F
1F
06
06
06
EE
7C
38
ENDCHAR
STARTCHAR uni024A
ENCODING 586
SWIDTH 562 0
DWIDTH 9 0
BBX 8 15 0 -3
BITMAP
7C
FC
CC
CC
CC
CC
CC
CC
CC
CC
FC
7C
0E
07
03
ENDCHAR
STARTCHAR uni024B
ENCODING 587
SWIDTH 562 0
DWIDTH 9 0
BBX 8 11 0 -3
BITMAP
7C
FC
CC
CC
CC
CC
FC
7C
0E
07
03
ENDCHAR
STARTCHAR uni024C
ENCODING 588
SWIDTH 562 0
DWIDTH 9 0
BBX 8 12 0 0
BITMAP
3E
3F
33
33
33
FF
FE
36
36
36
33
33
ENDCHAR
STARTCHAR uni024D
ENCODING 589
SWIDTH 562 0
DWIDTH 9 0
BBX 8 8 0 0
BITMAP
1C
3E
77
63
F0
F0
60
60
ENDCHAR
STARTCHAR uni024E
ENCODING 590
SWIDTH 562 0
DWIDTH 9 0
BBX 8 12 0 0
BITMAP
C3
C3
66
FF
FF
3C
18
18
18
18
18
18
ENDCHAR
STARTCHAR uni024F
ENCODING 591
SWIDTH 562 0
DWIDTH 9 0
BBX 8 12 0 -4
BITMAP
C3
C3
FF
FF
C3
E7
7F
3F
03
E7
7E
3C
ENDCHAR
STARTCHAR uni0250
ENCODING 592
SWIDTH 562 0
DWIDTH 9 0
BBX 8 8 0 0
BITMAP
FE
FF
C3
FF
FE
C0
FF
7F
ENDCHAR
STARTCHAR uni0251
ENCODING 593
SWIDTH 562 0
DWIDTH 9 0
BBX 8 8 0 0
BITMAP
7B
FF
CF
CF
CF
CF
FF
7B
ENDCHAR
STARTCHAR uni0252
ENCODING 594
SWIDTH 562 0
DWIDTH 9 0
BBX 8 8 0 0
BITMAP
DE
FF
F3
F3
F3
F3
FF
DE
ENDCHAR
STARTCHAR uni0253
ENCODING 595
SWIDTH 562 0
DWIDTH 9 0
BBX 8 12 0 0
BITMAP
38
78
E0
C0
FC
FE
E7
C3
C3
E7
FE
FC
ENDCHAR
STARTCHAR uni0254
ENCODING 596
SWIDTH 562 0
DWIDTH 9 0
BBX 8 8 0 0
BITMAP
3C
7E
E7
03
03
E7
7E
3C
ENDCHAR
STARTCHAR uni0255
ENCODING 597
SWIDTH 562 0
DWIDTH 9 0
BBX 8 9 0 -1
BITMAP
3F
7F
E0
C0
C7
ED
7F
3F
0C
ENDCHAR
STARTCHAR uni0256
ENCODING 598
SWIDTH 562 0
DWIDTH 9 0
BBX 8 15 0 -3
BITMAP
06
06
06
06
3E
7E
EE
C6
C6
EE
7E
3E
06
07
03
ENDCHAR
STARTCHAR uni0257
ENCODING 599
SWIDTH 562 0
DWIDTH 9 0
BBX 8 12 0 0
BITMAP
03
07
06
06
3E
7E
EE
C6
C6
EE
7E
3E
ENDCHAR
STARTCHAR uni0258
ENCODING 600
SWIDTH 562 0
DWIDTH 9 0
BBX 8 8 0 0
BITMAP
3C
7E
E7
FF
FF
07
FE
7C
ENDCHAR
STARTCHAR uni0259
ENCODING 601
SWIDTH 562 0
DWIDTH 9 0
BBX 8 8 0 0
BITMAP
7C
FE
07
FF
FF
E7
7E
3C
ENDCHAR
STARTCHAR uni025A
ENCODING 602
SWIDTH 562 0
DWIDTH 9 0
BBX 8 8 0 0
BITMAP
70
F8
18
FE
FE
DB
F8
70
ENDCHAR
STARTCHAR uni025B
ENCODING 603
SWIDTH 562 0
DWIDTH 9 0
BBX 8 8 0 0
BITMAP
7E
FF
E0
7C
7C
E0
FF
7E
ENDCHAR
STARTCHAR uni025C
ENCODING 604
SWIDTH 562 0
DWIDTH 9 0
BBX 8 8 0 0
BITMAP
7E
FF
07
3E
3E
07
FF
7E
ENDCHAR
STARTCHAR uni025D
ENCODING 605
SWIDTH 562 0
DWIDTH 9 0
BBX 8 8 0 0
BITMAP
78
FE
1E
FB
F8
1C
FC
78
ENDCHAR
STARTCHAR uni025E
ENCODING 606
SWIDTH 562 0
DWIDTH 9 0
BBX 8 8 0 0
BITMAP
7E
FF
C7
DE
DE
C7
FF
7E
ENDCHAR
STARTCHAR uni025F
ENCODING 607
SWIDTH 562 0
DWIDTH 9 0
BBX 9 12 0 -4
BITMAP
0F00
0F00
0300
0300
0F80
0F80
0300
0300
C300
E700
7E00
3C00
ENDCHAR
STARTCHAR uni0260
ENCODING 608
SWIDTH 562 0
DWIDTH 9 0
BBX 8 16 0 -4
BITMAP
03
07
06
06
3E
7E
E6
C6
C6
E6
7E
3E
06
EE
7C
38
ENDCHAR
STARTCHAR uni0261
ENCODING 609
SWIDTH 562 0
DWIDTH 9 0
BBX 8 12 0 -4
BITMAP
3F
7F
E3
C3
C3
E3
7F
3F
03
E7
7E
3C
ENDCHAR
STARTCHAR uni0262
ENCODING 610
SWIDTH 562 0
DWIDTH 9 0
BBX 8 8 0 0
BITMAP
3F
7F
E0
CF
CF
E3
7F
3E
ENDCHAR
STARTCHAR uni0263
ENCODING 611
SWIDTH 562 0
DWIDTH 9 0
BBX 8 11 0 -4
BITMAP
C3
C3
66
66
3C
3C
18
3C
24
24
3C
ENDCHAR
STARTCHAR uni0264
ENCODING 612
SWIDTH 562 0
DWIDTH 9 0
BBX 8 8 0 0
BITMAP
E7
FF
3C
18
3C
24
24
3C
ENDCHAR
STARTCHAR uni0265
ENCODING 613
SWIDTH 562 0
DWIDTH 9 0
BBX 8 11 0 -4
BITMAP
C3
C3
C3
C3
E7
7F
3F
03
03
03
03
ENDCHAR
STARTCHAR uni0266
ENCODING 614
SWIDTH 562 0
DWIDTH 9 0
BBX 8 12 0 0
BITMAP
38
78
E0
C0
FC
FE
E7
C3
C3
C3
C3
C3
ENDCHAR
STARTCHAR uni0267
ENCODING 615
SWIDTH 562 0
DWIDTH 9 0
BBX 8 16 0 -4
BITMAP
38
78
E0
C0
FC
FE
E7
C3
C3
C3
C3
C3
03
03
0F
0E
ENDCHAR
STARTCHAR uni0268
ENCODING 616
SWIDTH 562 0
DWIDTH 9 0
BBX 8 12 0 0
BITMAP
18
18
00
00
78
78
18
7E
7E
18
FF
FF
ENDCHAR
STARTCHAR uni0269
ENCODING 617
SWIDTH 562 0
DWIDTH 9 0
BBX 3 6 3 0
BITMAP
C0
C0
C0
C0
E0
E0
ENDCHAR
STARTCHAR uni026A
ENCODING 618
SWIDTH 562 0
DWIDTH 9 0
BBX 6 8 1 0
BITMAP
FC
FC
30
30
30
30
FC
FC
ENDCHAR
STARTCHAR uni026B
ENCODING 619
SWIDTH 562 0
DWIDTH 9 0
BBX 8 12 0 0
BITMAP
E0
F0
38
18
18
7B
FF
DE
18
1C
0F
07
ENDCHAR
STARTCHAR uni026C
ENCODING 620
SWIDTH 562 0
DWIDTH 9 0
BBX 8 12 0 0
BITMAP
E0
F0
38
18
78
F8
D8
FF
7F
1C
0F
07
ENDCHAR
STARTCHAR uni026D
ENCODING 621
SWIDTH 562 0
DWIDTH 9 0
BBX 8 16 0 -4
BITMAP
E0
F0
38
18
18
18
18
18
18
18
18
18
1B
1B
1F
0E
ENDCHAR
STARTCHAR uni026E
ENCODING 622
SWIDTH 562 0
DWIDTH 9 0
BBX 8 16 0 -4
BITMAP
C0
C0
C0
C0
FF
FF
C6
C6
CC
CC
DE
DF
03
03
1F
1E
ENDCHAR
STARTCHAR uni026F
ENCODING 623
SWIDTH 562 0
DWIDTH 9 0
BBX 8 8 0 0
BITMAP
DB
DB
DB
DB
DB
DB
FF
67
ENDCHAR
STARTCHAR uni0270
ENCODING 624
SWIDTH 562 0
DWIDTH 9 0
BBX 8 10 0 -2
BITMAP
DB
DB
DB
DB
DB
DB
FF
67
03
03
ENDCHAR
STARTCHAR uni0271
ENCODING 625
SWIDTH 562 0
DWIDTH 9 0
BBX 8 12 0 -4
BITMAP
E6
FF
DB
DB
DB
DB
DB
DB
03
03
0F
0E
ENDCHAR
STARTCHAR uni0272
ENCODING 626
SWIDTH 562 0
DWIDTH 9 0
BBX 8 12 0 -4
BITMAP
1C
3E
77
63
63
63
63
63
60
60
E0
C0
ENDCHAR
STARTCHAR uni0273
ENCODING 627
SWIDTH 562 0
DWIDTH 9 0
BBX 8 12 0 -4
BITMAP
38
7C
EE
C6
C6
C6
C6
C6
06
06
07
03
ENDCHAR
STARTCHAR uni0274
ENCODING 628
SWIDTH 562 0
DWIDTH 9 0
BBX 8 8 0 0
BITMAP
C3
E3
F3
FB
DF
CF
C7
C3
ENDCHAR
STARTCHAR uni0275
ENCODING 629
SWIDTH 562 0
DWIDTH 9 0
BBX 8 8 0 0
BITMAP
3C
7E
E7
FF
FF
E7
7E
3C
ENDCHAR
STARTCHAR uni0276
ENCODING 630
SWIDTH 562 0
DWIDTH 9 0
BBX 8 8 0 0
BITMAP
7F
FF
D8
DE
DE
D8
FF
7F
ENDCHAR
STARTCHAR uni0277
ENCODING 631
SWIDTH 562 0
DWIDTH 9 0
BBX 8 8 0 0
BITMAP
7E
FF
C3
DB
DB
FF
FF
66
ENDCHAR
STARTCHAR uni0278
ENCODING 632
SWIDTH 562 0
DWIDTH 9 0
BBX 8 14 0 -3
BITMAP
18
18
18
3C
7E
FF
DB
DB
FF
7E
3C
18
18
18
ENDCHAR
STARTCHAR uni0279
ENCODING 633
SWIDTH 562 0
DWIDTH 9 0
BBX 8 8 0 0
BITMAP
03
03
03
03
C3
E7
7E
3C
ENDCHAR
STARTCHAR uni027A
ENCODING 634
SWIDTH 562 0
DWIDTH 9 0
BBX 8 12 0 0
BITMAP
03
03
03
03
03
03
03
03
C3
E7
7E
3C
ENDCHAR
STARTCHAR uni027B
ENCODING 635
SWIDTH 562 0
DWIDTH 9 0
BBX 8 12 0 -4
BITMAP
06
06
06
06
C6
EE
7E
3E
06
06
07
03
ENDCHAR
STARTCHAR uni027C
ENCODING 636
SWIDTH 562 0
DWIDTH 9 0
BBX 8 12 0 -4
BITMAP
3C
7E
E7
C3
C0
C0
C0
C0
C0
C0
C0
C0
ENDCHAR
STARTCHAR uni027D
ENCODING 637
SWIDTH 562 0
DWIDTH 9 0
BBX 8 12 0 -4
BITMAP
3C
7E
E7
C3
C0
C0
C0
C0
C0
C0
F0
70
ENDCHAR
STARTCHAR uni027E
ENCODING 638
SWIDTH 562 0
DWIDTH 9 0
BBX 8 8 0 0
BITMAP
1C
3E
77
63
60
60
F0
F0
ENDCHAR
STARTCHAR uni027F
ENCODING 639
SWIDTH 562 0
DWIDTH 9 0
BBX 8 8 0 0
BITMAP
38
7C
EE
C6
06
06
0F
0F
ENDCHAR
STARTCHAR uni0280
ENCODING 640
SWIDTH 562 0
DWIDTH 9 0
BBX 8 8 0 0
BITMAP
FE
FF
C3
FF
FE
C6
C3
C3
ENDCHAR
STARTCHAR uni0281
ENCODING 641
SWIDTH 562 0
DWIDTH 9 0
BBX 8 8 0 0
BITMAP
C3
C3
C6
FE
FF
C3
FF
FE
ENDCHAR
STARTCHAR uni0282
ENCODING 642
SWIDTH 562 0
DWIDTH 9 0
BBX 8 12 0 -4
BITMAP
3F
7F
60
7C
3E
06
FE
FC
C0
C0
E0
60
ENDCHAR
STARTCHAR uni0283
ENCODING 643
SWIDTH 562 0
DWIDTH 9 0
BBX 8 16 0 -4
BITMAP
07
0F
1C
18
18
18
18
18
18
18
18
18
18
38
F0
E0
ENDCHAR
STARTCHAR uni0284
ENCODING 644
SWIDTH 562 0
DWIDTH 9 0
BBX 8 16 0 -4
BITMAP
07
0F
1C
18
18
18
18
18
7E
7E
18
18
18
38
F0
E0
ENDCHAR
STARTCHAR uni0285
ENCODING 645
SWIDTH 562 0
DWIDTH 9 0
BBX 8 8 0 0
BITMAP
E0
F0
38
18
18
1C
0F
07
ENDCHAR
STARTCHAR uni0286
ENCODING 646
SWIDTH 562 0
DWIDTH 9 0
BBX 8 16 0 -4
BITMAP
07
0F
1C
18
18
18
18
18
18
18
18
78
F8
D8
F8
70
ENDCHAR
STARTCHAR uni0287
ENCODING 647
SWIDTH 562 0
DWIDTH 9 0
BBX 8 11 0 -3
BITMAP
F0
F8
18
18
18
18
FF
FF
18
18
18
ENDCHAR
STARTCHAR uni0288
ENCODING 648
SWIDTH 562 0
DWIDTH 9 0
BBX 8 15 0 -4
BITMAP
18
18
18
FF
FF
18
18
18
18
18
18
18
1C
0F
07
ENDCHAR
STARTCHAR uni0289
ENCODING 649
SWIDTH 562 0
DWIDTH 9 0
BBX 8 8 0 0
BITMAP
C3
C3
FF
FF
C3
E7
7E
3C
ENDCHAR
STARTCHAR uni028A
ENCODING 650
SWIDTH 562 0
DWIDTH 9 0
BBX 8 8 0 0
BITMAP
E7
E7
66
E7
C3
C3
FF
7E
ENDCHAR
STARTCHAR uni028B
ENCODING 651
SWIDTH 562 0
DWIDTH 9 0
BBX 8 8 0 0
BITMAP
CC
CE
C7
C3
C3
C7
FE
7C
ENDCHAR
STARTCHAR uni028C
ENCODING 652
SWIDTH 562 0
DWIDTH 9 0
BBX 8 8 0 0
BITMAP
18
18
3C
3C
66
66
C3
C3
ENDCHAR
STARTCHAR uni028D
ENCODING 653
SWIDTH 562 0
DWIDTH 9 0
BBX 8 8 0 0
BITMAP
7E
7E
7E
FF
DB
DB
DB
DB
ENDCHAR
STARTCHAR uni028E
ENCODING 654
SWIDTH 562 0
DWIDTH 9 0
BBX 8 12 0 0
BITMAP
0F
1F
18
18
3C
7E
66
E7
C3
C3
C3
C3
ENDCHAR
STARTCHAR uni028F
ENCODING 655
SWIDTH 562 0
DWIDTH 9 0
BBX 8 8 0 0
BITMAP
C3
E7
7E
3C
18
18
18
18
ENDCHAR
STARTCHAR uni0290
ENCODING 656
SWIDTH 562 0
DWIDTH 9 0
BBX 8 11 0 -3
BITMAP
FC
FC
18
38
70
60
FE
FE
06
07
03
ENDCHAR
STARTCHAR uni0291
ENCODING 657
SWIDTH 562 0
DWIDTH 9 0
BBX 8 9 0 -1
BITMAP
F8
F8
30
30
67
6D
FF
FF
0C
ENDCHAR
STARTCHAR uni0292
ENCODING 658
SWIDTH 562 0
DWIDTH 9 0
BBX 8 12 0 -4
BITMAP
FE
FE
0C
1C
38
30
7E
7F
03
03
FF
7E
ENDCHAR
STARTCHAR uni0293
ENCODING 659
SWIDTH 562 0
DWIDTH 9 0
BBX 8 12 0 -4
BITMAP
FE
FE
0C
1C
38
30
7E
7F
03
7F
4E
7B
ENDCHAR
STARTCHAR uni0294
ENCODING 660
SWIDTH 562 0
DWIDTH 9 0
BBX 8 12 0 -4
BITMAP
3C
7E
E7
C3
03
07
1E
1C
18
18
18
18
ENDCHAR
STARTCHAR uni0295
ENCODING 661
SWIDTH 562 0
DWIDTH 9 0
BBX 8 12 0 -4
BITMAP
3C
7E
E7
C3
C0
E0
78
38
18
18
18
18
ENDCHAR
STARTCHAR uni0296
ENCODING 662
SWIDTH 562 0
DWIDTH 9 0
BBX 8 12 0 0
BITMAP
18
18
18
18
1C
1E
07
03
C3
E7
7E
3C
ENDCHAR
STARTCHAR uni0297
ENCODING 663
SWIDTH 562 0
DWIDTH 9 0
BBX 8 16 0 -4
BITMAP
3F
7F
E0
C0
C0
C0
C0
C0
C0
C0
C0
C0
C0
E0
7F
3F
ENDCHAR
STARTCHAR uni0298
ENCODING 664
SWIDTH 562 0
DWIDTH 9 0
BBX 8 12 0 -3
BITMAP
3C
7E
E7
C3
C3
DB
DB
C3
C3
E7
7E
7C
ENDCHAR
STARTCHAR uni0299
ENCODING 665
SWIDTH 562 0
DWIDTH 9 0
BBX 8 8 0 0
BITMAP
FC
FE
C7
FF
FF
C7
FE
FC
ENDCHAR
STARTCHAR uni029A
ENCODING 666
SWIDTH 562 0
DWIDTH 9 0
BBX 8 8 0 0
BITMAP
7E
FF
E3
7B
7B
E3
FF
7E
ENDCHAR
STARTCHAR uni029B
ENCODING 667
SWIDTH 562 0
DWIDTH 9 0
BBX 8 12 0 0
BITMAP
07
0F
0C
0C
3C
7C
E0
CF
CF
E3
7F
3E
ENDCHAR
STARTCHAR uni029C
ENCODING 668
SWIDTH 562 0
DWIDTH 9 0
BBX 8 8 0 0
BITMAP
C3
C3
C3
FF
FF
C3
C3
C3
ENDCHAR
STARTCHAR uni029D
ENCODING 669
SWIDTH 562 0
DWIDTH 9 0
BBX 6 16 1 -4
BITMAP
18
18
00
00
18
18
18
18
18
18
18
7C
FC
D8
F8
70
ENDCHAR
STARTCHAR uni029E
ENCODING 670
SWIDTH 562 0
DWIDTH 9 0
BBX 8 12 0 -4
BITMAP
C3
E3
73
3F
3F
73
E3
C3
03
03
03
03
ENDCHAR
STARTCHAR uni029F
ENCODING 671
SWIDTH 562 0
DWIDTH 9 0
BBX 8 8 0 0
BITMAP
C0
C0
C0
C0
C0
C0
FF
FF
ENDCHAR
STARTCHAR uni02A0
ENCODING 672
SWIDTH 562 0
DWIDTH 9 0
BBX 8 16 0 -4
BITMAP
07
0F
0C
0C
7C
FC
CC
CC
CC
CC
FC
7C
0C
0C
0C
0C
ENDCHAR
STARTCHAR uni02A1
ENCODING 673
SWIDTH 562 0
DWIDTH 9 0
BBX 8 12 0 0
BITMAP
3C
7E
E7
C3
03
07
1E
1C
7E
7E
18
18
ENDCHAR
STARTCHAR uni02A2
ENCODING 674
SWIDTH 562 0
DWIDTH 9 0
BBX 8 12 0 0
BITMAP
3C
7E
E7
C3
C3
E0
78
38
7E
7E
18
18
ENDCHAR
STARTCHAR uni02A3
ENCODING 675
SWIDTH 562 0
DWIDTH 9 0
BBX 8 12 0 0
BITMAP
18
18
18
18
7F
FF
DB
DB
DE
DE
FF
7F
ENDCHAR
STARTCHAR uni02A4
ENCODING 676
SWIDTH 562 0
DWIDTH 9 0
BBX 8 15 0 -3
BITMAP
18
18
18
18
7F
FF
DB
DB
DE
DE
FF
7F
03
07
06
ENDCHAR
STARTCHAR uni2A5
ENCODING 677
SWIDTH 562 0
DWIDTH 9 0
BBX 9 13 0 -1
BITMAP
1800
1800
1800
1800
7F00
FF00
DB00
DB00
DE00
DF80
FE80
7F80
0200
ENDCHAR
STARTCHAR uni02A6
ENCODING 678
SWIDTH 562 0
DWIDTH 9 0
BBX 8 10 0 0
BITMAP
60
60
F7
FF
6C
6E
67
63
7F
3E
ENDCHAR
STARTCHAR uni02A7
ENCODING 679
SWIDTH 562 0
DWIDTH 9 0
BBX 8 15 0 -4
BITMAP
03
67
66
FE
FE
66
66
66
66
7E
3E
06
06
0E
0C
ENDCHAR
STARTCHAR uni02A8
ENCODING 680
SWIDTH 562 0
DWIDTH 9 0
BBX 8 11 0 -1
BITMAP
60
60
F7
FF
6C
6C
6C
7F
7D
3F
04
ENDCHAR
STARTCHAR uni02A9
ENCODING 681
SWIDTH 562 0
DWIDTH 9 0
BBX 8 15 0 -4
BITMAP
78
F8
C0
FE
FF
DB
DB
DB
DB
DB
DB
03
03
07
06
ENDCHAR
STARTCHAR uni02AA
ENCODING 682
SWIDTH 562 0
DWIDTH 9 0
BBX 8 12 0 0
BITMAP
C0
E0
60
60
67
6F
6C
6E
67
63
7F
3E
ENDCHAR
STARTCHAR uni02AB
ENCODING 683
SWIDTH 562 0
DWIDTH 9 0
BBX 8 12 0 0
BITMAP
C0
E0
60
60
6F
6F
66
66
6C
6C
7F
3F
ENDCHAR
STARTCHAR uni02AC
ENCODING 684
SWIDTH 562 0
DWIDTH 9 0
BBX 8 12 0 0
BITMAP
DB
DB
7E
7E
66
00
00
DB
DB
7E
7E
66
ENDCHAR
STARTCHAR uni02AD
ENCODING 685
SWIDTH 562 0
DWIDTH 9 0
BBX 8 10 0 1
BITMAP
FF
FF
C3
C3
00
00
FF
FF
C3
C3
ENDCHAR
STARTCHAR uni02AE
ENCODING 686
SWIDTH 562 0
DWIDTH 9 0
BBX 8 15 0 -3
BITMAP
C0
E0
60
60
63
63
63
63
63
73
3F
1F
03
03
03
ENDCHAR
STARTCHAR uni02AF
ENCODING 687
SWIDTH 562 0
DWIDTH 9 0
BBX 8 15 0 -3
BITMAP
C0
E0
60
60
66
66
66
66
66
66
7E
3E
06
07
03
ENDCHAR
STARTCHAR uni02B0
ENCODING 688
SWIDTH 562 0
DWIDTH 9 0
BBX 8 8 0 4
BITMAP
C0
C0
C0
FE
FF
C3
C3
C3
ENDCHAR
STARTCHAR uni02B1
ENCODING 689
SWIDTH 562 0
DWIDTH 9 0
BBX 8 8 0 4
BITMAP
60
E0
C0
FE
FF
C3
C3
C3
ENDCHAR
STARTCHAR uni02B2
ENCODING 690
SWIDTH 562 0
DWIDTH 9 0
BBX 6 8 0 4
BITMAP
0C
0C
00
1C
1C
CC
FC
78
ENDCHAR
STARTCHAR uni02B3
ENCODING 691
SWIDTH 562 0
DWIDTH 9 0
BBX 8 8 0 4
BITMAP
3C
7E
E7
C3
C0
C0
C0
C0
ENDCHAR
STARTCHAR uni02B4
ENCODING 692
SWIDTH 562 0
DWIDTH 9 0
BBX 8 8 0 4
BITMAP
03
03
03
03
C3
E7
7E
3C
ENDCHAR
STARTCHAR uni02B5
ENCODING 693
SWIDTH 562 0
DWIDTH 9 0
BBX 8 8 0 4
BITMAP
0C
0C
0C
CC
FC
7C
0F
07
ENDCHAR
STARTCHAR uni02B6
ENCODING 694
SWIDTH 562 0
DWIDTH 9 0
BBX 8 8 0 4
BITMAP
C3
C3
C6
FE
FF
C3
FF
FE
ENDCHAR
STARTCHAR uni02B7
ENCODING 695
SWIDTH 562 0
DWIDTH 9 0
BBX 8 8 0 4
BITMAP
DB
DB
DB
DB
DB
FF
7E
3C
ENDCHAR
STARTCHAR uni02B8
ENCODING 696
SWIDTH 562 0
DWIDTH 9 0
BBX 8 7 0 5
BITMAP
C3
C3
FF
7F
07
FE
7C
ENDCHAR
STARTCHAR uni02B9
ENCODING 697
SWIDTH 562 0
DWIDTH 9 0
BBX 3 4 3 8
BITMAP
60
E0
C0
C0
ENDCHAR
STARTCHAR uni02BA
ENCODING 698
SWIDTH 562 0
DWIDTH 9 0
BBX 7 4 1 8
BITMAP
66
EE
CC
CC
ENDCHAR
STARTCHAR uni02BB
ENCODING 699
SWIDTH 562 0
DWIDTH 9 0
BBX 3 4 3 8
BITMAP
60
C0
C0
C0
ENDCHAR
STARTCHAR afii57929
ENCODING 700
SWIDTH 562 0
DWIDTH 9 0
BBX 3 4 2 8
BITMAP
60
60
60
C0
ENDCHAR
STARTCHAR afii64937
ENCODING 701
SWIDTH 562 0
DWIDTH 9 0
BBX 3 4 3 8
BITMAP
C0
C0
C0
60
ENDCHAR
STARTCHAR uni02BE
ENCODING 702
SWIDTH 562 0
DWIDTH 9 0
BBX 3 5 3 7
BITMAP
C0
E0
60
E0
C0
ENDCHAR
STARTCHAR uni02BF
ENCODING 703
SWIDTH 562 0
DWIDTH 9 0
BBX 3 5 3 7
BITMAP
60
E0
C0
E0
60
ENDCHAR
STARTCHAR uni02C0
ENCODING 704
SWIDTH 562 0
DWIDTH 9 0
BBX 8 8 0 4
BITMAP
7E
FF
C3
1F
1E
18
18
18
ENDCHAR
STARTCHAR uni02C1
ENCODING 705
SWIDTH 562 0
DWIDTH 9 0
BBX 8 8 0 4
BITMAP
7E
FF
C3
F8
78
18
18
18
ENDCHAR
STARTCHAR uni02C2
ENCODING 706
SWIDTH 562 0
DWIDTH 9 0
BBX 4 6 2 6
BITMAP
30
70
C0
C0
70
30
ENDCHAR
STARTCHAR uni02C3
ENCODING 707
SWIDTH 562 0
DWIDTH 9 0
BBX 4 6 2 6
BITMAP
C0
E0
30
30
E0
C0
ENDCHAR
STARTCHAR uni02C4
ENCODING 708
SWIDTH 562 0
DWIDTH 9 0
BBX 6 4 1 8
BITMAP
30
78
CC
CC
ENDCHAR
STARTCHAR uni02C5
ENCODING 709
SWIDTH 562 0
DWIDTH 9 0
BBX 6 4 1 8
BITMAP
CC
CC
78
30
ENDCHAR
STARTCHAR circumflex
ENCODING 710
SWIDTH 562 0
DWIDTH 9 0
BBX 6 3 1 9
BITMAP
30
78
CC
ENDCHAR
STARTCHAR caron
ENCODING 711
SWIDTH 562 0
DWIDTH 9 0
BBX 6 3 1 9
BITMAP
CC
78
30
ENDCHAR
STARTCHAR uni02C8
ENCODING 712
SWIDTH 562 0
DWIDTH 9 0
BBX 2 4 3 8
BITMAP
C0
C0
C0
C0
ENDCHAR
STARTCHAR uni02C9
ENCODING 713
SWIDTH 562 0
DWIDTH 9 0
BBX 6 2 1 10
BITMAP
FC
FC
ENDCHAR
STARTCHAR uni02CA
ENCODING 714
SWIDTH 562 0
DWIDTH 9 0
BBX 5 3 2 9
BITMAP
38
70
E0
ENDCHAR
STARTCHAR uni02CB
ENCODING 715
SWIDTH 562 0
DWIDTH 9 0
BBX 5 3 1 9
BITMAP
E0
70
38
ENDCHAR
STARTCHAR uni02CC
ENCODING 716
SWIDTH 562 0
DWIDTH 9 0
BBX 2 4 3 -4
BITMAP
C0
C0
C0
C0
ENDCHAR
STARTCHAR uni02CD
ENCODING 717
SWIDTH 562 0
DWIDTH 9 0
BBX 6 2 1 -4
BITMAP
FC
FC
ENDCHAR
STARTCHAR uni02CE
ENCODING 718
SWIDTH 562 0
DWIDTH 9 0
BBX 5 3 2 -4
BITMAP
E0
70
38
ENDCHAR
STARTCHAR uni02CF
ENCODING 719
SWIDTH 562 0
DWIDTH 9 0
BBX 5 3 1 -4
BITMAP
38
70
E0
ENDCHAR
STARTCHAR uni02D0
ENCODING 720
SWIDTH 562 0
DWIDTH 9 0
BBX 4 6 2 0
BITMAP
F0
60
00
00
60
F0
ENDCHAR
STARTCHAR uni02D1
ENCODING 721
SWIDTH 562 0
DWIDTH 9 0
BBX 4 2 2 4
BITMAP
F0
60
ENDCHAR
STARTCHAR uni02D2
ENCODING 722
SWIDTH 562 0
DWIDTH 9 0
BBX 4 6 2 3
BITMAP
E0
F0
30
30
F0
E0
ENDCHAR
STARTCHAR uni02D3
ENCODING 723
SWIDTH 562 0
DWIDTH 9 0
BBX 4 6 2 3
BITMAP
70
F0
C0
C0
F0
70
ENDCHAR
STARTCHAR uni02D4
ENCODING 724
SWIDTH 562 0
DWIDTH 9 0
BBX 6 5 1 3
BITMAP
30
30
30
FC
FC
ENDCHAR
STARTCHAR uni02D5
ENCODING 725
SWIDTH 562 0
DWIDTH 9 0
BBX 6 5 1 3
BITMAP
FC
FC
30
30
30
ENDCHAR
STARTCHAR uni02D6
ENCODING 726
SWIDTH 562 0
DWIDTH 9 0
BBX 6 6 1 3
BITMAP
30
30
FC
FC
30
30
ENDCHAR
STARTCHAR uni02D7
ENCODING 727
SWIDTH 562 0
DWIDTH 9 0
BBX 6 2 1 5
BITMAP
FC
FC
ENDCHAR
STARTCHAR breve
ENCODING 728
SWIDTH 562 0
DWIDTH 9 0
BBX 6 3 1 9
BITMAP
CC
FC
78
ENDCHAR
STARTCHAR dotaccent
ENCODING 729
SWIDTH 562 0
DWIDTH 9 0
BBX 2 2 3 10
BITMAP
C0
C0
ENDCHAR
STARTCHAR ring
ENCODING 730
SWIDTH 562 0
DWIDTH 9 0
BBX 4 4 2 8
BITMAP
60
90
90
60
ENDCHAR
STARTCHAR ogonek
ENCODING 731
SWIDTH 562 0
DWIDTH 9 0
BBX 3 4 2 -4
BITMAP
60
C0
E0
60
ENDCHAR
STARTCHAR tilde
ENCODING 732
SWIDTH 562 0
DWIDTH 9 0
BBX 8 3 0 9
BITMAP
73
FF
CE
ENDCHAR
STARTCHAR hungarumlaut
ENCODING 733
SWIDTH 562 0
DWIDTH 9 0
BBX 8 3 0 9
BITMAP
33
66
CC
ENDCHAR
STARTCHAR uni02DE
ENCODING 734
SWIDTH 562 0
DWIDTH 9 0
BBX 7 5 1 3
BITMAP
7C
FC
CC
0E
06
ENDCHAR
STARTCHAR uni02DF
ENCODING 735
SWIDTH 562 0
DWIDTH 9 0
BBX 5 4 1 8
BITMAP
D8
70
70
D8
ENDCHAR
STARTCHAR uni02E0
ENCODING 736
SWIDTH 562 0
DWIDTH 9 0
BBX 6 6 1 6
BITMAP
CC
78
30
78
CC
78
ENDCHAR
STARTCHAR uni02E1
ENCODING 737
SWIDTH 562 0
DWIDTH 9 0
BBX 6 8 1 4
BITMAP
E0
F0
30
30
30
30
3C
1C
ENDCHAR
STARTCHAR uni02E2
ENCODING 738
SWIDTH 562 0
DWIDTH 9 0
BBX 8 8 0 4
BITMAP
3F
7F
60
7C
3E
06
FE
FC
ENDCHAR
STARTCHAR uni02E3
ENCODING 739
SWIDTH 562 0
DWIDTH 9 0
BBX 8 8 0 4
BITMAP
C3
E7
7E
3C
3C
7E
E7
C3
ENDCHAR
STARTCHAR uni02E4
ENCODING 740
SWIDTH 562 0
DWIDTH 9 0
BBX 4 6 2 6
BITMAP
70
F0
C0
E0
60
60
ENDCHAR
STARTCHAR uni02E5
ENCODING 741
SWIDTH 562 0
DWIDTH 9 0
BBX 4 12 2 0
BITMAP
F0
F0
30
30
30
30
30
30
30
30
30
30
ENDCHAR
STARTCHAR uni02E6
ENCODING 742
SWIDTH 562 0
DWIDTH 9 0
BBX 4 12 2 0
BITMAP
30
30
F0
F0
30
30
30
30
30
30
30
30
ENDCHAR
STARTCHAR uni02E7
ENCODING 743
SWIDTH 562 0
DWIDTH 9 0
BBX 4 12 2 0
BITMAP
30
30
30
30
30
F0
F0
30
30
30
30
30
ENDCHAR
STARTCHAR uni02E8
ENCODING 744
SWIDTH 562 0
DWIDTH 9 0
BBX 4 12 2 0
BITMAP
30
30
30
30
30
30
30
30
F0
F0
30
30
ENDCHAR
STARTCHAR uni02E9
ENCODING 745
SWIDTH 562 0
DWIDTH 9 0
BBX 4 12 2 0
BITMAP
30
30
30
30
30
30
30
30
30
30
F0
F0
ENDCHAR
STARTCHAR uni02EA
ENCODING 746
SWIDTH 562 0
DWIDTH 9 0
BBX 4 4 2 0
BITMAP
C0
C0
F0
F0
ENDCHAR
STARTCHAR uni02EB
ENCODING 747
SWIDTH 562 0
DWIDTH 9 0
BBX 4 6 2 0
BITMAP
C0
C0
F0
F0
C0
C0
ENDCHAR
STARTCHAR uni02EC
ENCODING 748
SWIDTH 562 0
DWIDTH 9 0
BBX 6 5 1 0
BITMAP
CC
CC
FC
78
30
ENDCHAR
STARTCHAR uni02ED
ENCODING 749
SWIDTH 562 0
DWIDTH 9 0
BBX 4 5 2 7
BITMAP
F0
F0
00
F0
F0
ENDCHAR
STARTCHAR uni02EE
ENCODING 750
SWIDTH 562 0
DWIDTH 9 0
BBX 7 4 1 8
BITMAP
66
66
EE
CC
ENDCHAR
STARTCHAR uni02EF
ENCODING 751
SWIDTH 562 0
DWIDTH 9 0
BBX 6 4 1 -4
BITMAP
CC
CC
78
30
ENDCHAR
STARTCHAR uni02F0
ENCODING 752
SWIDTH 562 0
DWIDTH 9 0
BBX 6 4 1 -4
BITMAP
30
78
CC
CC
ENDCHAR
STARTCHAR uni02F1
ENCODING 753
SWIDTH 562 0
DWIDTH 9 0
BBX 4 6 2 -4
BITMAP
30
70
C0
C0
70
30
ENDCHAR
STARTCHAR uni02F2
ENCODING 754
SWIDTH 562 0
DWIDTH 9 0
BBX 4 6 2 -4
BITMAP
C0
E0
30
30
E0
C0
ENDCHAR
STARTCHAR uni02F3
ENCODING 755
SWIDTH 562 0
DWIDTH 9 0
BBX 4 4 2 -4
BITMAP
60
90
90
60
ENDCHAR
STARTCHAR uni02F4
ENCODING 756
SWIDTH 562 0
DWIDTH 9 0
BBX 5 3 1 6
BITMAP
E0
70
38
ENDCHAR
STARTCHAR uni02F5
ENCODING 757
SWIDTH 562 0
DWIDTH 9 0
BBX 8 3 0 6
BITMAP
CC
66
33
ENDCHAR
STARTCHAR uni02F6
ENCODING 758
SWIDTH 562 0
DWIDTH 9 0
BBX 8 3 0 6
BITMAP
33
66
CC
ENDCHAR
STARTCHAR uni02F7
ENCODING 759
SWIDTH 562 0
DWIDTH 9 0
BBX 8 3 0 -4
BITMAP
73
FF
CE
ENDCHAR
STARTCHAR uni02F8
ENCODING 760
SWIDTH 562 0
DWIDTH 9 0
BBX 2 6 3 6
BITMAP
C0
C0
00
00
C0
C0
ENDCHAR
STARTCHAR uni02F9
ENCODING 761
SWIDTH 562 0
DWIDTH 9 0
BBX 5 5 2 7
BITMAP
F8
F8
C0
C0
C0
ENDCHAR
STARTCHAR uni02FA
ENCODING 762
SWIDTH 562 0
DWIDTH 9 0
BBX 5 5 2 7
BITMAP
F8
F8
18
18
18
ENDCHAR
STARTCHAR uni02FB
ENCODING 763
SWIDTH 562 0
DWIDTH 9 0
BBX 5 5 2 0
BITMAP
C0
C0
C0
F8
F8
ENDCHAR
STARTCHAR uni02FC
ENCODING 764
SWIDTH 562 0
DWIDTH 9 0
BBX 5 5 2 0
BITMAP
18
18
18
F8
F8
ENDCHAR
STARTCHAR uni02FD
ENCODING 765
SWIDTH 562 0
DWIDTH 9 0
BBX 6 4 1 0
BITMAP
CC
CC
FC
FC
ENDCHAR
STARTCHAR uni02FE
ENCODING 766
SWIDTH 562 0
DWIDTH 9 0
BBX 6 4 1 0
BITMAP
C0
C0
FC
FC
ENDCHAR
STARTCHAR uni02FF
ENCODING 767
SWIDTH 562 0
DWIDTH 9 0
BBX 6 6 1 -3
BITMAP
20
60
FC
FC
60
20
ENDCHAR
STARTCHAR gravecomb
ENCODING 768
SWIDTH 562 0
DWIDTH 9 0
BBX 5 3 1 9
BITMAP
E0
70
38
ENDCHAR
STARTCHAR acutecomb
ENCODING 769
SWIDTH 562 0
DWIDTH 9 0
BBX 5 3 2 9
BITMAP
38
70
E0
ENDCHAR
STARTCHAR uni0302
ENCODING 770
SWIDTH 562 0
DWIDTH 9 0
BBX 6 3 1 9
BITMAP
30
78
CC
ENDCHAR
STARTCHAR tildecomb
ENCODING 771
SWIDTH 562 0
DWIDTH 9 0
BBX 8 3 0 9
BITMAP
73
FF
CE
ENDCHAR
STARTCHAR uni0304
ENCODING 772
SWIDTH 562 0
DWIDTH 9 0
BBX 6 2 1 10
BITMAP
FC
FC
ENDCHAR
STARTCHAR uni0305
ENCODING 773
SWIDTH 562 0
DWIDTH 9 0
BBX 9 2 0 10
BITMAP
FF80
FF80
ENDCHAR
STARTCHAR uni0306
ENCODING 774
SWIDTH 562 0
DWIDTH 9 0
BBX 6 3 1 9
BITMAP
CC
FC
78
ENDCHAR
STARTCHAR uni0307
ENCODING 775
SWIDTH 562 0
DWIDTH 9 0
BBX 2 2 3 10
BITMAP
C0
C0
ENDCHAR
STARTCHAR uni0308
ENCODING 776
SWIDTH 562 0
DWIDTH 9 0
BBX 6 2 1 10
BITMAP
CC
CC
ENDCHAR
STARTCHAR hookabovecomb
ENCODING 777
SWIDTH 562 0
DWIDTH 9 0
BBX 3 4 3 8
BITMAP
E0
20
60
40
ENDCHAR
STARTCHAR uni030A
ENCODING 778
SWIDTH 562 0
DWIDTH 9 0
BBX 4 4 2 8
BITMAP
60
90
90
60
ENDCHAR
STARTCHAR uni030B
ENCODING 779
SWIDTH 562 0
DWIDTH 9 0
BBX 8 3 0 9
BITMAP
33
66
CC
ENDCHAR
STARTCHAR uni030C
ENCODING 780
SWIDTH 562 0
DWIDTH 9 0
BBX 6 3 1 9
BITMAP
CC
78
30
ENDCHAR
STARTCHAR uni030D
ENCODING 781
SWIDTH 562 0
DWIDTH 9 0
BBX 1 3 4 9
BITMAP
80
80
80
ENDCHAR
STARTCHAR uni030E
ENCODING 782
SWIDTH 562 0
DWIDTH 9 0
BBX 3 3 3 9
BITMAP
A0
A0
A0
ENDCHAR
STARTCHAR uni030F
ENCODING 783
SWIDTH 562 0
DWIDTH 9 0
BBX 8 3 0 9
BITMAP
CC
66
33
ENDCHAR
STARTCHAR uni0310
ENCODING 784
SWIDTH 562 0
DWIDTH 9 0
BBX 6 4 1 8
BITMAP
30
B4
CC
78
ENDCHAR
STARTCHAR uni0311
ENCODING 785
SWIDTH 562 0
DWIDTH 9 0
BBX 6 3 1 9
BITMAP
78
FC
CC
ENDCHAR
STARTCHAR uni0312
ENCODING 786
SWIDTH 562 0
DWIDTH 9 0
BBX 3 3 3 9
BITMAP
60
C0
C0
ENDCHAR
STARTCHAR uni0313
ENCODING 787
SWIDTH 562 0
DWIDTH 9 0
BBX 3 3 2 9
BITMAP
60
60
C0
ENDCHAR
STARTCHAR uni0314
ENCODING 788
SWIDTH 562 0
DWIDTH 9 0
BBX 3 3 3 9
BITMAP
C0
C0
60
ENDCHAR
STARTCHAR uni0315
ENCODING 789
SWIDTH 562 0
DWIDTH 9 0
BBX 3 3 5 9
BITMAP
60
60
C0
ENDCHAR
STARTCHAR uni0316
ENCODING 790
SWIDTH 562 0
DWIDTH 9 0
BBX 5 3 2 -4
BITMAP
E0
70
38
ENDCHAR
STARTCHAR uni0317
ENCODING 791
SWIDTH 562 0
DWIDTH 9 0
BBX 5 3 2 -4
BITMAP
38
70
E0
ENDCHAR
STARTCHAR uni0318
ENCODING 792
SWIDTH 562 0
DWIDTH 9 0
BBX 3 3 2 -4
BITMAP
20
E0
20
ENDCHAR
STARTCHAR uni0319
ENCODING 793
SWIDTH 562 0
DWIDTH 9 0
BBX 3 3 3 -4
BITMAP
80
E0
80
ENDCHAR
STARTCHAR uni31A
ENCODING 794
SWIDTH 562 0
DWIDTH 9 0
BBX 4 4 4 8
BITMAP
F0
F0
30
30
ENDCHAR
STARTCHAR uni31B
ENCODING 795
SWIDTH 562 0
DWIDTH 9 0
BBX 3 4 5 8
BITMAP
60
60
E0
C0
ENDCHAR
STARTCHAR uni31C
ENCODING 796
SWIDTH 562 0
DWIDTH 9 0
BBX 3 5 2 -4
BITMAP
60
C0
80
C0
60
ENDCHAR
STARTCHAR uni31D
ENCODING 797
SWIDTH 562 0
DWIDTH 9 0
BBX 3 3 3 -4
BITMAP
40
40
E0
ENDCHAR
STARTCHAR uni31E
ENCODING 798
SWIDTH 562 0
DWIDTH 9 0
BBX 3 3 3 -4
BITMAP
E0
40
40
ENDCHAR
STARTCHAR uni31F
ENCODING 799
SWIDTH 562 0
DWIDTH 9 0
BBX 3 3 3 -4
BITMAP
40
E0
40
ENDCHAR
STARTCHAR uni320
ENCODING 800
SWIDTH 562 0
DWIDTH 9 0
BBX 4 2 2 -4
BITMAP
F0
F0
ENDCHAR
STARTCHAR uni321
ENCODING 801
SWIDTH 562 0
DWIDTH 9 0
BBX 3 4 2 -4
BITMAP
60
60
E0
C0
ENDCHAR
STARTCHAR uni322
ENCODING 802
SWIDTH 562 0
DWIDTH 9 0
BBX 3 4 3 -4
BITMAP
C0
C0
E0
60
ENDCHAR
STARTCHAR uni323
ENCODING 803
SWIDTH 562 0
DWIDTH 9 0
BBX 2 2 3 -4
BITMAP
C0
C0
ENDCHAR
STARTCHAR uni324
ENCODING 804
SWIDTH 562 0
DWIDTH 9 0
BBX 6 2 1 -4
BITMAP
CC
CC
ENDCHAR
STARTCHAR uni325
ENCODING 805
SWIDTH 562 0
DWIDTH 9 0
BBX 4 4 2 -4
BITMAP
60
90
90
60
ENDCHAR
STARTCHAR uni326
ENCODING 806
SWIDTH 562 0
DWIDTH 9 0
BBX 3 3 2 -4
BITMAP
60
E0
C0
ENDCHAR
STARTCHAR uni327
ENCODING 807
SWIDTH 562 0
DWIDTH 9 0
BBX 4 4 2 -4
BITMAP
60
30
F0
E0
ENDCHAR
STARTCHAR uni328
ENCODING 808
SWIDTH 562 0
DWIDTH 9 0
BBX 4 4 4 -4
BITMAP
60
C0
F0
70
ENDCHAR
STARTCHAR uni329
ENCODING 809
SWIDTH 562 0
DWIDTH 9 0
BBX 1 3 4 -4
BITMAP
80
80
80
ENDCHAR
STARTCHAR uni32A
ENCODING 810
SWIDTH 562 0
DWIDTH 9 0
BBX 6 3 1 -4
BITMAP
FC
84
84
ENDCHAR
STARTCHAR uni32B
ENCODING 811
SWIDTH 562 0
DWIDTH 9 0
BBX 9 3 0 -4
BITMAP
8880
DD80
7700
ENDCHAR
STARTCHAR uni32C
ENCODING 812
SWIDTH 562 0
DWIDTH 9 0
BBX 6 3 1 -4
BITMAP
CC
78
30
ENDCHAR
STARTCHAR uni32D
ENCODING 813
SWIDTH 562 0
DWIDTH 9 0
BBX 6 3 1 -4
BITMAP
30
78
CC
ENDCHAR
STARTCHAR uni32E
ENCODING 814
SWIDTH 562 0
DWIDTH 9 0
BBX 6 3 1 -4
BITMAP
CC
FC
78
ENDCHAR
STARTCHAR uni32F
ENCODING 815
SWIDTH 562 0
DWIDTH 9 0
BBX 6 3 1 -4
BITMAP
78
FC
CC
ENDCHAR
STARTCHAR uni330
ENCODING 816
SWIDTH 562 0
DWIDTH 9 0
BBX 8 3 0 -4
BITMAP
73
FF
CE
ENDCHAR
STARTCHAR uni331
ENCODING 817
SWIDTH 562 0
DWIDTH 9 0
BBX 6 2 1 -4
BITMAP
FC
FC
ENDCHAR
STARTCHAR uni332
ENCODING 818
SWIDTH 562 0
DWIDTH 9 0
BBX 9 2 0 -4
BITMAP
FF80
FF80
ENDCHAR
STARTCHAR uni333
ENCODING 819
SWIDTH 562 0
DWIDTH 9 0
BBX 9 3 0 -4
BITMAP
FF80
0000
FF80
ENDCHAR
STARTCHAR uni334
ENCODING 820
SWIDTH 562 0
DWIDTH 9 0
BBX 8 3 0 3
BITMAP
73
FF
CE
ENDCHAR
STARTCHAR uni335
ENCODING 821
SWIDTH 562 0
DWIDTH 9 0
BBX 4 2 2 3
BITMAP
F0
F0
ENDCHAR
STARTCHAR uni336
ENCODING 822
SWIDTH 562 0
DWIDTH 9 0
BBX 9 2 0 3
BITMAP
FF80
FF80
ENDCHAR
STARTCHAR uni337
ENCODING 823
SWIDTH 562 0
DWIDTH 9 0
BBX 8 8 0 0
BITMAP
03
07
0E
1C
38
70
E0
C0
ENDCHAR
STARTCHAR uni338
ENCODING 824
SWIDTH 562 0
DWIDTH 9 0
BBX 8 12 0 -2
BITMAP
03
03
07
0E
0C
1C
38
30
70
E0
C0
C0
ENDCHAR
STARTCHAR uni339
ENCODING 825
SWIDTH 562 0
DWIDTH 9 0
BBX 3 5 3 -4
BITMAP
C0
60
20
60
C0
ENDCHAR
STARTCHAR uni33A
ENCODING 826
SWIDTH 562 0
DWIDTH 9 0
BBX 6 3 1 -4
BITMAP
84
84
FC
ENDCHAR
STARTCHAR uni33B
ENCODING 827
SWIDTH 562 0
DWIDTH 9 0
BBX 6 3 1 -4
BITMAP
FC
84
FC
ENDCHAR
STARTCHAR uni33C
ENCODING 828
SWIDTH 562 0
DWIDTH 9 0
BBX 7 3 0 -4
BITMAP
EE
38
10
ENDCHAR
STARTCHAR uni33D
ENCODING 829
SWIDTH 562 0
DWIDTH 9 0
BBX 6 3 1 9
BITMAP
CC
78
CC
ENDCHAR
STARTCHAR uni33E
ENCODING 830
SWIDTH 562 0
DWIDTH 9 0
BBX 3 4 3 8
BITMAP
60
C0
60
C0
ENDCHAR
STARTCHAR uni33F
ENCODING 831
SWIDTH 562 0
DWIDTH 9 0
BBX 9 3 0 9
BITMAP
FF80
0000
FF80
ENDCHAR
STARTCHAR uni340
ENCODING 832
SWIDTH 562 0
DWIDTH 9 0
BBX 4 3 2 9
BITMAP
C0
60
30
ENDCHAR
STARTCHAR uni341
ENCODING 833
SWIDTH 562 0
DWIDTH 9 0
BBX 4 3 2 9
BITMAP
30
60
C0
ENDCHAR
STARTCHAR uni342
ENCODING 834
SWIDTH 562 0
DWIDTH 9 0
BBX 5 3 2 8
BITMAP
70
D8
88
ENDCHAR
STARTCHAR uni343
ENCODING 835
SWIDTH 562 0
DWIDTH 9 0
BBX 2 3 3 8
BITMAP
C0
40
80
ENDCHAR
STARTCHAR uni344
ENCODING 836
SWIDTH 562 0
DWIDTH 9 0
BBX 8 3 0 8
BITMAP
0C
DB
D3
ENDCHAR
STARTCHAR uni345
ENCODING 837
SWIDTH 562 0
DWIDTH 9 0
BBX 1 3 4 -4
BITMAP
80
80
80
ENDCHAR
STARTCHAR uni346
ENCODING 838
SWIDTH 562 0
DWIDTH 9 0
BBX 6 3 1 9
BITMAP
FC
84
84
ENDCHAR
STARTCHAR uni347
ENCODING 839
SWIDTH 562 0
DWIDTH 9 0
BBX 4 3 2 -4
BITMAP
F0
00
F0
ENDCHAR
STARTCHAR uni348
ENCODING 840
SWIDTH 562 0
DWIDTH 9 0
BBX 3 3 3 -4
BITMAP
A0
A0
A0
ENDCHAR
STARTCHAR uni349
ENCODING 841
SWIDTH 562 0
DWIDTH 9 0
BBX 4 3 2 -4
BITMAP
F0
10
10
ENDCHAR
STARTCHAR uni34A
ENCODING 842
SWIDTH 562 0
DWIDTH 9 0
BBX 8 5 0 7
BITMAP
08
7B
FF
DE
10
ENDCHAR
STARTCHAR uni34B
ENCODING 843
SWIDTH 562 0
DWIDTH 9 0
BBX 7 4 1 8
BITMAP
08
F2
9E
20
ENDCHAR
STARTCHAR uni34C
ENCODING 844
SWIDTH 562 0
DWIDTH 9 0
BBX 8 4 0 8
BITMAP
7B
CE
73
DE
ENDCHAR
STARTCHAR uni34D
ENCODING 845
SWIDTH 562 0
DWIDTH 9 0
BBX 9 5 0 -4
BITMAP
2200
6300
FF80
6300
2200
ENDCHAR
STARTCHAR uni34E
ENCODING 846
SWIDTH 562 0
DWIDTH 9 0
BBX 5 5 2 -4
BITMAP
20
70
F8
20
20
ENDCHAR
STARTCHAR uni350
ENCODING 848
SWIDTH 562 0
DWIDTH 9 0
BBX 4 5 2 7
BITMAP
C0
60
30
60
C0
ENDCHAR
STARTCHAR uni351
ENCODING 849
SWIDTH 562 0
DWIDTH 9 0
BBX 3 5 3 7
BITMAP
60
C0
80
C0
60
ENDCHAR
STARTCHAR uni352
ENCODING 850
SWIDTH 562 0
DWIDTH 9 0
BBX 6 4 1 8
BITMAP
78
CC
B4
30
ENDCHAR
STARTCHAR uni353
ENCODING 851
SWIDTH 562 0
DWIDTH 9 0
BBX 6 5 1 -4
BITMAP
CC
FC
30
FC
CC
ENDCHAR
STARTCHAR uni354
ENCODING 852
SWIDTH 562 0
DWIDTH 9 0
BBX 4 5 2 -4
BITMAP
30
60
C0
60
30
ENDCHAR
STARTCHAR uni355
ENCODING 853
SWIDTH 562 0
DWIDTH 9 0
BBX 4 5 2 -4
BITMAP
C0
60
30
60
C0
ENDCHAR
STARTCHAR uni356
ENCODING 854
SWIDTH 562 0
DWIDTH 9 0
BBX 9 5 0 -4
BITMAP
C200
6700
3D80
6880
C000
ENDCHAR
STARTCHAR uni357
ENCODING 855
SWIDTH 562 0
DWIDTH 9 0
BBX 3 5 3 7
BITMAP
C0
60
20
60
C0
ENDCHAR
STARTCHAR uni358
ENCODING 856
SWIDTH 562 0
DWIDTH 9 0
BBX 2 2 6 10
BITMAP
C0
C0
ENDCHAR
STARTCHAR uni359
ENCODING 857
SWIDTH 562 0
DWIDTH 9 0
BBX 5 5 2 -4
BITMAP
20
F8
70
F8
20
ENDCHAR
STARTCHAR uni35A
ENCODING 858
SWIDTH 562 0
DWIDTH 9 0
BBX 7 4 1 -4
BITMAP
6C
92
92
6C
ENDCHAR
STARTCHAR uni35B
ENCODING 859
SWIDTH 562 0
DWIDTH 9 0
BBX 4 5 2 7
BITMAP
40
C0
F0
30
20
ENDCHAR
STARTCHAR uni35C
ENCODING 860
SWIDTH 562 0
DWIDTH 9 0
BBX 12 3 3 -4
BITMAP
C030
70E0
1F80
ENDCHAR
STARTCHAR uni35D
ENCODING 861
SWIDTH 562 0
DWIDTH 9 0
BBX 12 3 3 9
BITMAP
C030
70E0
1F80
ENDCHAR
STARTCHAR uni35E
ENCODING 862
SWIDTH 562 0
DWIDTH 9 0
BBX 12 2 3 10
BITMAP
FFF0
FFF0
ENDCHAR
STARTCHAR uni35F
ENCODING 863
SWIDTH 562 0
DWIDTH 9 0
BBX 12 2 3 -4
BITMAP
FFF0
FFF0
ENDCHAR
STARTCHAR uni360
ENCODING 864
SWIDTH 562 0
DWIDTH 9 0
BBX 14 3 2 9
BITMAP
3E1C
FFFC
E1F0
ENDCHAR
STARTCHAR uni361
ENCODING 865
SWIDTH 562 0
DWIDTH 9 0
BBX 12 3 3 9
BITMAP
1F80
70E0
C030
ENDCHAR
STARTCHAR uni362
ENCODING 866
SWIDTH 562 0
DWIDTH 9 0
BBX 12 5 3 -4
BITMAP
0040
0060
FFF0
0060
0040
ENDCHAR
STARTCHAR uni0363
ENCODING 867
SWIDTH 562 0
DWIDTH 9 0
BBX 6 5 1 7
BITMAP
7C
CC
CC
CC
7C
ENDCHAR
STARTCHAR uni0364
ENCODING 868
SWIDTH 562 0
DWIDTH 9 0
BBX 6 5 1 7
BITMAP
78
CC
FC
C0
78
ENDCHAR
STARTCHAR uni0365
ENCODING 869
SWIDTH 562 0
DWIDTH 9 0
BBX 6 5 1 7
BITMAP
30
00
70
30
FC
ENDCHAR
STARTCHAR uni0366
ENCODING 870
SWIDTH 562 0
DWIDTH 9 0
BBX 6 5 1 7
BITMAP
78
CC
CC
CC
78
ENDCHAR
STARTCHAR uni0367
ENCODING 871
SWIDTH 562 0
DWIDTH 9 0
BBX 6 5 1 7
BITMAP
CC
CC
CC
CC
78
ENDCHAR
STARTCHAR uni0368
ENCODING 872
SWIDTH 562 0
DWIDTH 9 0
BBX 6 5 1 7
BITMAP
78
CC
C0
CC
78
ENDCHAR
STARTCHAR uni0369
ENCODING 873
SWIDTH 562 0
DWIDTH 9 0
BBX 6 5 2 7
BITMAP
0C
7C
CC
CC
7C
ENDCHAR
STARTCHAR uni036A
ENCODING 874
SWIDTH 562 0
DWIDTH 9 0
BBX 6 5 1 7
BITMAP
C0
C0
F8
CC
CC
ENDCHAR
STARTCHAR uni036B
ENCODING 875
SWIDTH 562 0
DWIDTH 9 0
BBX 5 5 2 7
BITMAP
70
F8
A8
A8
A8
ENDCHAR
STARTCHAR uni036C
ENCODING 876
SWIDTH 562 0
DWIDTH 9 0
BBX 6 5 1 7
BITMAP
78
CC
C0
C0
C0
ENDCHAR
STARTCHAR uni036D
ENCODING 877
SWIDTH 562 0
DWIDTH 9 0
BBX 6 5 1 7
BITMAP
30
30
FC
30
1C
ENDCHAR
STARTCHAR uni036E
ENCODING 878
SWIDTH 562 0
DWIDTH 9 0
BBX 6 5 1 7
BITMAP
CC
CC
CC
78
30
ENDCHAR
STARTCHAR uni036F
ENCODING 879
SWIDTH 562 0
DWIDTH 9 0
BBX 6 5 1 7
BITMAP
CC
FC
30
FC
CC
ENDCHAR
STARTCHAR uni0370
ENCODING 880
SWIDTH 562 0
DWIDTH 9 0
BBX 8 10 0 0
BITMAP
C0
C0
C0
C0
FF
FF
C0
C0
C0
C0
ENDCHAR
STARTCHAR uni0371
ENCODING 881
SWIDTH 562 0
DWIDTH 9 0
BBX 8 8 0 0
BITMAP
C0
E0
60
7F
7F
60
60
60
ENDCHAR
STARTCHAR uni0372
ENCODING 882
SWIDTH 562 0
DWIDTH 9 0
BBX 8 10 0 0
BITMAP
FF
FF
DB
DB
18
18
18
18
18
18
ENDCHAR
STARTCHAR uni0373
ENCODING 883
SWIDTH 562 0
DWIDTH 9 0
BBX 8 8 0 0
BITMAP
FF
FF
DB
DB
18
18
18
18
ENDCHAR
STARTCHAR uni0374
ENCODING 884
SWIDTH 562 0
DWIDTH 9 0
BBX 3 4 3 8
BITMAP
60
60
C0
C0
ENDCHAR
STARTCHAR uni0375
ENCODING 885
SWIDTH 562 0
DWIDTH 9 0
BBX 3 4 2 -2
BITMAP
60
60
C0
C0
ENDCHAR
STARTCHAR uni0376
ENCODING 886
SWIDTH 562 0
DWIDTH 9 0
BBX 8 10 0 0
BITMAP
C3
C7
C7
DF
DF
FB
FB
E3
E3
C3
ENDCHAR
STARTCHAR uni0377
ENCODING 887
SWIDTH 562 0
DWIDTH 9 0
BBX 8 8 0 0
BITMAP
C3
C7
CF
DF
FB
F3
E3
C3
ENDCHAR
STARTCHAR uni037A
ENCODING 890
SWIDTH 562 0
DWIDTH 9 0
BBX 3 4 3 -4
BITMAP
C0
C0
E0
60
ENDCHAR
STARTCHAR uni037B
ENCODING 891
SWIDTH 562 0
DWIDTH 9 0
BBX 8 8 0 0
BITMAP
3C
7E
E7
03
03
E7
7E
3C
ENDCHAR
STARTCHAR uni037C
ENCODING 892
SWIDTH 562 0
DWIDTH 9 0
BBX 8 8 0 0
BITMAP
3C
7E
E7
D8
D8
E7
7E
3C
ENDCHAR
STARTCHAR uni037D
ENCODING 893
SWIDTH 562 0
DWIDTH 9 0
BBX 8 8 0 0
BITMAP
3C
7E
E7
1B
1B
E7
7E
3C
ENDCHAR
STARTCHAR uni037E
ENCODING 894
SWIDTH 562 0
DWIDTH 9 0
BBX 3 10 2 -2
BITMAP
60
60
00
00
00
00
60
60
C0
C0
ENDCHAR
STARTCHAR uni037F
ENCODING 895
SWIDTH 562 0
DWIDTH 9 0
BBX 8 10 0 0
BITMAP
03
03
03
03
03
03
C3
E7
7E
3C
ENDCHAR
STARTCHAR tonos
ENCODING 900
SWIDTH 562 0
DWIDTH 9 0
BBX 2 3 3 8
BITMAP
40
C0
80
ENDCHAR
STARTCHAR dieresistonos
ENCODING 901
SWIDTH 562 0
DWIDTH 9 0
BBX 8 3 0 8
BITMAP
08
DB
D3
ENDCHAR
STARTCHAR Alphatonos
ENCODING 902
SWIDTH 562 0
DWIDTH 9 0
BBX 8 11 0 0
BITMAP
40
D8
BC
3C
3C
66
66
7E
FF
C3
C3
ENDCHAR
STARTCHAR anoteleia
ENCODING 903
SWIDTH 562 0
DWIDTH 9 0
BBX 2 2 3 4
BITMAP
C0
C0
ENDCHAR
STARTCHAR Epsilontonos
ENCODING 904
SWIDTH 562 0
DWIDTH 9 0
BBX 8 12 0 0
BITMAP
40
C0
BF
3F
30
30
3F
3F
30
30
3F
3F
ENDCHAR
STARTCHAR Etatonos
ENCODING 905
SWIDTH 562 0
DWIDTH 9 0
BBX 8 12 0 0
BITMAP
40
C0
B3
33
33
33
3F
3F
33
33
33
33
ENDCHAR
STARTCHAR Iotatonos
ENCODING 906
SWIDTH 562 0
DWIDTH 9 0
BBX 5 12 1 0
BITMAP
40
C0
98
18
18
18
18
18
18
18
18
18
ENDCHAR
STARTCHAR Omicrontonos
ENCODING 908
SWIDTH 562 0
DWIDTH 9 0
BBX 8 12 0 0
BITMAP
40
C0
9E
3F
33
33
33
33
33
33
3F
1E
ENDCHAR
STARTCHAR uni038D
ENCODING 909
SWIDTH 562 0
DWIDTH 9 0
BBX 8 16 0 -4
BITMAP
90
90
60
60
00
F7
85
F7
81
F7
00
F0
90
F0
A0
B0
ENDCHAR
STARTCHAR Upsilontonos
ENCODING 910
SWIDTH 562 0
DWIDTH 9 0
BBX 8 12 0 0
BITMAP
40
C0
B3
33
3F
1E
0C
0C
0C
0C
0C
0C
ENDCHAR
STARTCHAR Omegatonos
ENCODING 911
SWIDTH 562 0
DWIDTH 9 0
BBX 8 12 0 0
BITMAP
40
C0
9E
3F
33
33
33
33
12
12
33
33
ENDCHAR
STARTCHAR iotadieresistono
ENCODING 912
SWIDTH 562 0
DWIDTH 9 0
BBX 8 12 0 0
BITMAP
08
DB
D3
00
18
18
18
18
18
18
1E
0E
ENDCHAR
STARTCHAR Alpha
ENCODING 913
SWIDTH 562 0
DWIDTH 9 0
BBX 8 10 0 0
BITMAP
18
3C
3C
3C
66
7E
7E
C3
C3
C3
ENDCHAR
STARTCHAR Beta
ENCODING 914
SWIDTH 562 0
DWIDTH 9 0
BBX 8 10 0 0
BITMAP
FC
FE
C7
C7
FE
FE
C7
C7
FE
FC
ENDCHAR
STARTCHAR Gamma
ENCODING 915
SWIDTH 562 0
DWIDTH 9 0
BBX 8 10 0 0
BITMAP
FF
FF
C0
C0
C0
C0
C0
C0
C0
C0
ENDCHAR
STARTCHAR uni0394
ENCODING 916
SWIDTH 562 0
DWIDTH 9 0
BBX 8 10 0 0
BITMAP
18
3C
3C
3C
66
66
66
C3
FF
FF
ENDCHAR
STARTCHAR Epsilon
ENCODING 917
SWIDTH 562 0
DWIDTH 9 0
BBX 8 10 0 0
BITMAP
FF
FF
C0
C0
FF
FF
C0
C0
FF
FF
ENDCHAR
STARTCHAR Zeta
ENCODING 918
SWIDTH 562 0
DWIDTH 9 0
BBX 8 10 0 0
BITMAP
FF
FF
06
0E
1C
18
38
70
FF
FF
ENDCHAR
STARTCHAR Eta
ENCODING 919
SWIDTH 562 0
DWIDTH 9 0
BBX 8 10 0 0
BITMAP
C3
C3
C3
C3
FF
FF
C3
C3
C3
C3
ENDCHAR
STARTCHAR Theta
ENCODING 920
SWIDTH 562 0
DWIDTH 9 0
BBX 8 10 0 0
BITMAP
3C
7E
E7
C3
BD
BD
C3
E7
7E
3C
ENDCHAR
STARTCHAR Iota
ENCODING 921
SWIDTH 562 0
DWIDTH 9 0
BBX 2 10 3 0
BITMAP
C0
C0
C0
C0
C0
C0
C0
C0
C0
C0
ENDCHAR
STARTCHAR Kappa
ENCODING 922
SWIDTH 562 0
DWIDTH 9 0
BBX 8 10 0 0
BITMAP
C3
C7
CE
DC
F8
F8
DC
CE
C7
C3
ENDCHAR
STARTCHAR Lambda
ENCODING 923
SWIDTH 562 0
DWIDTH 9 0
BBX 8 10 0 0
BITMAP
18
3C
3C
3C
66
66
66
C3
C3
C3
ENDCHAR
STARTCHAR Mu
ENCODING 924
SWIDTH 562 0
DWIDTH 9 0
BBX 8 10 0 0
BITMAP
C3
E7
E7
FF
DB
DB
C3
C3
C3
C3
ENDCHAR
STARTCHAR Nu
ENCODING 925
SWIDTH 562 0
DWIDTH 9 0
BBX 8 10 0 0
BITMAP
C3
E3
F3
F3
DB
DB
CF
CF
C7
C3
ENDCHAR
STARTCHAR Xi
ENCODING 926
SWIDTH 562 0
DWIDTH 9 0
BBX 8 10 0 0
BITMAP
FF
FF
00
00
3C
3C
00
00
FF
FF
ENDCHAR
STARTCHAR Omicron
ENCODING 927
SWIDTH 562 0
DWIDTH 9 0
BBX 8 10 0 0
BITMAP
3C
7E
E7
C3
C3
C3
C3
E7
7E
3C
ENDCHAR
STARTCHAR Pi
ENCODING 928
SWIDTH 562 0
DWIDTH 9 0
BBX 8 10 0 0
BITMAP
FF
FF
C3
C3
C3
C3
C3
C3
C3
C3
ENDCHAR
STARTCHAR Rho
ENCODING 929
SWIDTH 562 0
DWIDTH 9 0
BBX 8 10 0 0
BITMAP
FC
FE
C7
C7
FE
FC
C0
C0
C0
C0
ENDCHAR
STARTCHAR uni03A2
ENCODING 930
SWIDTH 562 0
DWIDTH 9 0
BBX 8 16 0 -4
BITMAP
E5
97
F2
92
E2
00
EF
A9
AF
EA
0B
C0
9D
D5
95
D7
ENDCHAR
STARTCHAR Sigma
ENCODING 931
SWIDTH 562 0
DWIDTH 9 0
BBX 8 10 0 0
BITMAP
FF
FF
E0
70
38
38
70
E0
FF
FF
ENDCHAR
STARTCHAR Tau
ENCODING 932
SWIDTH 562 0
DWIDTH 9 0
BBX 8 10 0 0
BITMAP
FF
FF
18
18
18
18
18
18
18
18
ENDCHAR
STARTCHAR Upsilon
ENCODING 933
SWIDTH 562 0
DWIDTH 9 0
BBX 8 10 0 0
BITMAP
C3
E7
7E
3C
18
18
18
18
18
18
ENDCHAR
STARTCHAR Phi
ENCODING 934
SWIDTH 562 0
DWIDTH 9 0
BBX 8 10 0 0
BITMAP
18
18
7E
FF
DB
DB
FF
7E
18
18
ENDCHAR
STARTCHAR Chi
ENCODING 935
SWIDTH 562 0
DWIDTH 9 0
BBX 8 10 0 0
BITMAP
C3
E7
66
3C
3C
3C
3C
66
E7
C3
ENDCHAR
STARTCHAR Psi
ENCODING 936
SWIDTH 562 0
DWIDTH 9 0
BBX 8 10 0 0
BITMAP
DB
DB
DB
DB
DB
FF
7E
3C
18
18
ENDCHAR
STARTCHAR uni03A9
ENCODING 937
SWIDTH 562 0
DWIDTH 9 0
BBX 8 10 0 0
BITMAP
3C
7E
E7
C3
C3
C3
C3
66
E7
E7
ENDCHAR
STARTCHAR Iotadieresis
ENCODING 938
SWIDTH 562 0
DWIDTH 9 0
BBX 6 11 1 0
BITMAP
84
30
30
30
30
30
30
30
30
30
30
ENDCHAR
STARTCHAR Upsilondieresis
ENCODING 939
SWIDTH 562 0
DWIDTH 9 0
BBX 8 12 0 0
BITMAP
24
00
C3
E7
7E
3C
18
18
18
18
18
18
ENDCHAR
STARTCHAR alphatonos
ENCODING 940
SWIDTH 562 0
DWIDTH 9 0
BBX 8 12 0 0
BITMAP
08
18
10
00
3B
7F
E6
C6
C6
E6
7F
3B
ENDCHAR
STARTCHAR epsilontonos
ENCODING 941
SWIDTH 562 0
DWIDTH 9 0
BBX 8 12 0 0
BITMAP
08
18
10
00
7F
FF
C0
7C
7C
C0
FF
7F
ENDCHAR
STARTCHAR etatonos
ENCODING 942
SWIDTH 562 0
DWIDTH 9 0
BBX 8 16 0 -4
BITMAP
08
18
10
00
FC
FE
E7
C3
C3
C3
C3
C3
03
03
03
03
ENDCHAR
STARTCHAR iotatonos
ENCODING 943
SWIDTH 562 0
DWIDTH 9 0
BBX 4 12 3 0
BITMAP
40
C0
80
00
C0
C0
C0
C0
C0
C0
F0
70
ENDCHAR
STARTCHAR upsilondieresist
ENCODING 944
SWIDTH 562 0
DWIDTH 9 0
BBX 8 12 0 0
BITMAP
08
DB
D3
00
C3
C3
C3
C3
C7
CE
FC
78
ENDCHAR
STARTCHAR alpha
ENCODING 945
SWIDTH 562 0
DWIDTH 9 0
BBX 8 8 0 0
BITMAP
3B
7F
E6
C6
C6
E6
7F
3B
ENDCHAR
STARTCHAR beta
ENCODING 946
SWIDTH 562 0
DWIDTH 9 0
BBX 8 13 0 -3
BITMAP
7C
FE
C6
C6
DE
DF
C3
C3
FF
FE
C0
C0
C0
ENDCHAR
STARTCHAR gamma
ENCODING 947
SWIDTH 562 0
DWIDTH 9 0
BBX 8 12 0 -4
BITMAP
C3
C3
E7
66
66
7E
3C
3C
18
18
18
18
ENDCHAR
STARTCHAR delta
ENCODING 948
SWIDTH 562 0
DWIDTH 9 0
BBX 8 12 0 0
BITMAP
1F
3F
30
30
3C
7E
E7
C3
C3
E7
7E
3C
ENDCHAR
STARTCHAR epsilon
ENCODING 949
SWIDTH 562 0
DWIDTH 9 0
BBX 8 8 0 0
BITMAP
7F
FF
E0
7E
7E
E0
FF
7F
ENDCHAR
STARTCHAR zeta
ENCODING 950
SWIDTH 562 0
DWIDTH 9 0
BBX 8 14 0 -4
BITMAP
FF
FF
0E
1C
38
70
E0
C0
C0
FE
7F
03
07
06
ENDCHAR
STARTCHAR eta
ENCODING 951
SWIDTH 562 0
DWIDTH 9 0
BBX 8 12 0 -4
BITMAP
FC
FE
E7
C3
C3
C3
C3
C3
03
03
03
03
ENDCHAR
STARTCHAR theta
ENCODING 952
SWIDTH 562 0
DWIDTH 9 0
BBX 8 10 0 -2
BITMAP
3C
7E
E7
C3
FF
FF
C3
E7
7E
3C
ENDCHAR
STARTCHAR iota
ENCODING 953
SWIDTH 562 0
DWIDTH 9 0
BBX 4 8 3 0
BITMAP
C0
C0
C0
C0
C0
C0
F0
70
ENDCHAR
STARTCHAR kappa
ENCODING 954
SWIDTH 562 0
DWIDTH 9 0
BBX 8 8 0 0
BITMAP
C3
C7
CE
FC
FC
CE
C7
C3
ENDCHAR
STARTCHAR lambda
ENCODING 955
SWIDTH 562 0
DWIDTH 9 0
BBX 8 11 0 0
BITMAP
C0
E0
70
38
18
3C
7E
66
E7
C3
C3
ENDCHAR
STARTCHAR uni03BC
ENCODING 956
SWIDTH 562 0
DWIDTH 9 0
BBX 8 12 0 -4
BITMAP
C3
C3
C3
C3
C3
E7
FF
FF
C0
C0
C0
C0
ENDCHAR
STARTCHAR nu
ENCODING 957
SWIDTH 562 0
DWIDTH 9 0
BBX 8 8 0 0
BITMAP
C3
C3
C3
63
67
6E
3C
38
ENDCHAR
STARTCHAR xi
ENCODING 958
SWIDTH 562 0
DWIDTH 9 0
BBX 8 16 0 -4
BITMAP
FF
FF
60
60
70
3F
7F
E0
C0
C0
E0
7E
3F
03
07
06
ENDCHAR
STARTCHAR omicron
ENCODING 959
SWIDTH 562 0
DWIDTH 9 0
BBX 8 7 0 0
BITMAP
3C
7E
E7
C3
E7
7E
3C
ENDCHAR
STARTCHAR pi
ENCODING 960
SWIDTH 562 0
DWIDTH 9 0
BBX 8 8 0 0
BITMAP
FF
FF
66
66
66
66
67
63
ENDCHAR
STARTCHAR rho
ENCODING 961
SWIDTH 562 0
DWIDTH 9 0
BBX 8 12 0 -4
BITMAP
3C
7E
E7
C3
C3
E7
7E
7C
60
70
30
30
ENDCHAR
STARTCHAR sigma1
ENCODING 962
SWIDTH 562 0
DWIDTH 9 0
BBX 8 11 0 -3
BITMAP
3F
7F
E0
C0
C0
E0
7C
3E
06
1E
1C
ENDCHAR
STARTCHAR sigma
ENCODING 963
SWIDTH 562 0
DWIDTH 9 0
BBX 8 8 0 0
BITMAP
3F
7F
EE
C6
C6
EE
7C
38
ENDCHAR
STARTCHAR tau
ENCODING 964
SWIDTH 562 0
DWIDTH 9 0
BBX 8 8 0 0
BITMAP
FF
FF
18
18
18
1C
0E
06
ENDCHAR
STARTCHAR upsilon
ENCODING 965
SWIDTH 562 0
DWIDTH 9 0
BBX 8 8 0 0
BITMAP
C3
C3
C3
C3
C7
CE
FC
78
ENDCHAR
STARTCHAR phi
ENCODING 966
SWIDTH 562 0
DWIDTH 9 0
BBX 8 11 0 -3
BITMAP
2C
6E
DF
DB
DB
FF
7E
3C
18
18
18
ENDCHAR
STARTCHAR chi
ENCODING 967
SWIDTH 562 0
DWIDTH 9 0
BBX 8 12 0 -4
BITMAP
C3
E3
77
3E
3C
18
18
3C
7C
EE
C7
C3
ENDCHAR
STARTCHAR psi
ENCODING 968
SWIDTH 562 0
DWIDTH 9 0
BBX 8 12 0 -4
BITMAP
DB
DB
DB
DB
DB
FF
7E
3C
18
18
18
18
ENDCHAR
STARTCHAR omega
ENCODING 969
SWIDTH 562 0
DWIDTH 9 0
BBX 8 8 0 0
BITMAP
66
E7
C3
DB
DB
DB
FF
7E
ENDCHAR
STARTCHAR iotadieresis
ENCODING 970
SWIDTH 562 0
DWIDTH 9 0
BBX 6 11 1 0
BITMAP
CC
CC
00
30
30
30
30
30
30
3C
1C
ENDCHAR
STARTCHAR upsilondieresis
ENCODING 971
SWIDTH 562 0
DWIDTH 9 0
BBX 8 11 0 0
BITMAP
66
66
00
C3
C3
C3
C3
C7
CE
FC
78
ENDCHAR
STARTCHAR omicrontonos
ENCODING 972
SWIDTH 562 0
DWIDTH 9 0
BBX 8 11 0 0
BITMAP
08
18
10
00
3C
7E
E7
C3
E7
7E
3C
ENDCHAR
STARTCHAR upsilontonos
ENCODING 973
SWIDTH 562 0
DWIDTH 9 0
BBX 8 12 0 0
BITMAP
08
18
10
00
C3
C3
C3
C3
C7
CE
FC
78
ENDCHAR
STARTCHAR omegatonos
ENCODING 974
SWIDTH 562 0
DWIDTH 9 0
BBX 8 12 0 0
BITMAP
08
18
10
00
66
E7
C3
DB
DB
DB
FF
7E
ENDCHAR
STARTCHAR uni03CF
ENCODING 975
SWIDTH 562 0
DWIDTH 9 0
BBX 8 13 0 -3
BITMAP
C3
C7
CE
DC
F8
F8
DC
CE
C7
C3
03
06
0C
ENDCHAR
STARTCHAR uni03D0
ENCODING 976
SWIDTH 562 0
DWIDTH 9 0
BBX 8 12 0 0
BITMAP
38
7C
EE
C6
CE
FC
FC
CE
C7
E7
7E
3C
ENDCHAR
STARTCHAR theta1
ENCODING 977
SWIDTH 562 0
DWIDTH 9 0
BBX 8 12 0 0
BITMAP
3C
7E
67
63
73
3F
1F
03
C3
E7
7E
3C
ENDCHAR
STARTCHAR Upsilon1
ENCODING 978
SWIDTH 562 0
DWIDTH 9 0
BBX 8 10 0 0
BITMAP
C3
FF
3D
18
18
18
18
18
18
18
ENDCHAR
STARTCHAR uni03D3
ENCODING 979
SWIDTH 562 0
DWIDTH 9 0
BBX 8 11 0 0
BITMAP
40
C0
B3
3F
1D
0C
0C
0C
0C
0C
0C
ENDCHAR
STARTCHAR uni03D4
ENCODING 980
SWIDTH 562 0
DWIDTH 9 0
BBX 8 12 0 0
BITMAP
66
66
00
C3
FF
3D
18
18
18
18
18
18
ENDCHAR
STARTCHAR phi1
ENCODING 981
SWIDTH 562 0
DWIDTH 9 0
BBX 8 14 0 -3
BITMAP
18
18
18
3C
7E
FF
DB
DB
FF
7E
3C
18
18
18
ENDCHAR
STARTCHAR omega1
ENCODING 982
SWIDTH 562 0
DWIDTH 9 0
BBX 8 8 0 0
BITMAP
FF
FF
C3
DB
DB
DB
FF
7E
ENDCHAR
STARTCHAR uni03D7
ENCODING 983
SWIDTH 562 0
DWIDTH 9 0
BBX 8 11 0 -3
BITMAP
C3
E7
6E
7E
7E
76
E7
C3
03
07
06
ENDCHAR
STARTCHAR uni03D8
ENCODING 984
SWIDTH 562 0
DWIDTH 9 0
BBX 8 12 0 -2
BITMAP
3C
7E
E7
C3
C3
C3
C3
E7
7E
3C
18
18
ENDCHAR
STARTCHAR uni03D9
ENCODING 985
SWIDTH 562 0
DWIDTH 9 0
BBX 8 10 0 -2
BITMAP
3C
7E
E7
C3
C3
E7
7E
3C
18
18
ENDCHAR
STARTCHAR uni03DA
ENCODING 986
SWIDTH 562 0
DWIDTH 9 0
BBX 8 13 0 -3
BITMAP
3F
7F
E0
C0
C0
C0
C0
E0
7C
3C
0C
0C
0C
ENDCHAR
STARTCHAR uni03DB
ENCODING 987
SWIDTH 562 0
DWIDTH 9 0
BBX 8 11 0 -3
BITMAP
3F
7F
E0
C0
C0
E0
78
3C
0C
1C
18
ENDCHAR
STARTCHAR uni03DC
ENCODING 988
SWIDTH 562 0
DWIDTH 9 0
BBX 8 10 0 0
BITMAP
FF
FF
C0
C0
FF
FF
C0
C0
C0
C0
ENDCHAR
STARTCHAR uni03DD
ENCODING 989
SWIDTH 562 0
DWIDTH 9 0
BBX 8 10 0 -2
BITMAP
3F
7F
E0
C0
FE
FE
C0
C0
C0
C0
ENDCHAR
STARTCHAR uni3DE
ENCODING 990
SWIDTH 562 0
DWIDTH 9 0
BBX 8 10 0 0
BITMAP
30
30
60
60
FF
FF
06
06
0C
0C
ENDCHAR
STARTCHAR uni3DF
ENCODING 991
SWIDTH 562 0
DWIDTH 9 0
BBX 8 10 0 0
BITMAP
C0
E0
60
67
7F
FE
E6
06
07
03
ENDCHAR
STARTCHAR uni03E0
ENCODING 992
SWIDTH 562 0
DWIDTH 9 0
BBX 8 10 0 0
BITMAP
C0
E0
70
38
7C
EE
DF
3B
73
63
ENDCHAR
STARTCHAR uni03E1
ENCODING 993
SWIDTH 562 0
DWIDTH 9 0
BBX 8 12 0 -2
BITMAP
F0
F8
1C
1E
3E
76
6F
1F
3B
33
03
03
ENDCHAR
STARTCHAR uni03E2
ENCODING 994
SWIDTH 562 0
DWIDTH 9 0
BBX 8 13 0 -3
BITMAP
66
66
C3
C3
DB
DB
DB
DB
7E
7E
06
0C
18
ENDCHAR
STARTCHAR uni03E3
ENCODING 995
SWIDTH 562 0
DWIDTH 9 0
BBX 8 11 0 -3
BITMAP
66
66
C3
DB
DB
DB
7E
7E
06
0C
18
ENDCHAR
STARTCHAR uni03E4
ENCODING 996
SWIDTH 562 0
DWIDTH 9 0
BBX 8 10 0 0
BITMAP
33
73
E3
C3
C3
C7
7F
7B
03
03
ENDCHAR
STARTCHAR uni03E5
ENCODING 997
SWIDTH 562 0
DWIDTH 9 0
BBX 8 8 0 0
BITMAP
63
63
C3
C7
FF
7B
03
03
ENDCHAR
STARTCHAR uni03E6
ENCODING 998
SWIDTH 562 0
DWIDTH 9 0
BBX 8 12 0 -2
BITMAP
C0
C0
C0
DE
FF
E3
C3
C3
C3
C3
06
0C
ENDCHAR
STARTCHAR uni03E7
ENCODING 999
SWIDTH 562 0
DWIDTH 9 0
BBX 8 9 0 0
BITMAP
03
7F
FE
CF
FF
7B
03
FF
FE
ENDCHAR
STARTCHAR uni03E8
ENCODING 1000
SWIDTH 562 0
DWIDTH 9 0
BBX 8 12 0 0
BITMAP
3C
7E
E7
C3
03
07
1E
7C
F0
C3
FF
3C
ENDCHAR
STARTCHAR uni03E9
ENCODING 1001
SWIDTH 562 0
DWIDTH 9 0
BBX 8 12 0 -4
BITMAP
3C
7E
E7
C3
03
07
1E
7C
F0
C3
FF
3C
ENDCHAR
STARTCHAR uni03EA
ENCODING 1002
SWIDTH 562 0
DWIDTH 9 0
BBX 8 10 0 0
BITMAP
66
FF
FF
18
3C
7E
66
E7
FF
FF
ENDCHAR
STARTCHAR uni03EB
ENCODING 1003
SWIDTH 562 0
DWIDTH 9 0
BBX 8 8 0 0
BITMAP
7E
FF
DB
3C
7E
E7
FF
FF
ENDCHAR
STARTCHAR uni03EC
ENCODING 1004
SWIDTH 562 0
DWIDTH 9 0
BBX 8 10 0 0
BITMAP
3F
7F
E0
FC
FE
E7
C3
E7
7E
3C
ENDCHAR
STARTCHAR uni03ED
ENCODING 1005
SWIDTH 562 0
DWIDTH 9 0
BBX 8 9 0 0
BITMAP
3F
7F
E0
FE
FF
C3
E3
7F
3E
ENDCHAR
STARTCHAR uni03EE
ENCODING 1006
SWIDTH 562 0
DWIDTH 9 0
BBX 8 10 0 0
BITMAP
18
FF
FF
DB
18
18
18
18
18
18
ENDCHAR
STARTCHAR uni03EF
ENCODING 1007
SWIDTH 562 0
DWIDTH 9 0
BBX 8 8 0 0
BITMAP
18
FF
FF
DB
18
18
18
18
ENDCHAR
STARTCHAR uni03F0
ENCODING 1008
SWIDTH 562 0
DWIDTH 9 0
BBX 8 8 0 0
BITMAP
C3
E7
6E
7E
7E
76
E7
C3
ENDCHAR
STARTCHAR uni03F1
ENCODING 1009
SWIDTH 562 0
DWIDTH 9 0
BBX 8 12 0 -4
BITMAP
3C
7E
E7
C3
C7
CE
FC
F8
C0
C0
FF
7F
ENDCHAR
STARTCHAR uni03F2
ENCODING 1010
SWIDTH 562 0
DWIDTH 9 0
BBX 8 8 0 0
BITMAP
3E
7F
E1
C0
C0
E1
7F
3E
ENDCHAR
STARTCHAR uni03F3
ENCODING 1011
SWIDTH 562 0
DWIDTH 9 0
BBX 4 16 1 -4
BITMAP
30
30
00
00
30
30
30
30
30
30
30
30
30
70
E0
C0
ENDCHAR
STARTCHAR uni03F4
ENCODING 1012
SWIDTH 562 0
DWIDTH 9 0
BBX 8 10 0 0
BITMAP
3C
7E
E7
C3
FF
FF
C3
E7
7E
3C
ENDCHAR
STARTCHAR uni03F5
ENCODING 1013
SWIDTH 562 0
DWIDTH 9 0
BBX 8 8 0 0
BITMAP
7F
FF
C0
FE
FE
C0
FF
7F
ENDCHAR
STARTCHAR uni03F6
ENCODING 1014
SWIDTH 562 0
DWIDTH 9 0
BBX 8 8 0 0
BITMAP
FE
FF
03
7F
7F
03
FF
FE
ENDCHAR
STARTCHAR uni03F7
ENCODING 1015
SWIDTH 562 0
DWIDTH 9 0
BBX 8 10 0 0
BITMAP
C0
C0
FE
FF
C3
C3
FF
FE
C0
C0
ENDCHAR
STARTCHAR uni03F8
ENCODING 1016
SWIDTH 562 0
DWIDTH 9 0
BBX 8 12 0 -2
BITMAP
C0
C0
FC
FE
E7
C3
C3
E7
FE
FC
C0
C0
ENDCHAR
STARTCHAR uni03F9
ENCODING 1017
SWIDTH 562 0
DWIDTH 9 0
BBX 8 10 0 0
BITMAP
3C
7E
E7
C3
C0
C0
C3
E7
7E
3C
ENDCHAR
STARTCHAR uni03FA
ENCODING 1018
SWIDTH 562 0
DWIDTH 9 0
BBX 8 10 0 0
BITMAP
C3
E7
FF
DB
C3
C3
C3
C3
C3
C3
ENDCHAR
STARTCHAR uni03FB
ENCODING 1019
SWIDTH 562 0
DWIDTH 9 0
BBX 8 11 0 -3
BITMAP
C3
E7
FF
DB
C3
C3
C3
C3
C0
C0
C0
ENDCHAR
STARTCHAR uni03FC
ENCODING 1020
SWIDTH 562 0
DWIDTH 9 0
BBX 8 12 0 -4
BITMAP
1C
3E
77
63
63
77
7E
7C
60
F8
F8
60
ENDCHAR
STARTCHAR uni03FD
ENCODING 1021
SWIDTH 562 0
DWIDTH 9 0
BBX 8 10 0 0
BITMAP
3C
7E
E7
C3
03
03
C3
E7
7E
3C
ENDCHAR
STARTCHAR uni03FE
ENCODING 1022
SWIDTH 562 0
DWIDTH 9 0
BBX 8 10 0 0
BITMAP
3C
7E
E7
C3
D8
D8
C3
E7
7E
3C
ENDCHAR
STARTCHAR uni03FF
ENCODING 1023
SWIDTH 562 0
DWIDTH 9 0
BBX 8 10 0 0
BITMAP
3C
7E
E7
C3
1B
1B
C3
E7
7E
3C
ENDCHAR
STARTCHAR uni0400
ENCODING 1024
SWIDTH 562 0
DWIDTH 9 0
BBX 8 12 0 0
BITMAP
70
38
1C
00
FF
FF
C0
FF
FF
C0
FF
FF
ENDCHAR
STARTCHAR afii10023
ENCODING 1025
SWIDTH 562 0
DWIDTH 9 0
BBX 8 12 0 0
BITMAP
66
66
00
00
FF
FF
C0
FF
FF
C0
FF
FF
ENDCHAR
STARTCHAR afii10051
ENCODING 1026
SWIDTH 562 0
DWIDTH 9 0
BBX 8 15 0 -3
BITMAP
FC
FC
30
30
3E
3F
33
33
33
33
33
33
03
07
06
ENDCHAR
STARTCHAR afii10052
ENCODING 1027
SWIDTH 562 0
DWIDTH 9 0
BBX 8 12 0 0
BITMAP
0E
1C
38
00
FF
FF
C0
C0
C0
C0
C0
C0
ENDCHAR
STARTCHAR afii10053
ENCODING 1028
SWIDTH 562 0
DWIDTH 9 0
BBX 8 12 0 0
BITMAP
3C
FF
C3
C0
C0
FC
FC
C0
C0
C3
FF
3C
ENDCHAR
STARTCHAR afii10054
ENCODING 1029
SWIDTH 562 0
DWIDTH 9 0
BBX 8 12 0 0
BITMAP
3C
FF
C3
C0
C0
FE
7F
03
03
C3
FF
3C
ENDCHAR
STARTCHAR afii10055
ENCODING 1030
SWIDTH 562 0
DWIDTH 9 0
BBX 8 12 0 0
BITMAP
FF
7E
18
18
18
18
18
18
18
18
7E
FF
ENDCHAR
STARTCHAR afii10056
ENCODING 1031
SWIDTH 562 0
DWIDTH 9 0
BBX 8 12 0 0
BITMAP
66
66
00
00
FF
7E
18
18
18
18
7E
FF
ENDCHAR
STARTCHAR afii10057
ENCODING 1032
SWIDTH 562 0
DWIDTH 9 0
BBX 8 12 0 0
BITMAP
FF
FF
03
03
03
03
03
03
C3
C3
FF
3C
ENDCHAR
STARTCHAR afii10058
ENCODING 1033
SWIDTH 562 0
DWIDTH 9 0
BBX 8 12 0 0
BITMAP
7C
7C
6C
6C
6C
6C
6E
6F
6D
6D
EF
CE
ENDCHAR
STARTCHAR afii10059
ENCODING 1034
SWIDTH 562 0
DWIDTH 9 0
BBX 8 12 0 0
BITMAP
D8
D8
D8
D8
D8
FE
FF
DB
DB
DB
DF
DE
ENDCHAR
STARTCHAR afii10060
ENCODING 1035
SWIDTH 562 0
DWIDTH 9 0
BBX 8 12 0 0
BITMAP
FC
FC
30
30
30
3C
3E
37
33
33
33
33
ENDCHAR
STARTCHAR afii10061
ENCODING 1036
SWIDTH 562 0
DWIDTH 9 0
BBX 8 12 0 0
BITMAP
0E
1C
38
00
C3
C7
CE
FC
FC
CE
C7
C3
ENDCHAR
STARTCHAR uni040D
ENCODING 1037
SWIDTH 562 0
DWIDTH 9 0
BBX 8 12 0 0
BITMAP
70
38
1C
00
C3
C7
CF
DF
FB
F3
E3
C3
ENDCHAR
STARTCHAR afii10062
ENCODING 1038
SWIDTH 562 0
DWIDTH 9 0
BBX 8 16 0 -4
BITMAP
66
7E
3C
00
C3
C3
66
66
3C
3C
18
18
30
70
E0
C0
ENDCHAR
STARTCHAR afii10145
ENCODING 1039
SWIDTH 562 0
DWIDTH 9 0
BBX 8 12 0 0
BITMAP
C3
C3
C3
C3
C3
C3
C3
C3
FF
FF
18
18
ENDCHAR
STARTCHAR afii10017
ENCODING 1040
SWIDTH 562 0
DWIDTH 9 0
BBX 8 12 0 0
BITMAP
3C
3C
66
66
C3
FF
FF
C3
C3
C3
C3
C3
ENDCHAR
STARTCHAR afii10018
ENCODING 1041
SWIDTH 562 0
DWIDTH 9 0
BBX 8 12 0 0
BITMAP
FF
FF
C0
C0
FC
FE
C7
C3
C3
C7
FE
FC
ENDCHAR
STARTCHAR afii10019
ENCODING 1042
SWIDTH 562 0
DWIDTH 9 0
BBX 8 12 0 0
BITMAP
F8
FE
C7
C3
C7
FE
FE
C7
C3
C7
FE
F8
ENDCHAR
STARTCHAR afii10020
ENCODING 1043
SWIDTH 562 0
DWIDTH 9 0
BBX 8 12 0 0
BITMAP
FF
FF
C0
C0
C0
C0
C0
C0
C0
C0
C0
C0
ENDCHAR
STARTCHAR afii10021
ENCODING 1044
SWIDTH 562 0
DWIDTH 9 0
BBX 8 14 0 -2
BITMAP
7E
7E
66
66
66
66
66
66
66
66
FF
FF
C3
C3
ENDCHAR
STARTCHAR afii10022
ENCODING 1045
SWIDTH 562 0
DWIDTH 9 0
BBX 8 12 0 0
BITMAP
FF
FF
C0
C0
C0
FF
FF
C0
C0
C0
FF
FF
ENDCHAR
STARTCHAR afii10024
ENCODING 1046
SWIDTH 562 0
DWIDTH 9 0
BBX 8 12 0 0
BITMAP
DB
DB
7E
7E
7E
3C
3C
7E
7E
7E
DB
DB
ENDCHAR
STARTCHAR afii10025
ENCODING 1047
SWIDTH 562 0
DWIDTH 9 0
BBX 8 12 0 0
BITMAP
7E
7E
C3
C3
06
0E
0E
06
C3
C3
7E
7E
ENDCHAR
STARTCHAR afii10026
ENCODING 1048
SWIDTH 562 0
DWIDTH 9 0
BBX 8 12 0 0
BITMAP
C3
C7
C7
CF
CF
DB
DB
F3
F3
E3
E3
C3
ENDCHAR
STARTCHAR afii10027
ENCODING 1049
SWIDTH 562 0
DWIDTH 9 0
BBX 8 12 0 0
BITMAP
66
7E
3C
C3
C7
CF
DF
FF
FB
F3
E3
C3
ENDCHAR
STARTCHAR afii10028
ENCODING 1050
SWIDTH 562 0
DWIDTH 9 0
BBX 8 12 0 0
BITMAP
C7
CF
CC
D8
D8
F0
F0
D8
D8
CC
CF
C7
ENDCHAR
STARTCHAR afii10029
ENCODING 1051
SWIDTH 562 0
DWIDTH 9 0
BBX 8 12 0 0
BITMAP
3F
3F
33
33
33
33
33
33
33
63
E3
C3
ENDCHAR
STARTCHAR afii10030
ENCODING 1052
SWIDTH 562 0
DWIDTH 9 0
BBX 8 12 0 0
BITMAP
C3
E7
FF
DB
DB
DB
C3
C3
C3
C3
C3
C3
ENDCHAR
STARTCHAR afii10031
ENCODING 1053
SWIDTH 562 0
DWIDTH 9 0
BBX 8 12 0 0
BITMAP
C3
C3
C3
C3
FF
FF
C3
C3
C3
C3
C3
C3
ENDCHAR
STARTCHAR afii10032
ENCODING 1054
SWIDTH 562 0
DWIDTH 9 0
BBX 8 12 0 0
BITMAP
7E
7E
C3
C3
C3
C3
C3
C3
C3
C3
7E
7E
ENDCHAR
STARTCHAR afii10033
ENCODING 1055
SWIDTH 562 0
DWIDTH 9 0
BBX 8 12 0 0
BITMAP
FF
FF
C3
C3
C3
C3
C3
C3
C3
C3
C3
C3
ENDCHAR
STARTCHAR afii10034
ENCODING 1056
SWIDTH 562 0
DWIDTH 9 0
BBX 8 12 0 0
BITMAP
FC
FF
C3
C3
CF
FC
F0
C0
C0
C0
C0
C0
ENDCHAR
STARTCHAR afii10035
ENCODING 1057
SWIDTH 562 0
DWIDTH 9 0
BBX 8 12 0 0
BITMAP
7C
7F
C3
C0
C0
C0
C0
C0
C0
C3
7F
7C
ENDCHAR
STARTCHAR afii10036
ENCODING 1058
SWIDTH 562 0
DWIDTH 9 0
BBX 8 12 0 0
BITMAP
FF
FF
99
18
18
18
18
18
18
18
18
18
ENDCHAR
STARTCHAR afii10037
ENCODING 1059
SWIDTH 562 0
DWIDTH 9 0
BBX 8 12 0 0
BITMAP
C3
C3
66
66
3C
3C
3C
18
18
30
F0
E0
ENDCHAR
STARTCHAR afii10038
ENCODING 1060
SWIDTH 562 0
DWIDTH 9 0
BBX 8 12 0 0
BITMAP
18
18
3C
7E
DB
DB
DB
7E
3C
18
18
18
ENDCHAR
STARTCHAR afii10039
ENCODING 1061
SWIDTH 562 0
DWIDTH 9 0
BBX 8 12 0 0
BITMAP
C3
C3
E7
7E
3C
18
18
3C
7E
E7
C3
C3
ENDCHAR
STARTCHAR afii10040
ENCODING 1062
SWIDTH 562 0
DWIDTH 9 0
BBX 8 14 0 -2
BITMAP
C6
C6
C6
C6
C6
C6
C6
C6
C6
C6
FF
FF
03
03
ENDCHAR
STARTCHAR afii10041
ENCODING 1063
SWIDTH 562 0
DWIDTH 9 0
BBX 8 12 0 0
BITMAP
C3
C3
C3
C3
C3
FF
7F
03
03
03
03
03
ENDCHAR
STARTCHAR afii10042
ENCODING 1064
SWIDTH 562 0
DWIDTH 9 0
BBX 8 12 0 0
BITMAP
DB
DB
DB
DB
DB
DB
DB
DB
DB
DB
FF
FF
ENDCHAR
STARTCHAR afii10043
ENCODING 1065
SWIDTH 562 0
DWIDTH 9 0
BBX 8 14 0 -2
BITMAP
DB
DB
DB
DB
DB
DB
DB
DB
DB
DB
FF
FF
03
03
ENDCHAR
STARTCHAR afii10044
ENCODING 1066
SWIDTH 562 0
DWIDTH 9 0
BBX 8 12 0 0
BITMAP
F8
F8
18
18
18
18
1E
1F
1B
1B
1F
1E
ENDCHAR
STARTCHAR afii10045
ENCODING 1067
SWIDTH 562 0
DWIDTH 9 0
BBX 8 12 0 0
BITMAP
C3
C3
C3
C3
C3
C3
F3
FB
DB
DB
FB
F3
ENDCHAR
STARTCHAR afii10046
ENCODING 1068
SWIDTH 562 0
DWIDTH 9 0
BBX 8 12 0 0
BITMAP
C0
C0
C0
C0
C0
FC
FE
C7
C3
C7
FE
FC
ENDCHAR
STARTCHAR afii10047
ENCODING 1069
SWIDTH 562 0
DWIDTH 9 0
BBX 8 12 0 0
BITMAP
3C
7E
E7
C3
03
0F
0F
03
C3
E7
7E
3C
ENDCHAR
STARTCHAR afii10048
ENCODING 1070
SWIDTH 562 0
DWIDTH 9 0
BBX 8 12 0 0
BITMAP
CE
DF
DB
DB
DB
FB
FB
DB
DB
DB
DF
CE
ENDCHAR
STARTCHAR afii10049
ENCODING 1071
SWIDTH 562 0
DWIDTH 9 0
BBX 8 12 0 0
BITMAP
3F
7F
E3
C3
C3
E3
7F
3F
63
63
C3
C3
ENDCHAR
STARTCHAR afii10065
ENCODING 1072
SWIDTH 562 0
DWIDTH 9 0
BBX 8 8 0 0
BITMAP
7E
FE
03
7F
FF
C3
FF
7F
ENDCHAR
STARTCHAR afii10066
ENCODING 1073
SWIDTH 562 0
DWIDTH 9 0
BBX 8 12 0 0
BITMAP
3F
FF
C0
C0
C0
FC
FF
C3
C3
C3
FF
3C
ENDCHAR
STARTCHAR afii10067
ENCODING 1074
SWIDTH 562 0
DWIDTH 9 0
BBX 8 8 0 0
BITMAP
FC
FF
C3
FF
FF
C3
FF
FC
ENDCHAR
STARTCHAR afii10068
ENCODING 1075
SWIDTH 562 0
DWIDTH 9 0
BBX 8 8 0 0
BITMAP
FF
FF
C0
C0
C0
C0
C0
C0
ENDCHAR
STARTCHAR afii10069
ENCODING 1076
SWIDTH 562 0
DWIDTH 9 0
BBX 8 10 0 -2
BITMAP
7E
7E
66
66
66
66
FF
FF
C3
C3
ENDCHAR
STARTCHAR afii10070
ENCODING 1077
SWIDTH 562 0
DWIDTH 9 0
BBX 8 8 0 0
BITMAP
7E
FF
C3
FF
FE
C0
FF
7E
ENDCHAR
STARTCHAR afii10072
ENCODING 1078
SWIDTH 562 0
DWIDTH 9 0
BBX 8 8 0 0
BITMAP
DB
DB
7E
7E
7E
7E
DB
DB
ENDCHAR
STARTCHAR afii10073
ENCODING 1079
SWIDTH 562 0
DWIDTH 9 0
BBX 8 8 0 0
BITMAP
7E
FF
C3
0E
0E
C3
FF
7E
ENDCHAR
STARTCHAR afii10074
ENCODING 1080
SWIDTH 562 0
DWIDTH 9 0
BBX 8 8 0 0
BITMAP
C3
C7
CF
DF
FB
F3
E3
C3
ENDCHAR
STARTCHAR afii10075
ENCODING 1081
SWIDTH 562 0
DWIDTH 9 0
BBX 8 12 0 0
BITMAP
66
7E
3C
00
C3
C7
CF
DF
FB
F3
E3
C3
ENDCHAR
STARTCHAR afii10076
ENCODING 1082
SWIDTH 562 0
DWIDTH 9 0
BBX 8 8 0 0
BITMAP
C7
CF
DC
F8
F8
DC
CF
C7
ENDCHAR
STARTCHAR afii10077
ENCODING 1083
SWIDTH 562 0
DWIDTH 9 0
BBX 8 8 0 0
BITMAP
3F
3F
33
33
33
73
E3
C3
ENDCHAR
STARTCHAR afii10078
ENCODING 1084
SWIDTH 562 0
DWIDTH 9 0
BBX 8 8 0 0
BITMAP
C3
E7
FF
DB
C3
C3
C3
C3
ENDCHAR
STARTCHAR afii10079
ENCODING 1085
SWIDTH 562 0
DWIDTH 9 0
BBX 8 8 0 0
BITMAP
C3
C3
C3
FF
FF
C3
C3
C3
ENDCHAR
STARTCHAR afii10080
ENCODING 1086
SWIDTH 562 0
DWIDTH 9 0
BBX 8 8 0 0
BITMAP
7E
7E
C3
C3
C3
C3
7E
7E
ENDCHAR
STARTCHAR afii10081
ENCODING 1087
SWIDTH 562 0
DWIDTH 9 0
BBX 8 8 0 0
BITMAP
FF
FF
C3
C3
C3
C3
C3
C3
ENDCHAR
STARTCHAR afii10082
ENCODING 1088
SWIDTH 562 0
DWIDTH 9 0
BBX 8 12 0 -4
BITMAP
FC
FF
C3
C3
C3
C3
FF
FC
C0
C0
C0
C0
ENDCHAR
STARTCHAR afii10083
ENCODING 1089
SWIDTH 562 0
DWIDTH 9 0
BBX 8 8 0 0
BITMAP
3C
FF
C3
C0
C0
C3
FF
3C
ENDCHAR
STARTCHAR afii10084
ENCODING 1090
SWIDTH 562 0
DWIDTH 9 0
BBX 8 8 0 0
BITMAP
FF
FF
18
18
18
18
18
18
ENDCHAR
STARTCHAR afii10085
ENCODING 1091
SWIDTH 562 0
DWIDTH 9 0
BBX 8 12 0 -4
BITMAP
C3
C3
C3
C3
66
7E
3C
18
38
70
E0
C0
ENDCHAR
STARTCHAR afii10086
ENCODING 1092
SWIDTH 562 0
DWIDTH 9 0
BBX 8 12 0 -2
BITMAP
18
18
3C
FF
DB
DB
DB
DB
FF
3C
18
18
ENDCHAR
STARTCHAR afii10087
ENCODING 1093
SWIDTH 562 0
DWIDTH 9 0
BBX 8 8 0 0
BITMAP
C3
E7
3C
18
18
3C
E7
C3
ENDCHAR
STARTCHAR afii10088
ENCODING 1094
SWIDTH 562 0
DWIDTH 9 0
BBX 8 10 0 -2
BITMAP
C6
C6
C6
C6
C6
C6
FE
FF
03
03
ENDCHAR
STARTCHAR afii10089
ENCODING 1095
SWIDTH 562 0
DWIDTH 9 0
BBX 8 8 0 0
BITMAP
C3
C3
C3
FF
7F
03
03
03
ENDCHAR
STARTCHAR afii10090
ENCODING 1096
SWIDTH 562 0
DWIDTH 9 0
BBX 8 8 0 0
BITMAP
DB
DB
DB
DB
DB
DB
FF
FF
ENDCHAR
STARTCHAR afii10091
ENCODING 1097
SWIDTH 562 0
DWIDTH 9 0
BBX 8 10 0 -2
BITMAP
DB
DB
DB
DB
DB
DB
FF
FF
03
03
ENDCHAR
STARTCHAR afii10092
ENCODING 1098
SWIDTH 562 0
DWIDTH 9 0
BBX 8 8 0 0
BITMAP
F8
F8
18
1E
1F
1B
1F
1E
ENDCHAR
STARTCHAR afii10093
ENCODING 1099
SWIDTH 562 0
DWIDTH 9 0
BBX 8 8 0 0
BITMAP
C3
C3
C3
F3
FB
DB
FB
F3
ENDCHAR
STARTCHAR afii10094
ENCODING 1100
SWIDTH 562 0
DWIDTH 9 0
BBX 5 8 2 0
BITMAP
C0
C0
C0
F0
F8
D8
F8
F0
ENDCHAR
STARTCHAR afii10095
ENCODING 1101
SWIDTH 562 0
DWIDTH 9 0
BBX 8 8 0 0
BITMAP
FE
FF
03
0F
0F
03
FF
FE
ENDCHAR
STARTCHAR afii10096
ENCODING 1102
SWIDTH 562 0
DWIDTH 9 0
BBX 8 8 0 0
BITMAP
CE
DF
DB
FB
FB
DB
DF
CE
ENDCHAR
STARTCHAR afii10097
ENCODING 1103
SWIDTH 562 0
DWIDTH 9 0
BBX 8 8 0 0
BITMAP
7F
FF
C3
FF
7F
63
E3
C3
ENDCHAR
STARTCHAR uni0450
ENCODING 1104
SWIDTH 562 0
DWIDTH 9 0
BBX 8 12 0 0
BITMAP
70
38
1C
00
3C
FF
C3
FF
FF
C0
FF
3F
ENDCHAR
STARTCHAR afii10071
ENCODING 1105
SWIDTH 562 0
DWIDTH 9 0
BBX 8 12 0 0
BITMAP
66
66
00
00
3C
FF
C3
FF
FF
C0
FF
3F
ENDCHAR
STARTCHAR afii10099
ENCODING 1106
SWIDTH 562 0
DWIDTH 9 0
BBX 8 15 0 -3
BITMAP
60
60
FC
FC
60
60
7E
7F
63
63
63
63
06
0E
0C
ENDCHAR
STARTCHAR afii10100
ENCODING 1107
SWIDTH 562 0
DWIDTH 9 0
BBX 8 12 0 0
BITMAP
0E
1C
38
00
FF
FF
C0
C0
C0
C0
C0
C0
ENDCHAR
STARTCHAR afii10101
ENCODING 1108
SWIDTH 562 0
DWIDTH 9 0
BBX 8 8 0 0
BITMAP
3C
7F
E3
F8
F8
E3
7F
3C
ENDCHAR
STARTCHAR afii10102
ENCODING 1109
SWIDTH 562 0
DWIDTH 9 0
BBX 8 8 0 0
BITMAP
3F
FF
C0
FC
3F
03
FF
FC
ENDCHAR
STARTCHAR afii10103
ENCODING 1110
SWIDTH 562 0
DWIDTH 9 0
BBX 4 12 2 0
BITMAP
60
60
00
00
F0
F0
60
60
60
60
F0
F0
ENDCHAR
STARTCHAR afii10104
ENCODING 1111
SWIDTH 562 0
DWIDTH 9 0
BBX 6 12 1 0
BITMAP
CC
CC
00
00
78
78
30
30
30
30
78
78
ENDCHAR
STARTCHAR afii10105
ENCODING 1112
SWIDTH 562 0
DWIDTH 9 0
BBX 4 16 2 -4
BITMAP
60
60
00
00
F0
F0
30
30
30
30
30
30
30
70
E0
C0
ENDCHAR
STARTCHAR afii10106
ENCODING 1113
SWIDTH 562 0
DWIDTH 9 0
BBX 8 8 0 0
BITMAP
7C
7C
6C
6E
6F
6F
EF
CE
ENDCHAR
STARTCHAR afii10107
ENCODING 1114
SWIDTH 562 0
DWIDTH 9 0
BBX 8 8 0 0
BITMAP
D8
D8
D8
FE
FF
DB
DF
DE
ENDCHAR
STARTCHAR afii10108
ENCODING 1115
SWIDTH 562 0
DWIDTH 9 0
BBX 8 12 0 -2
BITMAP
60
60
F8
F8
60
6E
7F
73
63
63
07
06
ENDCHAR
STARTCHAR afii10109
ENCODING 1116
SWIDTH 562 0
DWIDTH 9 0
BBX 8 10 0 0
BITMAP
0E
1C
38
00
C3
C7
FE
FE
C7
C3
ENDCHAR
STARTCHAR uni045D
ENCODING 1117
SWIDTH 562 0
DWIDTH 9 0
BBX 8 10 0 0
BITMAP
70
38
1C
00
C7
CF
DF
FB
F3
E3
ENDCHAR
STARTCHAR afii10110
ENCODING 1118
SWIDTH 562 0
DWIDTH 9 0
BBX 8 16 0 -4
BITMAP
66
7E
3C
00
C3
C3
66
66
3C
3C
18
18
18
38
70
60
ENDCHAR
STARTCHAR afii10193
ENCODING 1119
SWIDTH 562 0
DWIDTH 9 0
BBX 8 10 0 -2
BITMAP
C3
C3
C3
C3
C3
C3
FF
FF
18
18
ENDCHAR
STARTCHAR uni0460
ENCODING 1120
SWIDTH 562 0
DWIDTH 9 0
BBX 8 12 0 0
BITMAP
66
66
E7
C3
C3
C3
C3
DB
DB
FF
7E
3C
ENDCHAR
STARTCHAR uni461
ENCODING 1121
SWIDTH 562 0
DWIDTH 9 0
BBX 8 7 0 0
BITMAP
C3
DB
DB
FF
7E
7E
66
ENDCHAR
STARTCHAR afii10146
ENCODING 1122
SWIDTH 562 0
DWIDTH 9 0
BBX 8 12 0 0
BITMAP
60
FC
FC
60
7C
7F
63
63
63
63
7F
7C
ENDCHAR
STARTCHAR afii10194
ENCODING 1123
SWIDTH 562 0
DWIDTH 9 0
BBX 8 9 0 0
BITMAP
60
F8
F8
60
7C
7F
63
7F
7C
ENDCHAR
STARTCHAR uni0464
ENCODING 1124
SWIDTH 562 0
DWIDTH 9 0
BBX 8 12 0 0
BITMAP
C7
CF
DC
D8
D8
FF
FF
D8
D8
DC
CF
C7
ENDCHAR
STARTCHAR uni0465
ENCODING 1125
SWIDTH 562 0
DWIDTH 9 0
BBX 8 8 0 0
BITMAP
C7
DF
D8
FF
FF
D8
DF
C7
ENDCHAR
STARTCHAR uni0466
ENCODING 1126
SWIDTH 562 0
DWIDTH 9 0
BBX 8 12 0 0
BITMAP
3C
7E
E7
C3
C3
FF
FF
DB
DB
DB
DB
DB
ENDCHAR
STARTCHAR uni0467
ENCODING 1127
SWIDTH 562 0
DWIDTH 9 0
BBX 8 8 0 0
BITMAP
3C
7E
E7
C3
FF
FF
DB
DB
ENDCHAR
STARTCHAR uni0468
ENCODING 1128
SWIDTH 562 0
DWIDTH 9 0
BBX 8 12 0 0
BITMAP
8C
9E
B3
A1
A1
FF
AD
AD
AD
AD
AD
AD
ENDCHAR
STARTCHAR uni0469
ENCODING 1129
SWIDTH 562 0
DWIDTH 9 0
BBX 8 8 0 0
BITMAP
8C
9E
B3
A1
FF
AD
AD
AD
ENDCHAR
STARTCHAR uni046A
ENCODING 1130
SWIDTH 562 0
DWIDTH 9 0
BBX 8 12 0 0
BITMAP
FF
FF
C3
E7
7E
7E
DB
DB
DB
DB
DB
DB
ENDCHAR
STARTCHAR uni046B
ENCODING 1131
SWIDTH 562 0
DWIDTH 9 0
BBX 8 10 0 0
BITMAP
FF
FF
C3
E7
7E
FF
DB
DB
DB
DB
ENDCHAR
STARTCHAR uni046C
ENCODING 1132
SWIDTH 562 0
DWIDTH 9 0
BBX 8 12 0 0
BITMAP
BF
A1
A1
B3
FE
BF
AD
AD
AD
AD
AD
AD
ENDCHAR
STARTCHAR uni046D
ENCODING 1133
SWIDTH 562 0
DWIDTH 9 0
BBX 8 8 0 0
BITMAP
BF
A1
B3
FE
BF
AD
AD
AD
ENDCHAR
STARTCHAR uni046E
ENCODING 1134
SWIDTH 562 0
DWIDTH 9 0
BBX 8 16 0 -4
BITMAP
7E
18
7E
FF
C3
07
1E
1E
07
03
07
7E
FC
C0
FF
7F
ENDCHAR
STARTCHAR uni046F
ENCODING 1135
SWIDTH 562 0
DWIDTH 9 0
BBX 8 14 0 -4
BITMAP
7E
18
7E
FF
C3
0F
0F
03
07
7E
FC
C0
FF
7F
ENDCHAR
STARTCHAR uni0470
ENCODING 1136
SWIDTH 562 0
DWIDTH 9 0
BBX 8 12 0 0
BITMAP
DB
DB
DB
DB
7E
7E
3C
3C
18
18
18
18
ENDCHAR
STARTCHAR uni0471
ENCODING 1137
SWIDTH 562 0
DWIDTH 9 0
BBX 8 10 0 -4
BITMAP
DB
DB
DB
7E
7E
3C
3C
18
18
18
ENDCHAR
STARTCHAR afii10147
ENCODING 1138
SWIDTH 562 0
DWIDTH 9 0
BBX 8 12 0 0
BITMAP
7E
7E
C3
C3
CF
FF
F3
C3
C3
C3
7E
7E
ENDCHAR
STARTCHAR afii10195
ENCODING 1139
SWIDTH 562 0
DWIDTH 9 0
BBX 8 9 0 0
BITMAP
7E
7E
C3
CF
FF
F3
C3
7E
7E
ENDCHAR
STARTCHAR afii10148
ENCODING 1140
SWIDTH 562 0
DWIDTH 9 0
BBX 8 12 0 0
BITMAP
C3
C7
C6
C6
C6
C6
C6
C6
EE
7C
38
10
ENDCHAR
STARTCHAR afii10196
ENCODING 1141
SWIDTH 562 0
DWIDTH 9 0
BBX 8 8 0 0
BITMAP
C3
C7
C6
C6
EE
7C
38
10
ENDCHAR
STARTCHAR uni0476
ENCODING 1142
SWIDTH 562 0
DWIDTH 9 0
BBX 8 12 0 0
BITMAP
48
6C
24
C3
C7
C6
C6
C6
EE
7C
38
10
ENDCHAR
STARTCHAR uni0477
ENCODING 1143
SWIDTH 562 0
DWIDTH 9 0
BBX 8 12 0 0
BITMAP
48
6C
24
00
00
C3
C7
C6
EE
7C
38
10
ENDCHAR
STARTCHAR uni0478
ENCODING 1144
SWIDTH 562 0
DWIDTH 9 0
BBX 8 15 0 -3
BITMAP
60
90
90
90
95
95
95
95
95
95
97
66
06
0C
08
ENDCHAR
STARTCHAR uni0479
ENCODING 1145
SWIDTH 562 0
DWIDTH 9 0
BBX 8 11 0 -3
BITMAP
65
95
95
95
95
95
97
66
06
0C
08
ENDCHAR
STARTCHAR uni047A
ENCODING 1146
SWIDTH 562 0
DWIDTH 9 0
BBX 8 12 0 0
BITMAP
18
3C
7E
FF
C3
C3
C3
C3
FF
7E
3C
18
ENDCHAR
STARTCHAR uni047B
ENCODING 1147
SWIDTH 562 0
DWIDTH 9 0
BBX 8 10 0 -1
BITMAP
18
3C
7E
FF
C3
C3
FF
7E
3C
18
ENDCHAR
STARTCHAR uni047C
ENCODING 1148
SWIDTH 562 0
DWIDTH 9 0
BBX 8 12 0 0
BITMAP
7C
C7
10
00
66
E7
C3
C3
C3
DB
FF
7E
ENDCHAR
STARTCHAR uni47D
ENCODING 1149
SWIDTH 562 0
DWIDTH 9 0
BBX 8 11 0 0
BITMAP
7C
C7
10
00
C3
DB
DB
FF
7E
7E
66
ENDCHAR
STARTCHAR uni047E
ENCODING 1150
SWIDTH 562 0
DWIDTH 9 0
BBX 8 12 0 0
BITMAP
7E
5A
18
00
66
E7
C3
C3
C3
DB
FF
7E
ENDCHAR
STARTCHAR uni047F
ENCODING 1151
SWIDTH 562 0
DWIDTH 9 0
BBX 8 11 0 0
BITMAP
7E
5A
18
00
C3
DB
DB
FF
7E
7E
66
ENDCHAR
STARTCHAR uni0480
ENCODING 1152
SWIDTH 562 0
DWIDTH 9 0
BBX 8 12 0 0
BITMAP
3C
FF
C3
C3
C0
C0
F8
38
18
18
18
18
ENDCHAR
STARTCHAR uni0481
ENCODING 1153
SWIDTH 562 0
DWIDTH 9 0
BBX 8 8 0 0
BITMAP
3C
FF
C3
C0
F8
38
18
18
ENDCHAR
STARTCHAR uni048A
ENCODING 1162
SWIDTH 562 0
DWIDTH 9 0
BBX 8 15 0 -3
BITMAP
66
7E
3C
00
C3
C7
CF
DF
FB
F3
E3
C3
03
06
06
ENDCHAR
STARTCHAR uni048B
ENCODING 1163
SWIDTH 562 0
DWIDTH 9 0
BBX 8 13 0 -3
BITMAP
66
7E
3C
00
C7
CF
DF
FB
F3
E3
03
06
06
ENDCHAR
STARTCHAR uni048C
ENCODING 1164
SWIDTH 562 0
DWIDTH 9 0
BBX 8 12 0 0
BITMAP
60
60
F0
F0
60
60
7E
7F
63
63
7F
7E
ENDCHAR
STARTCHAR uni048D
ENCODING 1165
SWIDTH 562 0
DWIDTH 9 0
BBX 8 9 0 0
BITMAP
60
F0
F0
60
7E
7F
63
7F
7E
ENDCHAR
STARTCHAR uni048E
ENCODING 1166
SWIDTH 562 0
DWIDTH 9 0
BBX 8 12 0 0
BITMAP
FC
FF
C3
DB
DF
FE
F7
C3
C0
C0
C0
C0
ENDCHAR
STARTCHAR uni048F
ENCODING 1167
SWIDTH 562 0
DWIDTH 9 0
BBX 8 12 0 -4
BITMAP
FC
FF
C3
C3
C3
DB
FF
FE
C7
C3
C0
C0
ENDCHAR
STARTCHAR afii10050
ENCODING 1168
SWIDTH 562 0
DWIDTH 9 0
BBX 8 12 0 0
BITMAP
03
03
FF
FF
C0
C0
C0
C0
C0
C0
C0
C0
ENDCHAR
STARTCHAR afii10098
ENCODING 1169
SWIDTH 562 0
DWIDTH 9 0
BBX 8 8 0 0
BITMAP
03
03
FF
FF
C0
C0
C0
C0
ENDCHAR
STARTCHAR uni0492
ENCODING 1170
SWIDTH 562 0
DWIDTH 9 0
BBX 8 12 0 0
BITMAP
3F
3F
30
30
30
FC
FC
30
30
30
30
30
ENDCHAR
STARTCHAR uni0493
ENCODING 1171
SWIDTH 562 0
DWIDTH 9 0
BBX 8 8 0 0
BITMAP
3F
3F
30
30
FC
FC
30
30
ENDCHAR
STARTCHAR uni0494
ENCODING 1172
SWIDTH 562 0
DWIDTH 9 0
BBX 8 16 0 -4
BITMAP
FF
FF
C0
C0
C0
C0
FE
FF
C3
C3
C3
C3
03
06
1E
18
ENDCHAR
STARTCHAR uni0495
ENCODING 1173
SWIDTH 562 0
DWIDTH 9 0
BBX 8 12 0 -4
BITMAP
FF
FF
C0
C0
FE
FF
C3
C3
03
06
1E
18
ENDCHAR
STARTCHAR uni0496
ENCODING 1174
SWIDTH 562 0
DWIDTH 9 0
BBX 8 14 0 -2
BITMAP
DB
DB
7E
7E
7E
3C
3C
7E
7E
7E
DB
DB
03
03
ENDCHAR
STARTCHAR uni0497
ENCODING 1175
SWIDTH 562 0
DWIDTH 9 0
BBX 8 10 0 -2
BITMAP
DB
DB
7E
7E
7E
7E
DB
DB
03
03
ENDCHAR
STARTCHAR uni0498
ENCODING 1176
SWIDTH 562 0
DWIDTH 9 0
BBX 8 16 0 -4
BITMAP
7E
7E
C3
C3
06
0E
0E
06
C3
C3
7E
7E
18
0C
3C
3C
ENDCHAR
STARTCHAR uni0499
ENCODING 1177
SWIDTH 562 0
DWIDTH 9 0
BBX 8 12 0 -4
BITMAP
7E
FF
C3
0E
0E
C3
FF
7E
18
0C
3C
3C
ENDCHAR
STARTCHAR uni049A
ENCODING 1178
SWIDTH 562 0
DWIDTH 9 0
BBX 8 14 0 -2
BITMAP
C7
CF
CC
D8
D8
F0
F0
D8
D8
CC
CF
C7
03
03
ENDCHAR
STARTCHAR uni049B
ENCODING 1179
SWIDTH 562 0
DWIDTH 9 0
BBX 8 10 0 -2
BITMAP
C7
CF
DC
F8
F8
DC
CF
C7
03
03
ENDCHAR
STARTCHAR uni049C
ENCODING 1180
SWIDTH 562 0
DWIDTH 9 0
BBX 8 12 0 0
BITMAP
C3
C3
DB
DF
DE
FC
FC
DE
DF
DB
C3
C3
ENDCHAR
STARTCHAR uni049D
ENCODING 1181
SWIDTH 562 0
DWIDTH 9 0
BBX 8 8 0 0
BITMAP
C3
DB
DF
FE
FE
DF
DB
C3
ENDCHAR
STARTCHAR uni049E
ENCODING 1182
SWIDTH 562 0
DWIDTH 9 0
BBX 8 12 0 0
BITMAP
63
F7
FE
6C
7C
78
78
7C
6C
6E
67
63
ENDCHAR
STARTCHAR uni049F
ENCODING 1183
SWIDTH 562 0
DWIDTH 9 0
BBX 8 10 0 0
BITMAP
60
F0
F3
67
6E
7C
7C
6E
67
63
ENDCHAR
STARTCHAR uni04A0
ENCODING 1184
SWIDTH 562 0
DWIDTH 9 0
BBX 8 12 0 0
BITMAP
E3
E7
6E
6C
7C
78
78
7C
6C
6E
67
63
ENDCHAR
STARTCHAR uni04A1
ENCODING 1185
SWIDTH 562 0
DWIDTH 9 0
BBX 8 8 0 0
BITMAP
E3
E7
6E
7C
7C
6E
67
63
ENDCHAR
STARTCHAR uni04A2
ENCODING 1186
SWIDTH 562 0
DWIDTH 9 0
BBX 8 14 0 -2
BITMAP
C6
C6
C6
C6
C6
FE
FE
C6
C6
C6
C6
C7
03
03
ENDCHAR
STARTCHAR uni04A3
ENCODING 1187
SWIDTH 562 0
DWIDTH 9 0
BBX 8 10 0 -2
BITMAP
C6
C6
C6
FE
FE
C6
C6
C7
03
03
ENDCHAR
STARTCHAR uni04A4
ENCODING 1188
SWIDTH 562 0
DWIDTH 9 0
BBX 8 12 0 0
BITMAP
CF
CF
CC
CC
CC
FC
FC
CC
CC
CC
CC
CC
ENDCHAR
STARTCHAR uni04A5
ENCODING 1189
SWIDTH 562 0
DWIDTH 9 0
BBX 8 8 0 0
BITMAP
CF
CF
CC
FC
FC
CC
CC
CC
ENDCHAR
STARTCHAR uni04A6
ENCODING 1190
SWIDTH 562 0
DWIDTH 9 0
BBX 8 15 0 -3
BITMAP
F8
F8
D8
D8
D8
D8
DE
DF
DB
DB
DB
DB
03
07
06
ENDCHAR
STARTCHAR uni04A7
ENCODING 1191
SWIDTH 562 0
DWIDTH 9 0
BBX 8 11 0 -3
BITMAP
F8
F8
DE
DF
DB
DB
DB
DB
03
07
06
ENDCHAR
STARTCHAR uni04A8
ENCODING 1192
SWIDTH 562 0
DWIDTH 9 0
BBX 8 15 0 -3
BITMAP
3C
7E
E7
C0
CE
DF
DB
DB
DB
FF
7E
3C
18
1C
0C
ENDCHAR
STARTCHAR uni04A9
ENCODING 1193
SWIDTH 562 0
DWIDTH 9 0
BBX 8 11 0 -3
BITMAP
3C
7E
E7
CE
DF
FB
7E
3C
18
1C
0C
ENDCHAR
STARTCHAR uni04AA
ENCODING 1194
SWIDTH 562 0
DWIDTH 9 0
BBX 8 16 0 -4
BITMAP
7C
7F
C3
C0
C0
C0
C0
C0
C0
C3
7F
7C
18
0C
1C
1C
ENDCHAR
STARTCHAR uni04AB
ENCODING 1195
SWIDTH 562 0
DWIDTH 9 0
BBX 8 12 0 -4
BITMAP
3C
FF
C3
C0
C0
C3
FF
3C
18
0C
1C
1C
ENDCHAR
STARTCHAR uni04AC
ENCODING 1196
SWIDTH 562 0
DWIDTH 9 0
BBX 8 14 0 -2
BITMAP
FF
FF
99
18
18
18
18
18
18
18
18
1C
0C
0C
ENDCHAR
STARTCHAR uni04AD
ENCODING 1197
SWIDTH 562 0
DWIDTH 9 0
BBX 8 10 0 -2
BITMAP
FF
FF
18
18
18
18
18
1C
0C
0C
ENDCHAR
STARTCHAR uni04AE
ENCODING 1198
SWIDTH 562 0
DWIDTH 9 0
BBX 8 12 0 0
BITMAP
C3
C3
E7
7E
3C
18
18
18
18
18
18
18
ENDCHAR
STARTCHAR uni04AF
ENCODING 1199
SWIDTH 562 0
DWIDTH 9 0
BBX 8 8 0 0
BITMAP
C3
C3
E7
7E
3C
18
18
18
ENDCHAR
STARTCHAR uni04B0
ENCODING 1200
SWIDTH 562 0
DWIDTH 9 0
BBX 8 12 0 0
BITMAP
C3
C3
E7
7E
3C
18
18
7E
7E
18
18
18
ENDCHAR
STARTCHAR uni04B1
ENCODING 1201
SWIDTH 562 0
DWIDTH 9 0
BBX 8 8 0 0
BITMAP
C3
E7
7E
3C
18
3C
3C
18
ENDCHAR
STARTCHAR uni04B2
ENCODING 1202
SWIDTH 562 0
DWIDTH 9 0
BBX 8 14 0 -2
BITMAP
C3
C3
E7
7E
3C
18
18
3C
7E
E6
C3
C3
03
03
ENDCHAR
STARTCHAR uni04B3
ENCODING 1203
SWIDTH 562 0
DWIDTH 9 0
BBX 8 10 0 -2
BITMAP
E7
FF
3C
18
18
3C
FF
E7
03
03
ENDCHAR
STARTCHAR uni04B4
ENCODING 1204
SWIDTH 562 0
DWIDTH 9 0
BBX 8 14 0 -2
BITMAP
F6
F6
66
66
66
66
66
66
66
66
7E
7F
03
03
ENDCHAR
STARTCHAR uni04B5
ENCODING 1205
SWIDTH 562 0
DWIDTH 9 0
BBX 8 10 0 -2
BITMAP
F6
F6
66
66
66
66
7E
7F
03
03
ENDCHAR
STARTCHAR uni04B6
ENCODING 1206
SWIDTH 562 0
DWIDTH 9 0
BBX 8 14 0 -2
BITMAP
C6
C6
C6
C6
C6
FE
7E
06
06
06
06
07
03
03
ENDCHAR
STARTCHAR uni04B7
ENCODING 1207
SWIDTH 562 0
DWIDTH 9 0
BBX 8 10 0 -2
BITMAP
C6
C6
C6
FE
7E
06
06
07
03
03
ENDCHAR
STARTCHAR uni04B8
ENCODING 1208
SWIDTH 562 0
DWIDTH 9 0
BBX 8 12 0 0
BITMAP
C3
C3
C3
DB
DB
FF
7F
1B
1B
03
03
03
ENDCHAR
STARTCHAR uni04B9
ENCODING 1209
SWIDTH 562 0
DWIDTH 9 0
BBX 8 8 0 0
BITMAP
C3
DB
DB
FF
7F
1B
1B
03
ENDCHAR
STARTCHAR uni04BA
ENCODING 1210
SWIDTH 562 0
DWIDTH 9 0
BBX 8 12 0 0
BITMAP
C0
C0
C0
C0
C0
FE
FF
C3
C3
C3
C3
C3
ENDCHAR
STARTCHAR uni04BB
ENCODING 1211
SWIDTH 562 0
DWIDTH 9 0
BBX 8 8 0 0
BITMAP
C0
C0
C0
FE
FF
C3
C3
C3
ENDCHAR
STARTCHAR uni04BC
ENCODING 1212
SWIDTH 562 0
DWIDTH 9 0
BBX 8 12 0 0
BITMAP
0E
1F
1B
DB
DB
FF
7F
18
18
1B
1F
0E
ENDCHAR
STARTCHAR uni04BD
ENCODING 1213
SWIDTH 562 0
DWIDTH 9 0
BBX 8 8 0 0
BITMAP
0E
DF
DB
FF
7F
18
1F
0F
ENDCHAR
STARTCHAR uni04BE
ENCODING 1214
SWIDTH 562 0
DWIDTH 9 0
BBX 8 16 0 -4
BITMAP
0E
1F
1B
DB
DB
FF
7F
18
18
1B
1F
0E
18
30
38
38
ENDCHAR
STARTCHAR uni04BF
ENCODING 1215
SWIDTH 562 0
DWIDTH 9 0
BBX 8 12 0 -4
BITMAP
0E
DF
DB
FF
7F
18
1F
0F
18
30
38
38
ENDCHAR
STARTCHAR uni04C0
ENCODING 1216
SWIDTH 562 0
DWIDTH 9 0
BBX 4 12 2 0
BITMAP
F0
60
60
60
60
60
60
60
60
60
60
F0
ENDCHAR
STARTCHAR uni04C1
ENCODING 1217
SWIDTH 562 0
DWIDTH 9 0
BBX 8 12 0 0
BITMAP
66
7E
3C
00
DB
5A
7E
3C
3C
7E
DB
99
ENDCHAR
STARTCHAR uni04C2
ENCODING 1218
SWIDTH 562 0
DWIDTH 9 0
BBX 8 10 0 0
BITMAP
66
7E
3C
00
DB
5A
7E
7E
DB
99
ENDCHAR
STARTCHAR uni04C3
ENCODING 1219
SWIDTH 562 0
DWIDTH 9 0
BBX 8 14 0 -2
BITMAP
C7
CF
CC
D8
D8
F0
F8
DC
CE
C7
C3
C3
0F
0E
ENDCHAR
STARTCHAR uni04C4
ENCODING 1220
SWIDTH 562 0
DWIDTH 9 0
BBX 8 10 0 -2
BITMAP
C7
CF
DC
F8
FC
CE
C7
C3
0F
0E
ENDCHAR
STARTCHAR uni04C5
ENCODING 1221
SWIDTH 562 0
DWIDTH 9 0
BBX 8 15 0 -3
BITMAP
7E
7E
66
66
66
66
66
66
66
66
E6
C7
03
06
06
ENDCHAR
STARTCHAR uni04C6
ENCODING 1222
SWIDTH 562 0
DWIDTH 9 0
BBX 8 11 0 -3
BITMAP
7E
7E
66
66
66
66
E6
C7
03
06
06
ENDCHAR
STARTCHAR uni04C7
ENCODING 1223
SWIDTH 562 0
DWIDTH 9 0
BBX 8 14 0 -2
BITMAP
C3
C3
C3
C3
FF
FF
C3
C3
C3
C3
C3
C3
0F
0E
ENDCHAR
STARTCHAR uni04C8
ENCODING 1224
SWIDTH 562 0
DWIDTH 9 0
BBX 8 10 0 -2
BITMAP
C3
C3
C3
FF
FF
C3
C3
C3
0F
0E
ENDCHAR
STARTCHAR uni04C9
ENCODING 1225
SWIDTH 562 0
DWIDTH 9 0
BBX 8 15 0 -3
BITMAP
C6
C6
C6
C6
FE
FE
C6
C6
C6
C6
C6
C7
03
06
06
ENDCHAR
STARTCHAR uni04CA
ENCODING 1226
SWIDTH 562 0
DWIDTH 9 0
BBX 8 11 0 -3
BITMAP
C6
C6
C6
FE
FE
C6
C6
C7
03
06
06
ENDCHAR
STARTCHAR uni04CB
ENCODING 1227
SWIDTH 562 0
DWIDTH 9 0
BBX 8 15 0 -3
BITMAP
C3
C3
C3
C3
C3
FF
7F
03
03
03
03
0F
0F
0C
0C
ENDCHAR
STARTCHAR uni04CC
ENCODING 1228
SWIDTH 562 0
DWIDTH 9 0
BBX 8 11 0 -3
BITMAP
C3
C3
C3
FF
7F
03
03
0F
0F
0C
0C
ENDCHAR
STARTCHAR uni04CD
ENCODING 1229
SWIDTH 562 0
DWIDTH 9 0
BBX 8 14 0 -2
BITMAP
C3
E7
FF
DB
DB
C3
C3
C3
C3
C3
C3
C7
06
06
ENDCHAR
STARTCHAR uni04CE
ENCODING 1230
SWIDTH 562 0
DWIDTH 9 0
BBX 8 10 0 -2
BITMAP
C3
E7
FF
DB
C3
C3
C3
C7
06
06
ENDCHAR
STARTCHAR uni04CF
ENCODING 1231
SWIDTH 562 0
DWIDTH 9 0
BBX 4 8 2 0
BITMAP
F0
60
60
60
60
60
60
F0
ENDCHAR
STARTCHAR uni04D0
ENCODING 1232
SWIDTH 562 0
DWIDTH 9 0
BBX 8 12 0 0
BITMAP
66
7E
3C
00
18
3C
66
C3
FF
FF
C3
C3
ENDCHAR
STARTCHAR uni04D1
ENCODING 1233
SWIDTH 562 0
DWIDTH 9 0
BBX 8 12 0 0
BITMAP
66
7E
3C
00
7E
FE
03
7F
FF
C3
FF
7F
ENDCHAR
STARTCHAR uni04D2
ENCODING 1234
SWIDTH 562 0
DWIDTH 9 0
BBX 8 11 0 0
BITMAP
66
66
00
18
3C
66
C3
FF
FF
C3
C3
ENDCHAR
STARTCHAR uni04D3
ENCODING 1235
SWIDTH 562 0
DWIDTH 9 0
BBX 8 11 0 0
BITMAP
66
66
00
7E
FE
03
7F
FF
C3
FF
7F
ENDCHAR
STARTCHAR uni04D4
ENCODING 1236
SWIDTH 562 0
DWIDTH 9 0
BBX 8 12 0 0
BITMAP
3F
3F
68
68
C8
CF
FF
F8
C8
C8
CF
CF
ENDCHAR
STARTCHAR uni04D5
ENCODING 1237
SWIDTH 562 0
DWIDTH 9 0
BBX 8 8 0 0
BITMAP
7E
FF
1B
7F
FF
D8
FF
7E
ENDCHAR
STARTCHAR uni04D6
ENCODING 1238
SWIDTH 562 0
DWIDTH 9 0
BBX 8 12 0 0
BITMAP
66
7E
3C
00
FF
FF
C0
FF
FF
C0
FF
FF
ENDCHAR
STARTCHAR uni04D7
ENCODING 1239
SWIDTH 562 0
DWIDTH 9 0
BBX 8 12 0 0
BITMAP
66
7E
3C
00
7E
7E
C3
FF
FF
C0
7E
7E
ENDCHAR
STARTCHAR uni04D8
ENCODING 1240
SWIDTH 562 0
DWIDTH 9 0
BBX 8 12 0 0
BITMAP
7E
FE
C3
03
03
FF
FF
C3
C3
C3
7E
7E
ENDCHAR
STARTCHAR afii10846
ENCODING 1241
SWIDTH 562 0
DWIDTH 9 0
BBX 8 8 0 0
BITMAP
7E
FE
03
FF
FF
C3
7E
7E
ENDCHAR
STARTCHAR uni04DA
ENCODING 1242
SWIDTH 562 0
DWIDTH 9 0
BBX 8 12 0 0
BITMAP
66
66
00
7E
FE
03
03
FF
FF
C3
7E
7E
ENDCHAR
STARTCHAR uni04DB
ENCODING 1243
SWIDTH 562 0
DWIDTH 9 0
BBX 8 11 0 0
BITMAP
66
66
00
7E
FE
03
FF
FF
C3
7E
7E
ENDCHAR
STARTCHAR uni04DC
ENCODING 1244
SWIDTH 562 0
DWIDTH 9 0
BBX 8 12 0 0
BITMAP
66
66
00
00
DB
5A
7E
3C
3C
7E
DB
99
ENDCHAR
STARTCHAR uni04DD
ENCODING 1245
SWIDTH 562 0
DWIDTH 9 0
BBX 8 9 0 0
BITMAP
66
66
00
DB
5A
7E
7E
DB
99
ENDCHAR
STARTCHAR uni04DE
ENCODING 1246
SWIDTH 562 0
DWIDTH 9 0
BBX 8 12 0 0
BITMAP
66
66
00
7E
FF
C3
0E
0E
C3
C3
7E
7E
ENDCHAR
STARTCHAR uni04DF
ENCODING 1247
SWIDTH 562 0
DWIDTH 9 0
BBX 8 11 0 0
BITMAP
66
66
00
7E
FF
C3
0E
0E
C3
FF
7E
ENDCHAR
STARTCHAR uni04E0
ENCODING 1248
SWIDTH 562 0
DWIDTH 9 0
BBX 8 12 0 0
BITMAP
FF
FF
03
07
0E
1C
0E
07
C3
C3
7E
7E
ENDCHAR
STARTCHAR uni04E1
ENCODING 1249
SWIDTH 562 0
DWIDTH 9 0
BBX 8 12 0 -4
BITMAP
FF
FF
03
07
0E
1C
0E
07
C3
C3
7E
7E
ENDCHAR
STARTCHAR uni04E2
ENCODING 1250
SWIDTH 562 0
DWIDTH 9 0
BBX 8 11 0 0
BITMAP
7E
7E
00
C3
C7
CF
DF
FB
F3
E3
C3
ENDCHAR
STARTCHAR uni04E3
ENCODING 1251
SWIDTH 562 0
DWIDTH 9 0
BBX 8 9 0 0
BITMAP
7E
7E
00
C7
CF
DF
FB
F3
E3
ENDCHAR
STARTCHAR uni04E4
ENCODING 1252
SWIDTH 562 0
DWIDTH 9 0
BBX 8 11 0 0
BITMAP
66
66
00
C3
C7
CF
DF
FB
F3
E3
C3
ENDCHAR
STARTCHAR uni04E5
ENCODING 1253
SWIDTH 562 0
DWIDTH 9 0
BBX 8 9 0 0
BITMAP
66
66
00
C7
CF
DF
FB
F3
E3
ENDCHAR
STARTCHAR uni04E6
ENCODING 1254
SWIDTH 562 0
DWIDTH 9 0
BBX 8 12 0 0
BITMAP
66
66
00
7E
7E
C3
C3
C3
C3
C3
7E
7E
ENDCHAR
STARTCHAR uni04E7
ENCODING 1255
SWIDTH 562 0
DWIDTH 9 0
BBX 8 10 0 0
BITMAP
66
66
00
7E
7E
C3
C3
C3
7E
7E
ENDCHAR
STARTCHAR uni04E8
ENCODING 1256
SWIDTH 562 0
DWIDTH 9 0
BBX 8 12 0 0
BITMAP
7E
7E
C3
C3
C3
FF
FF
C3
C3
C3
7E
7E
ENDCHAR
STARTCHAR uni04E9
ENCODING 1257
SWIDTH 562 0
DWIDTH 9 0
BBX 8 8 0 0
BITMAP
7E
7E
C3
FF
FF
C3
7E
7E
ENDCHAR
STARTCHAR uni04EA
ENCODING 1258
SWIDTH 562 0
DWIDTH 9 0
BBX 8 12 0 0
BITMAP
66
66
00
7E
7E
C3
FF
FF
C3
C3
7E
7E
ENDCHAR
STARTCHAR uni04EB
ENCODING 1259
SWIDTH 562 0
DWIDTH 9 0
BBX 8 10 0 0
BITMAP
66
66
00
7E
7E
C3
FF
C3
7E
7E
ENDCHAR
STARTCHAR uni04EC
ENCODING 1260
SWIDTH 562 0
DWIDTH 9 0
BBX 8 12 0 0
BITMAP
66
66
00
7E
FE
C3
0F
0F
C3
C3
7E
7E
ENDCHAR
STARTCHAR uni04ED
ENCODING 1261
SWIDTH 562 0
DWIDTH 9 0
BBX 8 11 0 0
BITMAP
66
66
00
7E
FE
C3
0F
0F
C3
FE
7E
ENDCHAR
STARTCHAR uni04EE
ENCODING 1262
SWIDTH 562 0
DWIDTH 9 0
BBX 8 12 0 0
BITMAP
7E
7E
00
C3
C3
66
66
3C
3C
18
F8
F0
ENDCHAR
STARTCHAR uni04EF
ENCODING 1263
SWIDTH 562 0
DWIDTH 9 0
BBX 8 14 0 -4
BITMAP
7E
7E
00
C3
C3
C3
66
7E
3C
18
38
70
E0
C0
ENDCHAR
STARTCHAR uni04F0
ENCODING 1264
SWIDTH 562 0
DWIDTH 9 0
BBX 8 12 0 0
BITMAP
66
66
00
C3
C3
66
66
3C
3C
18
F8
F0
ENDCHAR
STARTCHAR uni04F1
ENCODING 1265
SWIDTH 562 0
DWIDTH 9 0
BBX 8 14 0 -4
BITMAP
66
66
00
C3
C3
C3
66
7E
3C
18
38
70
E0
C0
ENDCHAR
STARTCHAR uni04F2
ENCODING 1266
SWIDTH 562 0
DWIDTH 9 0
BBX 8 12 0 0
BITMAP
33
66
00
C3
C3
66
66
3C
3C
18
F8
F0
ENDCHAR
STARTCHAR uni04F3
ENCODING 1267
SWIDTH 562 0
DWIDTH 9 0
BBX 8 14 0 -4
BITMAP
33
66
00
C3
C3
C3
66
7E
3C
18
38
70
E0
C0
ENDCHAR
STARTCHAR uni04F4
ENCODING 1268
SWIDTH 562 0
DWIDTH 9 0
BBX 8 12 0 0
BITMAP
66
66
00
C3
C3
C3
FF
7F
03
03
03
03
ENDCHAR
STARTCHAR uni04F5
ENCODING 1269
SWIDTH 562 0
DWIDTH 9 0
BBX 8 11 0 0
BITMAP
66
66
00
C3
C3
C3
FF
7F
03
03
03
ENDCHAR
STARTCHAR uni04F6
ENCODING 1270
SWIDTH 562 0
DWIDTH 9 0
BBX 8 14 0 -2
BITMAP
FF
FF
C0
C0
C0
C0
C0
C0
C0
C0
C0
E0
60
60
ENDCHAR
STARTCHAR uni04F7
ENCODING 1271
SWIDTH 562 0
DWIDTH 9 0
BBX 8 10 0 -2
BITMAP
FF
FF
C0
C0
C0
C0
C0
E0
60
60
ENDCHAR
STARTCHAR uni04F8
ENCODING 1272
SWIDTH 562 0
DWIDTH 9 0
BBX 8 12 0 0
BITMAP
66
66
00
C3
C3
C3
F3
FB
DB
DB
FB
F3
ENDCHAR
STARTCHAR uni04F9
ENCODING 1273
SWIDTH 562 0
DWIDTH 9 0
BBX 8 10 0 0
BITMAP
66
66
00
C3
C3
F3
FB
DB
FB
F3
ENDCHAR
STARTCHAR uni04FA
ENCODING 1274
SWIDTH 562 0
DWIDTH 9 0
BBX 8 15 0 -3
BITMAP
7F
7F
60
60
60
F8
F8
60
60
60
60
70
30
F0
E0
ENDCHAR
STARTCHAR uni04FB
ENCODING 1275
SWIDTH 562 0
DWIDTH 9 0
BBX 8 11 0 -3
BITMAP
7F
7F
60
F8
F8
60
60
70
30
F0
E0
ENDCHAR
STARTCHAR uni04FC
ENCODING 1276
SWIDTH 562 0
DWIDTH 9 0
BBX 8 15 0 -3
BITMAP
C3
C3
E6
7E
3C
18
18
3C
7E
E7
C3
C3
03
0F
0E
ENDCHAR
STARTCHAR uni04FD
ENCODING 1277
SWIDTH 562 0
DWIDTH 9 0
BBX 8 11 0 -3
BITMAP
C3
E7
3C
18
18
3C
E7
C3
03
0F
0E
ENDCHAR
STARTCHAR uni04FE
ENCODING 1278
SWIDTH 562 0
DWIDTH 9 0
BBX 8 12 0 0
BITMAP
C3
C3
E7
7E
18
7E
7E
18
7E
E7
C3
C3
ENDCHAR
STARTCHAR uni04FF
ENCODING 1279
SWIDTH 562 0
DWIDTH 9 0
BBX 8 8 0 0
BITMAP
C3
E7
3C
FF
FF
3C
E7
C3
ENDCHAR
STARTCHAR uni0500
ENCODING 1280
SWIDTH 562 0
DWIDTH 9 0
BBX 8 12 0 0
BITMAP
03
03
03
03
03
03
7F
FF
C3
C3
FF
7F
ENDCHAR
STARTCHAR uni0501
ENCODING 1281
SWIDTH 562 0
DWIDTH 9 0
BBX 8 8 0 0
BITMAP
03
03
03
7F
FF
C3
FF
7F
ENDCHAR
STARTCHAR uni0502
ENCODING 1282
SWIDTH 562 0
DWIDTH 9 0
BBX 8 12 0 0
BITMAP
18
18
18
18
18
18
78
FB
DB
DB
FF
7E
ENDCHAR
STARTCHAR uni0503
ENCODING 1283
SWIDTH 562 0
DWIDTH 9 0
BBX 8 8 0 0
BITMAP
18
18
18
7B
FB
DB
FF
7E
ENDCHAR
STARTCHAR uni0504
ENCODING 1284
SWIDTH 562 0
DWIDTH 9 0
BBX 8 12 0 0
BITMAP
70
F8
D8
D8
18
78
78
1B
1B
1B
1F
0E
ENDCHAR
STARTCHAR uni0505
ENCODING 1285
SWIDTH 562 0
DWIDTH 9 0
BBX 8 8 0 0
BITMAP
70
F8
D8
18
7B
7B
1F
0E
ENDCHAR
STARTCHAR uni0506
ENCODING 1286
SWIDTH 562 0
DWIDTH 9 0
BBX 8 14 0 -2
BITMAP
38
7C
EE
C6
06
06
3E
3E
06
06
06
07
03
03
ENDCHAR
STARTCHAR uni0507
ENCODING 1287
SWIDTH 562 0
DWIDTH 9 0
BBX 8 10 0 -2
BITMAP
38
7C
EE
C6
1E
1E
06
07
03
03
ENDCHAR
STARTCHAR uni0508
ENCODING 1288
SWIDTH 562 0
DWIDTH 9 0
BBX 8 12 0 0
BITMAP
78
78
68
68
68
68
68
6B
6B
6B
EF
C6
ENDCHAR
STARTCHAR uni0509
ENCODING 1289
SWIDTH 562 0
DWIDTH 9 0
BBX 8 8 0 0
BITMAP
78
78
68
68
6B
6B
EF
C6
ENDCHAR
STARTCHAR uni050A
ENCODING 1290
SWIDTH 562 0
DWIDTH 9 0
BBX 8 12 0 0
BITMAP
D8
D8
D8
D8
D8
F8
F8
DB
DB
DB
DF
CE
ENDCHAR
STARTCHAR uni050B
ENCODING 1291
SWIDTH 562 0
DWIDTH 9 0
BBX 8 8 0 0
BITMAP
D8
D8
D8
F8
FB
DB
DF
CE
ENDCHAR
STARTCHAR uni050C
ENCODING 1292
SWIDTH 562 0
DWIDTH 9 0
BBX 8 12 0 0
BITMAP
3C
FF
C3
C3
C0
C0
C0
CF
CF
C3
FF
3C
ENDCHAR
STARTCHAR uni050D
ENCODING 1293
SWIDTH 562 0
DWIDTH 9 0
BBX 8 8 0 0
BITMAP
3F
FF
C0
CF
CF
C3
FF
3C
ENDCHAR
STARTCHAR uni050E
ENCODING 1294
SWIDTH 562 0
DWIDTH 9 0
BBX 8 12 0 0
BITMAP
FF
FF
18
18
18
18
18
1B
1B
1B
1F
0E
ENDCHAR
STARTCHAR uni050F
ENCODING 1295
SWIDTH 562 0
DWIDTH 9 0
BBX 8 8 0 0
BITMAP
FF
FF
18
18
1B
1B
1F
0E
ENDCHAR
STARTCHAR uni0510
ENCODING 1296
SWIDTH 562 0
DWIDTH 9 0
BBX 8 12 0 0
BITMAP
7E
7E
C3
C3
60
70
70
60
C3
C3
7E
7E
ENDCHAR
STARTCHAR uni0511
ENCODING 1297
SWIDTH 562 0
DWIDTH 9 0
BBX 8 8 0 0
BITMAP
7E
FF
C3
70
70
C3
FF
7E
ENDCHAR
STARTCHAR uni0512
ENCODING 1298
SWIDTH 562 0
DWIDTH 9 0
BBX 8 15 0 -3
BITMAP
3F
3F
33
33
33
33
33
33
33
73
E3
C3
03
0F
0E
ENDCHAR
STARTCHAR uni0513
ENCODING 1299
SWIDTH 562 0
DWIDTH 9 0
BBX 8 11 0 -3
BITMAP
3F
3F
33
33
33
73
E3
C3
03
0F
0E
ENDCHAR
STARTCHAR uni0514
ENCODING 1300
SWIDTH 562 0
DWIDTH 9 0
BBX 8 12 0 0
BITMAP
7B
7B
7B
6A
6E
6E
6E
6E
6A
5B
DB
DB
ENDCHAR
STARTCHAR uni0515
ENCODING 1301
SWIDTH 562 0
DWIDTH 9 0
BBX 8 8 0 0
BITMAP
7B
7B
6E
6E
6E
4E
DB
DB
ENDCHAR
STARTCHAR uni0516
ENCODING 1302
SWIDTH 562 0
DWIDTH 9 0
BBX 8 12 0 0
BITMAP
F3
FF
DE
DC
D8
F8
F8
DC
CE
C7
C3
C3
ENDCHAR
STARTCHAR uni0517
ENCODING 1303
SWIDTH 562 0
DWIDTH 9 0
BBX 8 8 0 0
BITMAP
F3
FF
DE
FC
FC
CE
C7
C3
ENDCHAR
STARTCHAR uni0518
ENCODING 1304
SWIDTH 562 0
DWIDTH 9 0
BBX 8 12 0 0
BITMAP
7F
FF
D8
D8
D8
FF
7F
F8
D8
D8
DF
DF
ENDCHAR
STARTCHAR uni0519
ENCODING 1305
SWIDTH 562 0
DWIDTH 9 0
BBX 8 8 0 0
BITMAP
7F
FF
D8
FF
7F
D8
DF
DF
ENDCHAR
STARTCHAR uni051A
ENCODING 1306
SWIDTH 562 0
DWIDTH 9 0
BBX 8 12 0 0
BITMAP
3F
FF
C3
C3
F3
3F
0F
03
03
03
03
03
ENDCHAR
STARTCHAR uni051B
ENCODING 1307
SWIDTH 562 0
DWIDTH 9 0
BBX 8 12 0 -4
BITMAP
3F
FF
C3
C3
C3
C3
FF
3F
03
03
03
03
ENDCHAR
STARTCHAR uni051C
ENCODING 1308
SWIDTH 562 0
DWIDTH 9 0
BBX 8 12 0 0
BITMAP
C3
C3
C3
C3
C3
DB
DB
DB
DB
DB
7E
66
ENDCHAR
STARTCHAR uni051D
ENCODING 1309
SWIDTH 562 0
DWIDTH 9 0
BBX 8 7 0 0
BITMAP
C3
C3
C3
DB
DB
7E
66
ENDCHAR
STARTCHAR uni051E
ENCODING 1310
SWIDTH 562 0
DWIDTH 9 0
BBX 8 12 0 0
BITMAP
DB
DF
CE
DF
DB
F0
F0
D8
D8
CC
CF
C7
ENDCHAR
STARTCHAR uni051F
ENCODING 1311
SWIDTH 562 0
DWIDTH 9 0
BBX 8 9 0 0
BITMAP
1B
DF
CE
DF
FB
F8
DC
CF
C7
ENDCHAR
STARTCHAR uni0520
ENCODING 1312
SWIDTH 562 0
DWIDTH 9 0
BBX 8 15 0 -3
BITMAP
7C
7C
6C
6C
6C
6E
6F
6D
6D
6D
ED
CD
01
03
06
ENDCHAR
STARTCHAR uni0521
ENCODING 1313
SWIDTH 562 0
DWIDTH 9 0
BBX 8 11 0 -3
BITMAP
7C
7C
6C
6E
6F
6D
ED
CD
01
03
06
ENDCHAR
STARTCHAR uni0522
ENCODING 1314
SWIDTH 562 0
DWIDTH 9 0
BBX 8 16 0 -4
BITMAP
D8
D8
D8
D8
D8
FE
FF
DB
DB
DB
DB
DB
03
07
0E
0C
ENDCHAR
STARTCHAR uni0523
ENCODING 1315
SWIDTH 562 0
DWIDTH 9 0
BBX 8 12 0 -4
BITMAP
D8
D8
D8
FE
FF
DB
DB
DB
03
07
0E
0C
ENDCHAR
STARTCHAR uni0524
ENCODING 1316
SWIDTH 562 0
DWIDTH 9 0
BBX 8 14 0 -2
BITMAP
FE
FE
C6
C6
C6
C6
C6
C6
C6
C6
C7
C7
03
03
ENDCHAR
STARTCHAR uni0525
ENCODING 1317
SWIDTH 562 0
DWIDTH 9 0
BBX 8 10 0 -2
BITMAP
FE
FE
C6
C6
C6
C6
C7
C7
03
03
ENDCHAR
STARTCHAR uni0526
ENCODING 1318
SWIDTH 562 0
DWIDTH 9 0
BBX 8 14 0 -2
BITMAP
C0
C0
C0
C0
C0
F8
FC
CE
C6
C6
C6
C7
03
03
ENDCHAR
STARTCHAR uni0527
ENCODING 1319
SWIDTH 562 0
DWIDTH 9 0
BBX 8 10 0 -2
BITMAP
C0
C0
C0
F8
FC
CE
C6
C7
03
03
ENDCHAR
STARTCHAR uni0528
ENCODING 1320
SWIDTH 562 0
DWIDTH 9 0
BBX 8 14 0 -2
BITMAP
33
33
33
33
3F
3F
33
33
33
33
33
33
F0
E0
ENDCHAR
STARTCHAR uni0529
ENCODING 1321
SWIDTH 562 0
DWIDTH 9 0
BBX 8 10 0 -2
BITMAP
33
33
33
3F
3F
33
33
33
F0
E0
ENDCHAR
STARTCHAR uni052A
ENCODING 1322
SWIDTH 562 0
DWIDTH 9 0
BBX 9 13 0 -1
BITMAP
7480
5480
5580
5500
5500
5F00
5500
5500
5500
5580
5480
F480
9000
ENDCHAR
STARTCHAR uni052B
ENCODING 1323
SWIDTH 562 0
DWIDTH 9 0
BBX 9 10 0 -1
BITMAP
7480
5480
5580
5500
5F00
5500
5580
5480
F480
9000
ENDCHAR
STARTCHAR uni052C
ENCODING 1324
SWIDTH 562 0
DWIDTH 9 0
BBX 8 14 0 -2
BITMAP
DF
DF
DB
DB
DB
FF
7F
1B
1B
1B
1F
3F
33
33
ENDCHAR
STARTCHAR uni052D
ENCODING 1325
SWIDTH 562 0
DWIDTH 9 0
BBX 8 10 0 -2
BITMAP
DF
DF
DB
FF
7F
1B
1F
3F
33
33
ENDCHAR
STARTCHAR uni052E
ENCODING 1326
SWIDTH 562 0
DWIDTH 9 0
BBX 8 14 0 -2
BITMAP
3E
3E
36
36
36
36
36
36
36
66
E6
C7
03
03
ENDCHAR
STARTCHAR uni052F
ENCODING 1327
SWIDTH 562 0
DWIDTH 9 0
BBX 8 10 0 -2
BITMAP
3E
3E
36
36
36
66
E6
C7
03
03
ENDCHAR
STARTCHAR uni0531
ENCODING 1329
SWIDTH 562 0
DWIDTH 9 0
BBX 8 12 0 0
BITMAP
C6
C6
C6
C6
C6
C6
DE
DE
CE
EE
7F
3B
ENDCHAR
STARTCHAR uni0532
ENCODING 1330
SWIDTH 562 0
DWIDTH 9 0
BBX 8 12 0 0
BITMAP
3C
7E
E7
C3
C3
C0
C0
FF
FF
C0
C0
C0
ENDCHAR
STARTCHAR uni0533
ENCODING 1331
SWIDTH 562 0
DWIDTH 9 0
BBX 8 12 0 0
BITMAP
38
7C
EE
C6
C6
C6
C6
E6
7F
3F
06
06
ENDCHAR
STARTCHAR uni0534
ENCODING 1332
SWIDTH 562 0
DWIDTH 9 0
BBX 8 12 0 0
BITMAP
38
7C
EE
C6
C6
06
06
06
07
07
06
06
ENDCHAR
STARTCHAR uni0535
ENCODING 1333
SWIDTH 562 0
DWIDTH 9 0
BBX 8 12 0 0
BITMAP
C0
C0
C0
FF
FF
C0
C0
C3
C3
E7
7E
3C
ENDCHAR
STARTCHAR uni0536
ENCODING 1334
SWIDTH 562 0
DWIDTH 9 0
BBX 8 12 0 0
BITMAP
3C
7E
E7
C3
C3
03
03
07
CE
D8
FF
FF
ENDCHAR
STARTCHAR uni0537
ENCODING 1335
SWIDTH 562 0
DWIDTH 9 0
BBX 8 12 0 0
BITMAP
C0
C0
C0
FF
FF
C0
C0
C0
C0
C0
FE
FE
ENDCHAR
STARTCHAR uni0538
ENCODING 1336
SWIDTH 562 0
DWIDTH 9 0
BBX 8 12 0 0
BITMAP
3C
7E
E7
C3
C3
C0
C0
C0
C0
C0
FF
FF
ENDCHAR
STARTCHAR uni0539
ENCODING 1337
SWIDTH 562 0
DWIDTH 9 0
BBX 8 12 0 0
BITMAP
38
7C
EE
C6
C6
CF
DF
D6
D6
D6
DE
CC
ENDCHAR
STARTCHAR uni053A
ENCODING 1338
SWIDTH 562 0
DWIDTH 9 0
BBX 8 12 0 0
BITMAP
06
06
06
3F
7F
E6
C6
C6
C6
EE
7C
38
ENDCHAR
STARTCHAR uni053B
ENCODING 1339
SWIDTH 562 0
DWIDTH 9 0
BBX 8 12 0 0
BITMAP
C0
C0
C0
FC
FE
E7
C3
C3
C0
C0
C0
C0
ENDCHAR
STARTCHAR uni053C
ENCODING 1340
SWIDTH 562 0
DWIDTH 9 0
BBX 8 12 0 0
BITMAP
C0
C0
C0
C0
C0
C0
C0
C0
C0
C0
FF
FF
ENDCHAR
STARTCHAR uni053D
ENCODING 1341
SWIDTH 562 0
DWIDTH 9 0
BBX 8 12 0 0
BITMAP
C0
C0
C0
FB
FB
DB
DB
DB
DB
DB
DF
CE
ENDCHAR
STARTCHAR uni053E
ENCODING 1342
SWIDTH 562 0
DWIDTH 9 0
BBX 8 12 0 0
BITMAP
C7
CF
DC
FE
FF
1B
1B
1B
1B
1B
1F
0E
ENDCHAR
STARTCHAR uni053F
ENCODING 1343
SWIDTH 562 0
DWIDTH 9 0
BBX 8 12 0 0
BITMAP
C0
C0
C0
C0
C3
C3
E7
7F
3F
03
03
03
ENDCHAR
STARTCHAR uni0540
ENCODING 1344
SWIDTH 562 0
DWIDTH 9 0
BBX 8 12 0 0
BITMAP
FC
FE
07
03
07
FE
FE
07
03
03
03
03
ENDCHAR
STARTCHAR uni0541
ENCODING 1345
SWIDTH 562 0
DWIDTH 9 0
BBX 8 12 0 0
BITMAP
3C
7E
E7
C3
C3
07
06
7E
FC
DE
FF
73
ENDCHAR
STARTCHAR uni0542
ENCODING 1346
SWIDTH 562 0
DWIDTH 9 0
BBX 8 12 0 0
BITMAP
78
FC
CC
CC
0C
0C
0C
0C
0C
0C
0F
0F
ENDCHAR
STARTCHAR uni0543
ENCODING 1347
SWIDTH 562 0
DWIDTH 9 0
BBX 8 12 0 0
BITMAP
0F
1F
F8
F8
7C
EE
C7
C3
C3
C3
FF
FF
ENDCHAR
STARTCHAR uni0544
ENCODING 1348
SWIDTH 562 0
DWIDTH 9 0
BBX 8 12 0 0
BITMAP
CF
CF
CC
CC
CC
CC
CC
CC
CC
CC
FC
78
ENDCHAR
STARTCHAR uni0545
ENCODING 1349
SWIDTH 562 0
DWIDTH 9 0
BBX 8 12 0 0
BITMAP
3C
7E
67
03
07
FE
FE
07
03
C7
FE
7C
ENDCHAR
STARTCHAR uni0546
ENCODING 1350
SWIDTH 562 0
DWIDTH 9 0
BBX 8 12 0 0
BITMAP
E0
E0
60
60
60
60
60
63
63
77
3E
1C
ENDCHAR
STARTCHAR uni0547
ENCODING 1351
SWIDTH 562 0
DWIDTH 9 0
BBX 8 12 0 0
BITMAP
E0
F8
3E
7F
E3
C0
C0
C3
C3
E7
7E
3C
ENDCHAR
STARTCHAR uni0548
ENCODING 1352
SWIDTH 562 0
DWIDTH 9 0
BBX 8 12 0 0
BITMAP
3C
7E
E7
C3
C3
C3
C3
C3
C3
C3
C3
C3
ENDCHAR
STARTCHAR uni0549
ENCODING 1353
SWIDTH 562 0
DWIDTH 9 0
BBX 8 12 0 0
BITMAP
3C
7E
E7
C3
C3
03
03
07
7E
7C
1E
06
ENDCHAR
STARTCHAR uni054A
ENCODING 1354
SWIDTH 562 0
DWIDTH 9 0
BBX 8 12 0 0
BITMAP
3C
7E
FF
DB
DB
DB
1B
1B
1B
03
03
03
ENDCHAR
STARTCHAR uni054B
ENCODING 1355
SWIDTH 562 0
DWIDTH 9 0
BBX 8 12 0 0
BITMAP
3C
7E
E7
C3
F3
FB
1F
0F
CE
DC
FF
FF
ENDCHAR
STARTCHAR uni054C
ENCODING 1356
SWIDTH 562 0
DWIDTH 9 0
BBX 8 12 0 0
BITMAP
78
FC
CC
CC
CC
CC
CC
CF
CF
CC
CC
CC
ENDCHAR
STARTCHAR uni054D
ENCODING 1357
SWIDTH 562 0
DWIDTH 9 0
BBX 8 12 0 0
BITMAP
C3
C3
C3
C3
C3
C3
C3
C3
C3
E7
7E
3C
ENDCHAR
STARTCHAR uni054E
ENCODING 1358
SWIDTH 562 0
DWIDTH 9 0
BBX 8 12 0 0
BITMAP
06
06
06
06
C6
C6
EE
7E
3E
06
07
07
ENDCHAR
STARTCHAR uni054F
ENCODING 1359
SWIDTH 562 0
DWIDTH 9 0
BBX 8 12 0 0
BITMAP
3C
7E
E7
C3
C0
FE
7F
03
C3
E7
7E
3C
ENDCHAR
STARTCHAR uni0550
ENCODING 1360
SWIDTH 562 0
DWIDTH 9 0
BBX 8 12 0 0
BITMAP
3C
7E
E7
C3
C3
C0
C0
C0
C0
C0
C0
C0
ENDCHAR
STARTCHAR uni0551
ENCODING 1361
SWIDTH 562 0
DWIDTH 9 0
BBX 8 12 0 0
BITMAP
3C
7E
E7
C3
E7
FE
FF
03
03
E7
7E
3C
ENDCHAR
STARTCHAR uni0552
ENCODING 1362
SWIDTH 562 0
DWIDTH 9 0
BBX 8 12 0 0
BITMAP
C0
C0
C0
FF
FF
C0
C0
C0
C0
C0
C0
C0
ENDCHAR
STARTCHAR uni0553
ENCODING 1363
SWIDTH 562 0
DWIDTH 9 0
BBX 8 12 0 0
BITMAP
18
18
7E
FF
DB
DB
DB
DB
FF
7E
18
18
ENDCHAR
STARTCHAR uni0554
ENCODING 1364
SWIDTH 562 0
DWIDTH 9 0
BBX 8 12 0 0
BITMAP
1E
3F
33
33
3F
3E
30
30
FF
FF
30
30
ENDCHAR
STARTCHAR uni0555
ENCODING 1365
SWIDTH 562 0
DWIDTH 9 0
BBX 8 12 0 0
BITMAP
7E
FF
C3
C3
C3
C3
C3
C3
C3
C3
FF
7E
ENDCHAR
STARTCHAR uni0556
ENCODING 1366
SWIDTH 562 0
DWIDTH 9 0
BBX 8 12 0 0
BITMAP
78
F8
D8
D8
FE
7F
1B
1B
1B
DB
FF
7E
ENDCHAR
STARTCHAR uni0559
ENCODING 1369
SWIDTH 562 0
DWIDTH 9 0
BBX 3 5 2 7
BITMAP
60
E0
C0
E0
60
ENDCHAR
STARTCHAR uni055A
ENCODING 1370
SWIDTH 562 0
DWIDTH 9 0
BBX 3 4 2 8
BITMAP
60
60
E0
C0
ENDCHAR
STARTCHAR uni055B
ENCODING 1371
SWIDTH 562 0
DWIDTH 9 0
BBX 4 4 2 8
BITMAP
30
70
E0
C0
ENDCHAR
STARTCHAR uni055C
ENCODING 1372
SWIDTH 562 0
DWIDTH 9 0
BBX 7 3 1 9
BITMAP
76
FE
DC
ENDCHAR
STARTCHAR uni055D
ENCODING 1373
SWIDTH 562 0
DWIDTH 9 0
BBX 4 4 2 8
BITMAP
C0
E0
70
30
ENDCHAR
STARTCHAR uni055E
ENCODING 1374
SWIDTH 562 0
DWIDTH 9 0
BBX 5 5 2 7
BITMAP
F8
88
A8
B8
80
ENDCHAR
STARTCHAR uni055F
ENCODING 1375
SWIDTH 562 0
DWIDTH 9 0
BBX 6 3 1 9
BITMAP
60
C0
FC
ENDCHAR
STARTCHAR uni560
ENCODING 1376
SWIDTH 562 0
DWIDTH 9 0
BBX 8 8 0 0
BITMAP
FE
FF
DB
DB
DB
DB
DB
DB
ENDCHAR
STARTCHAR uni0561
ENCODING 1377
SWIDTH 562 0
DWIDTH 9 0
BBX 8 8 0 0
BITMAP
DB
DB
DB
DB
DB
DB
FF
7F
ENDCHAR
STARTCHAR uni0562
ENCODING 1378
SWIDTH 562 0
DWIDTH 9 0
BBX 8 12 0 -4
BITMAP
FC
FE
E7
C3
C0
C0
FF
FF
C0
C0
C0
C0
ENDCHAR
STARTCHAR uni0563
ENCODING 1379
SWIDTH 562 0
DWIDTH 9 0
BBX 8 11 0 -3
BITMAP
3C
7C
EC
CC
CC
EC
7F
3F
0C
0C
0C
ENDCHAR
STARTCHAR uni0564
ENCODING 1380
SWIDTH 562 0
DWIDTH 9 0
BBX 8 12 0 -4
BITMAP
F8
FC
CE
C6
C6
C6
C7
C7
06
06
06
06
ENDCHAR
STARTCHAR uni0565
ENCODING 1381
SWIDTH 562 0
DWIDTH 9 0
BBX 8 11 0 0
BITMAP
C0
C0
C0
FF
FF
C0
C0
C3
E7
7F
3F
ENDCHAR
STARTCHAR uni0566
ENCODING 1382
SWIDTH 562 0
DWIDTH 9 0
BBX 8 12 0 -4
BITMAP
3C
7C
EC
CC
CC
EC
7C
3C
0C
0C
0F
0F
ENDCHAR
STARTCHAR uni0567
ENCODING 1383
SWIDTH 562 0
DWIDTH 9 0
BBX 8 11 0 0
BITMAP
C0
C0
C0
FF
FF
C0
C0
C0
C0
FC
FC
ENDCHAR
STARTCHAR uni0568
ENCODING 1384
SWIDTH 562 0
DWIDTH 9 0
BBX 8 12 0 -4
BITMAP
FC
FE
C7
C3
C3
C3
C3
C3
C0
C0
FF
FF
ENDCHAR
STARTCHAR uni0569
ENCODING 1385
SWIDTH 562 0
DWIDTH 9 0
BBX 8 11 0 -3
BITMAP
FC
FE
C6
CF
DF
D6
DE
CC
C0
C0
C0
ENDCHAR
STARTCHAR uni056A
ENCODING 1386
SWIDTH 562 0
DWIDTH 9 0
BBX 8 11 0 0
BITMAP
06
06
06
3F
7F
E6
C6
C6
EE
7C
38
ENDCHAR
STARTCHAR uni056B
ENCODING 1387
SWIDTH 562 0
DWIDTH 9 0
BBX 8 14 0 -3
BITMAP
C0
C0
C0
FC
FE
C7
C3
C3
C3
C3
C3
C0
C0
C0
ENDCHAR
STARTCHAR uni056C
ENCODING 1388
SWIDTH 562 0
DWIDTH 9 0
BBX 4 12 3 -4
BITMAP
C0
C0
C0
C0
C0
C0
C0
C0
C0
C0
F0
F0
ENDCHAR
STARTCHAR uni056D
ENCODING 1389
SWIDTH 562 0
DWIDTH 9 0
BBX 8 14 0 -3
BITMAP
C0
C0
C0
FB
FB
DB
DB
DB
DB
DF
CE
C0
C0
C0
ENDCHAR
STARTCHAR uni056E
ENCODING 1390
SWIDTH 562 0
DWIDTH 9 0
BBX 8 11 0 0
BITMAP
30
60
30
3F
7F
E6
C3
C3
E7
7E
3C
ENDCHAR
STARTCHAR uni056F
ENCODING 1391
SWIDTH 562 0
DWIDTH 9 0
BBX 8 14 0 -3
BITMAP
C0
C0
C0
C3
C3
C3
C3
C3
E7
7F
3F
03
03
03
ENDCHAR
STARTCHAR uni0570
ENCODING 1392
SWIDTH 562 0
DWIDTH 9 0
BBX 8 11 0 0
BITMAP
C0
C0
C0
FC
FE
E7
C3
C3
C3
C3
C3
ENDCHAR
STARTCHAR uni0571
ENCODING 1393
SWIDTH 562 0
DWIDTH 9 0
BBX 8 12 0 0
BITMAP
18
1C
0C
18
3C
7E
E7
C3
C3
E7
7F
3F
ENDCHAR
STARTCHAR uni0572
ENCODING 1394
SWIDTH 562 0
DWIDTH 9 0
BBX 8 12 0 -4
BITMAP
F8
FC
EE
C6
C6
C6
C6
C6
06
06
07
07
ENDCHAR
STARTCHAR uni0573
ENCODING 1395
SWIDTH 562 0
DWIDTH 9 0
BBX 8 12 0 0
BITMAP
0C
1C
38
30
78
7C
EE
C7
C3
E7
7F
3F
ENDCHAR
STARTCHAR uni0574
ENCODING 1396
SWIDTH 562 0
DWIDTH 9 0
BBX 8 11 0 0
BITMAP
07
07
06
C6
C6
C6
C6
C6
EE
7E
3E
ENDCHAR
STARTCHAR uni0575
ENCODING 1397
SWIDTH 562 0
DWIDTH 9 0
BBX 5 12 1 -4
BITMAP
18
18
18
18
18
18
18
18
18
38
F0
E0
ENDCHAR
STARTCHAR uni0576
ENCODING 1398
SWIDTH 562 0
DWIDTH 9 0
BBX 8 11 0 0
BITMAP
E0
E0
60
63
63
63
63
63
77
3F
1F
ENDCHAR
STARTCHAR uni0577
ENCODING 1399
SWIDTH 562 0
DWIDTH 9 0
BBX 8 10 0 -2
BITMAP
7E
FF
C3
07
1E
7C
F0
C0
FF
7F
ENDCHAR
STARTCHAR uni0578
ENCODING 1400
SWIDTH 562 0
DWIDTH 9 0
BBX 8 8 0 0
BITMAP
FC
FE
E7
C3
C3
C3
C3
C3
ENDCHAR
STARTCHAR uni0579
ENCODING 1401
SWIDTH 562 0
DWIDTH 9 0
BBX 9 12 0 -3
BITMAP
1800
3800
3000
3800
1C00
0C00
1C00
7800
F000
C000
FF80
7F80
ENDCHAR
STARTCHAR uni057A
ENCODING 1402
SWIDTH 562 0
DWIDTH 9 0
BBX 8 11 0 -3
BITMAP
DB
DB
DB
DB
DB
DB
FF
7F
03
03
03
ENDCHAR
STARTCHAR uni057B
ENCODING 1403
SWIDTH 562 0
DWIDTH 9 0
BBX 8 12 0 -4
BITMAP
3C
7E
E7
C3
E3
76
3C
38
70
E0
FF
7F
ENDCHAR
STARTCHAR uni057C
ENCODING 1404
SWIDTH 562 0
DWIDTH 9 0
BBX 8 8 0 0
BITMAP
F8
FC
EE
C6
C6
CC
CF
CF
ENDCHAR
STARTCHAR uni057D
ENCODING 1405
SWIDTH 562 0
DWIDTH 9 0
BBX 8 8 0 0
BITMAP
C3
C3
C3
C3
C3
E7
7F
3F
ENDCHAR
STARTCHAR uni057E
ENCODING 1406
SWIDTH 562 0
DWIDTH 9 0
BBX 8 14 0 -3
BITMAP
06
06
06
C6
C6
C6
C6
C6
EE
7E
3E
06
07
07
ENDCHAR
STARTCHAR uni057F
ENCODING 1407
SWIDTH 562 0
DWIDTH 9 0
BBX 8 8 0 0
BITMAP
DE
DF
DB
DB
DB
DB
FB
7B
ENDCHAR
STARTCHAR uni0580
ENCODING 1408
SWIDTH 562 0
DWIDTH 9 0
BBX 8 11 0 -3
BITMAP
FC
FE
E7
C3
C3
C3
C3
C3
C0
C0
C0
ENDCHAR
STARTCHAR uni0581
ENCODING 1409
SWIDTH 562 0
DWIDTH 9 0
BBX 8 12 0 -4
BITMAP
3F
7F
E7
C3
C3
E7
7F
3F
03
07
FE
FC
ENDCHAR
STARTCHAR uni0582
ENCODING 1410
SWIDTH 562 0
DWIDTH 9 0
BBX 8 8 0 0
BITMAP
C0
C0
C0
C0
C0
C0
FF
FF
ENDCHAR
STARTCHAR uni0583
ENCODING 1411
SWIDTH 562 0
DWIDTH 9 0
BBX 8 14 0 -3
BITMAP
18
18
18
DE
DF
DB
DB
DB
DB
FB
7B
18
18
18
ENDCHAR
STARTCHAR uni0584
ENCODING 1412
SWIDTH 562 0
DWIDTH 9 0
BBX 8 12 0 -4
BITMAP
7C
7E
77
63
63
77
7E
7C
60
FF
FF
60
ENDCHAR
STARTCHAR uni0585
ENCODING 1413
SWIDTH 562 0
DWIDTH 9 0
BBX 8 8 0 0
BITMAP
3C
7E
E7
C3
C3
E7
7E
3C
ENDCHAR
STARTCHAR uni0586
ENCODING 1414
SWIDTH 562 0
DWIDTH 9 0
BBX 8 13 0 -3
BITMAP
78
F8
D8
FE
7F
1B
1B
DB
FF
7E
18
18
18
ENDCHAR
STARTCHAR uni0587
ENCODING 1415
SWIDTH 562 0
DWIDTH 9 0
BBX 8 11 0 0
BITMAP
C0
C0
C0
C6
C6
C6
C6
C6
EE
7F
3F
ENDCHAR
STARTCHAR uni588
ENCODING 1416
SWIDTH 562 0
DWIDTH 9 0
BBX 7 12 1 -4
BITMAP
18
18
18
18
18
18
7E
7E
18
38
F0
E0
ENDCHAR
STARTCHAR uni0589
ENCODING 1417
SWIDTH 562 0
DWIDTH 9 0
BBX 2 6 3 1
BITMAP
C0
C0
00
00
C0
C0
ENDCHAR
STARTCHAR uni058A
ENCODING 1418
SWIDTH 562 0
DWIDTH 9 0
BBX 6 3 2 -2
BITMAP
CC
FC
78
ENDCHAR
STARTCHAR uni58D
ENCODING 1421
SWIDTH 562 0
DWIDTH 9 0
BBX 9 11 0 -1
BITMAP
3E00
6B00
D380
C880
8A80
DD80
A880
8980
E580
6B00
3E00
ENDCHAR
STARTCHAR uni58E
ENCODING 1422
SWIDTH 562 0
DWIDTH 9 0
BBX 9 11 0 -1
BITMAP
3E00
6B00
E580
8980
A880
DD80
8A80
C880
D380
6B00
3E00
ENDCHAR
STARTCHAR uni58F
ENCODING 1423
SWIDTH 562 0
DWIDTH 9 0
BBX 8 12 0 0
BITMAP
38
7C
EE
C6
C6
06
0F
0F
06
0F
0F
06
ENDCHAR
STARTCHAR afii57799
ENCODING 1456
SWIDTH 562 0
DWIDTH 9 0
BBX 1 3 4 -4
BITMAP
80
00
80
ENDCHAR
STARTCHAR afii57801
ENCODING 1457
SWIDTH 562 0
DWIDTH 9 0
BBX 5 3 1 -4
BITMAP
A8
00
48
ENDCHAR
STARTCHAR afii57800
ENCODING 1458
SWIDTH 562 0
DWIDTH 9 0
BBX 5 3 1 -4
BITMAP
E8
00
08
ENDCHAR
STARTCHAR afii57802
ENCODING 1459
SWIDTH 562 0
DWIDTH 9 0
BBX 5 3 1 -4
BITMAP
E8
40
48
ENDCHAR
STARTCHAR afii57793
ENCODING 1460
SWIDTH 562 0
DWIDTH 9 0
BBX 2 2 3 -3
BITMAP
C0
C0
ENDCHAR
STARTCHAR afii57794
ENCODING 1461
SWIDTH 562 0
DWIDTH 9 0
BBX 5 2 1 -3
BITMAP
D8
D8
ENDCHAR
STARTCHAR afii57795
ENCODING 1462
SWIDTH 562 0
DWIDTH 9 0
BBX 6 3 1 -4
BITMAP
CC
00
30
ENDCHAR
STARTCHAR afii57798
ENCODING 1463
SWIDTH 562 0
DWIDTH 9 0
BBX 4 1 2 -2
BITMAP
F0
ENDCHAR
STARTCHAR afii57797
ENCODING 1464
SWIDTH 562 0
DWIDTH 9 0
BBX 3 3 2 -4
BITMAP
E0
40
40
ENDCHAR
STARTCHAR afii57806
ENCODING 1465
SWIDTH 562 0
DWIDTH 9 0
BBX 2 2 1 9
BITMAP
C0
C0
ENDCHAR
STARTCHAR uni05BA
ENCODING 1466
SWIDTH 562 0
DWIDTH 9 0
BBX 2 2 3 9
BITMAP
C0
C0
ENDCHAR
STARTCHAR afii57796
ENCODING 1467
SWIDTH 562 0
DWIDTH 9 0
BBX 3 3 2 -4
BITMAP
80
40
20
ENDCHAR
STARTCHAR afii57807
ENCODING 1468
SWIDTH 562 0
DWIDTH 9 0
BBX 2 2 3 3
BITMAP
C0
C0
ENDCHAR
STARTCHAR afii57839
ENCODING 1469
SWIDTH 562 0
DWIDTH 9 0
BBX 1 3 3 -4
BITMAP
80
80
80
ENDCHAR
STARTCHAR afii57645
ENCODING 1470
SWIDTH 562 0
DWIDTH 9 0
BBX 3 2 2 6
BITMAP
E0
E0
ENDCHAR
STARTCHAR afii57841
ENCODING 1471
SWIDTH 562 0
DWIDTH 9 0
BBX 4 2 2 9
BITMAP
F0
F0
ENDCHAR
STARTCHAR afii57842
ENCODING 1472
SWIDTH 562 0
DWIDTH 9 0
BBX 2 8 3 0
BITMAP
40
C0
C0
C0
C0
C0
C0
80
ENDCHAR
STARTCHAR afii57804
ENCODING 1473
SWIDTH 562 0
DWIDTH 9 0
BBX 2 2 6 9
BITMAP
C0
C0
ENDCHAR
STARTCHAR afii57803
ENCODING 1474
SWIDTH 562 0
DWIDTH 9 0
BBX 2 2 0 9
BITMAP
C0
C0
ENDCHAR
STARTCHAR afii57658
ENCODING 1475
SWIDTH 562 0
DWIDTH 9 0
BBX 2 8 3 0
BITMAP
C0
C0
00
00
00
00
C0
C0
ENDCHAR
STARTCHAR uni05C4
ENCODING 1476
SWIDTH 562 0
DWIDTH 9 0
BBX 3 3 3 9
BITMAP
40
E0
40
ENDCHAR
STARTCHAR uni05C5
ENCODING 1477
SWIDTH 562 0
DWIDTH 9 0
BBX 3 3 3 -4
BITMAP
40
E0
40
ENDCHAR
STARTCHAR uni05C6
ENCODING 1478
SWIDTH 562 0
DWIDTH 9 0
BBX 4 8 2 0
BITMAP
70
F0
C0
C0
C0
C0
F0
F0
ENDCHAR
STARTCHAR afii57664
ENCODING 1488
SWIDTH 562 0
DWIDTH 9 0
BBX 8 8 0 0
BITMAP
C3
E3
73
7F
FE
CE
C7
C3
ENDCHAR
STARTCHAR afii57665
ENCODING 1489
SWIDTH 562 0
DWIDTH 9 0
BBX 8 8 0 0
BITMAP
FC
FE
06
06
06
06
FF
FF
ENDCHAR
STARTCHAR afii57666
ENCODING 1490
SWIDTH 562 0
DWIDTH 9 0
BBX 6 8 1 0
BITMAP
E0
F0
30
30
38
78
FC
CC
ENDCHAR
STARTCHAR afii57667
ENCODING 1491
SWIDTH 562 0
DWIDTH 9 0
BBX 8 8 0 0
BITMAP
FF
FF
06
06
06
06
06
06
ENDCHAR
STARTCHAR afii57668
ENCODING 1492
SWIDTH 562 0
DWIDTH 9 0
BBX 8 8 0 0
BITMAP
FC
FE
07
03
C3
C3
C3
C3
ENDCHAR
STARTCHAR afii57669
ENCODING 1493
SWIDTH 562 0
DWIDTH 9 0
BBX 4 8 2 0
BITMAP
E0
F0
30
30
30
30
30
30
ENDCHAR
STARTCHAR afii57670
ENCODING 1494
SWIDTH 562 0
DWIDTH 9 0
BBX 4 8 2 0
BITMAP
F0
F0
60
60
60
60
60
60
ENDCHAR
STARTCHAR afii57671
ENCODING 1495
SWIDTH 562 0
DWIDTH 9 0
BBX 8 8 0 0
BITMAP
FC
FE
C7
C3
C3
C3
C3
C3
ENDCHAR
STARTCHAR afii57672
ENCODING 1496
SWIDTH 562 0
DWIDTH 9 0
BBX 8 8 0 0
BITMAP
CE
CF
C3
C3
C3
E7
7E
3C
ENDCHAR
STARTCHAR afii57673
ENCODING 1497
SWIDTH 562 0
DWIDTH 9 0
BBX 3 4 2 4
BITMAP
E0
E0
60
60
ENDCHAR
STARTCHAR afii57674
ENCODING 1498
SWIDTH 562 0
DWIDTH 9 0
BBX 8 11 0 -3
BITMAP
FC
FE
07
03
03
03
03
03
03
03
03
ENDCHAR
STARTCHAR afii57675
ENCODING 1499
SWIDTH 562 0
DWIDTH 9 0
BBX 8 8 0 0
BITMAP
FE
FF
03
03
03
03
FF
FE
ENDCHAR
STARTCHAR afii57676
ENCODING 1500
SWIDTH 562 0
DWIDTH 9 0
BBX 8 13 0 -2
BITMAP
C0
C0
C0
FF
FF
03
03
07
0E
1C
18
18
18
ENDCHAR
STARTCHAR afii57677
ENCODING 1501
SWIDTH 562 0
DWIDTH 9 0
BBX 8 8 0 0
BITMAP
FC
FE
C7
C3
C3
C3
FF
FF
ENDCHAR
STARTCHAR afii57678
ENCODING 1502
SWIDTH 562 0
DWIDTH 9 0
BBX 8 8 0 0
BITMAP
DC
FE
77
63
C3
C3
CF
CF
ENDCHAR
STARTCHAR afii57679
ENCODING 1503
SWIDTH 562 0
DWIDTH 9 0
BBX 3 11 2 -3
BITMAP
E0
E0
60
60
60
60
60
60
60
60
60
ENDCHAR
STARTCHAR afii57680
ENCODING 1504
SWIDTH 562 0
DWIDTH 9 0
BBX 4 8 2 0
BITMAP
E0
F0
30
30
30
30
F0
F0
ENDCHAR
STARTCHAR afii57681
ENCODING 1505
SWIDTH 562 0
DWIDTH 9 0
BBX 8 8 0 0
BITMAP
FE
FF
63
63
63
63
7F
3E
ENDCHAR
STARTCHAR afii57682
ENCODING 1506
SWIDTH 562 0
DWIDTH 9 0
BBX 8 9 0 -1
BITMAP
C3
C3
C3
63
63
67
3E
FC
E0
ENDCHAR
STARTCHAR afii57683
ENCODING 1507
SWIDTH 562 0
DWIDTH 9 0
BBX 8 11 0 -3
BITMAP
FC
FE
C7
C3
F3
73
03
03
03
03
03
ENDCHAR
STARTCHAR afii57684
ENCODING 1508
SWIDTH 562 0
DWIDTH 9 0
BBX 8 8 0 0
BITMAP
FE
FF
C3
F3
73
03
FF
FE
ENDCHAR
STARTCHAR afii57685
ENCODING 1509
SWIDTH 562 0
DWIDTH 9 0
BBX 8 11 0 -3
BITMAP
C3
C3
66
7E
78
30
30
30
30
30
30
ENDCHAR
STARTCHAR afii57686
ENCODING 1510
SWIDTH 562 0
DWIDTH 9 0
BBX 8 8 0 0
BITMAP
C3
E3
77
3E
1C
0E
FF
FF
ENDCHAR
STARTCHAR afii57687
ENCODING 1511
SWIDTH 562 0
DWIDTH 9 0
BBX 8 10 0 -2
BITMAP
FE
FF
03
03
C6
CE
CC
C0
C0
C0
ENDCHAR
STARTCHAR afii57688
ENCODING 1512
SWIDTH 562 0
DWIDTH 9 0
BBX 8 8 0 0
BITMAP
FC
FE
07
03
03
03
03
03
ENDCHAR
STARTCHAR afii57689
ENCODING 1513
SWIDTH 562 0
DWIDTH 9 0
BBX 8 8 0 0
BITMAP
DB
DB
DB
FB
F3
C7
FE
FC
ENDCHAR
STARTCHAR afii57690
ENCODING 1514
SWIDTH 562 0
DWIDTH 9 0
BBX 8 8 0 0
BITMAP
FC
FE
67
63
63
63
E3
C3
ENDCHAR
STARTCHAR uni5EF
ENCODING 1519
SWIDTH 562 0
DWIDTH 9 0
BBX 7 9 1 3
BITMAP
38
38
18
18
00
EE
EE
66
66
ENDCHAR
STARTCHAR afii57716
ENCODING 1520
SWIDTH 562 0
DWIDTH 9 0
BBX 7 8 0 0
BITMAP
EE
EE
66
66
66
66
66
66
ENDCHAR
STARTCHAR afii57717
ENCODING 1521
SWIDTH 562 0
DWIDTH 9 0
BBX 8 8 0 0
BITMAP
EE
EF
63
63
03
03
03
03
ENDCHAR
STARTCHAR afii57718
ENCODING 1522
SWIDTH 562 0
DWIDTH 9 0
BBX 7 4 0 4
BITMAP
EE
EE
66
66
ENDCHAR
STARTCHAR uni05F3
ENCODING 1523
SWIDTH 562 0
DWIDTH 9 0
BBX 4 4 2 5
BITMAP
30
70
E0
C0
ENDCHAR
STARTCHAR uni05F4
ENCODING 1524
SWIDTH 562 0
DWIDTH 9 0
BBX 8 4 0 5
BITMAP
33
77
EE
CC
ENDCHAR
STARTCHAR uni600
ENCODING 1536
SWIDTH 562 0
DWIDTH 9 0
BBX 9 4 0 -3
BITMAP
0100
0100
FF80
FF80
ENDCHAR
STARTCHAR uni601
ENCODING 1537
SWIDTH 562 0
DWIDTH 9 0
BBX 9 3 0 -4
BITMAP
A800
BF80
E000
ENDCHAR
STARTCHAR uni602
ENCODING 1538
SWIDTH 562 0
DWIDTH 9 0
BBX 9 5 0 -3
BITMAP
7000
F800
D800
FF80
7F80
ENDCHAR
STARTCHAR uni603
ENCODING 1539
SWIDTH 562 0
DWIDTH 9 0
BBX 9 5 0 -3
BITMAP
0700
1780
1D80
7F80
EF00
ENDCHAR
STARTCHAR uni604
ENCODING 1540
SWIDTH 562 0
DWIDTH 9 0
BBX 9 4 0 -3
BITMAP
0280
0F80
0800
FC00
ENDCHAR
STARTCHAR uni605
ENCODING 1541
SWIDTH 562 0
DWIDTH 9 0
BBX 9 3 0 9
BITMAP
7000
FF80
DF80
ENDCHAR
STARTCHAR uni606
ENCODING 1542
SWIDTH 562 0
DWIDTH 9 0
BBX 9 12 0 -1
BITMAP
1500
1F00
1800
C800
EC00
6400
7000
3000
3980
1B80
1F00
0E00
ENDCHAR
STARTCHAR uni607
ENCODING 1543
SWIDTH 562 0
DWIDTH 9 0
BBX 9 12 0 -1
BITMAP
0E00
0800
0C00
C600
E400
6400
7700
3000
3980
1B80
1F00
0E00
ENDCHAR
STARTCHAR uni608
ENCODING 1544
SWIDTH 562 0
DWIDTH 9 0
BBX 9 7 0 -1
BITMAP
0D80
5F80
D780
DF00
C600
FE00
7C00
ENDCHAR
STARTCHAR uni609
ENCODING 1545
SWIDTH 562 0
DWIDTH 9 0
BBX 8 16 1 -4
BITMAP
04
04
04
CC
C8
08
18
10
10
30
20
3B
7B
40
40
40
ENDCHAR
STARTCHAR uni60A
ENCODING 1546
SWIDTH 562 0
DWIDTH 9 0
BBX 8 16 1 -4
BITMAP
04
04
04
CC
C8
08
18
10
10
30
20
35
75
40
40
40
ENDCHAR
STARTCHAR uni60B
ENCODING 1547
SWIDTH 562 0
DWIDTH 9 0
BBX 6 14 1 -3
BITMAP
30
30
00
1C
14
1C
0C
FC
FC
00
30
30
30
30
ENDCHAR
STARTCHAR uni60C
ENCODING 1548
SWIDTH 562 0
DWIDTH 9 0
BBX 2 4 3 -1
BITMAP
C0
80
C0
C0
ENDCHAR
STARTCHAR uni60D
ENCODING 1549
SWIDTH 562 0
DWIDTH 9 0
BBX 4 3 1 0
BITMAP
30
70
C0
ENDCHAR
STARTCHAR uni60E
ENCODING 1550
SWIDTH 562 0
DWIDTH 9 0
BBX 8 5 0 2
BITMAP
70
F8
D8
FF
7F
ENDCHAR
STARTCHAR uni60F
ENCODING 1551
SWIDTH 562 0
DWIDTH 9 0
BBX 8 14 0 -4
BITMAP
78
FC
C0
EE
7E
78
E0
C0
DE
FF
F3
7F
FE
C0
ENDCHAR
STARTCHAR uni610
ENCODING 1552
SWIDTH 562 0
DWIDTH 9 0
BBX 7 4 1 8
BITMAP
1E
32
FE
80
ENDCHAR
STARTCHAR uni611
ENCODING 1553
SWIDTH 562 0
DWIDTH 9 0
BBX 6 5 1 7
BITMAP
1C
10
FC
80
80
ENDCHAR
STARTCHAR uni612
ENCODING 1554
SWIDTH 562 0
DWIDTH 9 0
BBX 7 4 1 8
BITMAP
FA
32
66
CC
ENDCHAR
STARTCHAR uni613
ENCODING 1555
SWIDTH 562 0
DWIDTH 9 0
BBX 8 6 0 6
BITMAP
80
39
69
F9
83
06
ENDCHAR
STARTCHAR uni614
ENCODING 1556
SWIDTH 562 0
DWIDTH 9 0
BBX 8 3 0 8
BITMAP
01
F9
0F
ENDCHAR
STARTCHAR uni615
ENCODING 1557
SWIDTH 562 0
DWIDTH 9 0
BBX 7 4 1 8
BITMAP
40
5E
72
FE
ENDCHAR
STARTCHAR uni616
ENCODING 1558
SWIDTH 562 0
DWIDTH 9 0
BBX 8 6 0 6
BITMAP
28
28
68
C8
80
FF
ENDCHAR
STARTCHAR uni617
ENCODING 1559
SWIDTH 562 0
DWIDTH 9 0
BBX 4 5 2 7
BITMAP
10
00
10
30
E0
ENDCHAR
STARTCHAR uni618
ENCODING 1560
SWIDTH 562 0
DWIDTH 9 0
BBX 3 2 3 10
BITMAP
60
C0
ENDCHAR
STARTCHAR uni619
ENCODING 1561
SWIDTH 562 0
DWIDTH 9 0
BBX 3 3 3 9
BITMAP
60
60
C0
ENDCHAR
STARTCHAR uni61A
ENCODING 1562
SWIDTH 562 0
DWIDTH 9 0
BBX 3 2 3 -4
BITMAP
60
C0
ENDCHAR
STARTCHAR uni61B
ENCODING 1563
SWIDTH 562 0
DWIDTH 9 0
BBX 2 8 3 1
BITMAP
C0
80
C0
C0
00
00
C0
C0
ENDCHAR
STARTCHAR uni61C
ENCODING 1564
SWIDTH 562 0
DWIDTH 9 0
BBX 9 16 0 -4
BITMAP
F000
9000
F000
9000
9000
0000
2000
2000
2000
3C00
0000
0F80
0A80
0A80
0A80
0A80
ENDCHAR
STARTCHAR uni61E
ENCODING 1566
SWIDTH 562 0
DWIDTH 9 0
BBX 5 5 2 2
BITMAP
30
30
00
D8
D8
ENDCHAR
STARTCHAR uni61F
ENCODING 1567
SWIDTH 562 0
DWIDTH 9 0
BBX 5 11 2 1
BITMAP
08
F8
F8
C0
C0
E0
60
20
00
30
30
ENDCHAR
STARTCHAR uni620
ENCODING 1568
SWIDTH 562 0
DWIDTH 9 0
BBX 8 11 0 -4
BITMAP
07
0F
0C
4F
C7
C3
FF
7E
38
28
38
ENDCHAR
STARTCHAR afii57409
ENCODING 1569
SWIDTH 562 0
DWIDTH 9 0
BBX 5 7 2 1
BITMAP
70
F0
C0
E0
78
F8
E0
ENDCHAR
STARTCHAR afii57410
ENCODING 1570
SWIDTH 562 0
DWIDTH 9 0
BBX 7 10 1 2
BITMAP
26
7C
C8
30
30
30
30
30
30
30
ENDCHAR
STARTCHAR afii57411
ENCODING 1571
SWIDTH 562 0
DWIDTH 9 0
BBX 3 10 2 2
BITMAP
60
40
E0
80
60
60
60
60
60
60
ENDCHAR
STARTCHAR afii57412
ENCODING 1572
SWIDTH 562 0
DWIDTH 9 0
BBX 8 14 0 -2
BITMAP
06
04
0E
08
00
0E
1F
1B
1F
0F
03
E7
7E
3C
ENDCHAR
STARTCHAR afii57413
ENCODING 1573
SWIDTH 562 0
DWIDTH 9 0
BBX 3 15 2 -3
BITMAP
60
60
60
60
60
60
60
60
60
60
00
60
40
E0
80
ENDCHAR
STARTCHAR afii57414
ENCODING 1574
SWIDTH 562 0
DWIDTH 9 0
BBX 8 11 0 -2
BITMAP
60
40
E7
8F
0C
4F
C7
C3
E7
7E
3C
ENDCHAR
STARTCHAR afii57415
ENCODING 1575
SWIDTH 562 0
DWIDTH 9 0
BBX 2 10 3 2
BITMAP
C0
C0
C0
C0
C0
C0
C0
C0
C0
C0
ENDCHAR
STARTCHAR afii57416
ENCODING 1576
SWIDTH 562 0
DWIDTH 9 0
BBX 8 8 0 -1
BITMAP
C3
C3
C3
FF
7E
00
18
18
ENDCHAR
STARTCHAR afii57417
ENCODING 1577
SWIDTH 562 0
DWIDTH 9 0
BBX 7 9 0 2
BITMAP
18
D8
C0
18
1C
3E
36
3E
1C
ENDCHAR
STARTCHAR afii57418
ENCODING 1578
SWIDTH 562 0
DWIDTH 9 0
BBX 8 9 0 2
BITMAP
0C
6C
60
00
C3
C3
C3
FF
7E
ENDCHAR
STARTCHAR afii57419
ENCODING 1579
SWIDTH 562 0
DWIDTH 9 0
BBX 8 10 0 2
BITMAP
30
30
06
36
30
03
C3
C3
FF
7E
ENDCHAR
STARTCHAR uni62C
ENCODING 1580
SWIDTH 562 0
DWIDTH 9 0
BBX 7 11 0 -4
BITMAP
F8
FC
1E
3E
70
E0
CC
CC
E0
7E
3E
ENDCHAR
STARTCHAR uni62D
ENCODING 1581
SWIDTH 562 0
DWIDTH 9 0
BBX 7 11 0 -4
BITMAP
F8
FC
1E
3E
70
E0
C0
C0
E0
7E
3E
ENDCHAR
STARTCHAR uni62E
ENCODING 1582
SWIDTH 562 0
DWIDTH 9 0
BBX 7 14 0 -4
BITMAP
18
18
00
F8
FC
1E
3E
70
E0
C0
C0
E0
7E
3E
ENDCHAR
STARTCHAR afii57423
ENCODING 1583
SWIDTH 562 0
DWIDTH 9 0
BBX 6 6 0 2
BITMAP
18
1C
0C
0C
FC
F8
ENDCHAR
STARTCHAR afii57424
ENCODING 1584
SWIDTH 562 0
DWIDTH 9 0
BBX 6 9 0 2
BITMAP
18
18
00
18
1C
0C
0C
FC
F8
ENDCHAR
STARTCHAR afii57425
ENCODING 1585
SWIDTH 562 0
DWIDTH 9 0
BBX 6 8 0 -2
BITMAP
0C
0C
0C
0C
0C
1C
F8
70
ENDCHAR
STARTCHAR afii57426
ENCODING 1586
SWIDTH 562 0
DWIDTH 9 0
BBX 6 11 0 -2
BITMAP
18
18
00
0C
0C
0C
0C
0C
1C
F8
70
ENDCHAR
STARTCHAR afii57427
ENCODING 1587
SWIDTH 562 0
DWIDTH 9 0
BBX 8 8 0 -2
BITMAP
15
55
DF
DF
D8
D8
F8
70
ENDCHAR
STARTCHAR afii57428
ENCODING 1588
SWIDTH 562 0
DWIDTH 9 0
BBX 8 14 0 -2
BITMAP
30
30
06
36
30
00
15
55
DF
DF
D8
D8
F8
70
ENDCHAR
STARTCHAR uni635
ENCODING 1589
SWIDTH 562 0
DWIDTH 9 0
BBX 8 9 0 -2
BITMAP
04
2E
3B
BF
BF
B0
F0
F0
60
ENDCHAR
STARTCHAR uni636
ENCODING 1590
SWIDTH 562 0
DWIDTH 9 0
BBX 8 12 0 -2
BITMAP
18
18
00
04
2E
3B
BF
BF
B0
F0
F0
60
ENDCHAR
STARTCHAR uni637
ENCODING 1591
SWIDTH 562 0
DWIDTH 9 0
BBX 7 8 1 2
BITMAP
40
40
40
48
5C
76
FE
FE
ENDCHAR
STARTCHAR uni638
ENCODING 1592
SWIDTH 562 0
DWIDTH 9 0
BBX 7 8 1 2
BITMAP
58
58
40
48
5C
76
FE
FE
ENDCHAR
STARTCHAR uni639
ENCODING 1593
SWIDTH 562 0
DWIDTH 9 0
BBX 7 13 1 -4
BITMAP
78
F8
C0
C0
7C
7C
E0
C0
C0
C0
E0
7E
3E
ENDCHAR
STARTCHAR uni63A
ENCODING 1594
SWIDTH 562 0
DWIDTH 9 0
BBX 7 16 1 -4
BITMAP
30
30
00
78
F8
C0
C0
7C
7C
E0
C0
C0
C0
E0
7E
3E
ENDCHAR
STARTCHAR uni63B
ENCODING 1595
SWIDTH 562 0
DWIDTH 9 0
BBX 8 10 0 2
BITMAP
06
30
37
0F
1C
18
5C
CE
FF
7F
ENDCHAR
STARTCHAR uni63C
ENCODING 1596
SWIDTH 562 0
DWIDTH 9 0
BBX 8 15 0 -4
BITMAP
07
0F
1C
18
1C
4E
C7
FF
7F
00
06
36
30
06
06
ENDCHAR
STARTCHAR uni63D
ENCODING 1597
SWIDTH 562 0
DWIDTH 9 0
BBX 8 13 0 -1
BITMAP
08
1C
36
22
00
07
0F
0C
4F
C7
C3
FF
7E
ENDCHAR
STARTCHAR uni63E
ENCODING 1598
SWIDTH 562 0
DWIDTH 9 0
BBX 8 11 0 -1
BITMAP
06
36
30
07
0F
0C
4F
C7
C3
FF
7E
ENDCHAR
STARTCHAR uni63F
ENCODING 1599
SWIDTH 562 0
DWIDTH 9 0
BBX 8 13 0 -1
BITMAP
30
30
06
36
30
07
0F
0C
4F
C7
C3
FF
7E
ENDCHAR
STARTCHAR afii57440
ENCODING 1600
SWIDTH 562 0
DWIDTH 9 0
BBX 9 2 0 2
BITMAP
FF80
FF80
ENDCHAR
STARTCHAR uni641
ENCODING 1601
SWIDTH 562 0
DWIDTH 9 0
BBX 8 9 0 2
BITMAP
0C
0C
00
0E
DF
DB
DB
FF
7E
ENDCHAR
STARTCHAR afii57442
ENCODING 1602
SWIDTH 562 0
DWIDTH 9 0
BBX 8 14 0 -2
BITMAP
06
36
30
00
0E
1F
5B
DB
DF
CF
C3
E7
7E
3C
ENDCHAR
STARTCHAR afii57443
ENCODING 1603
SWIDTH 562 0
DWIDTH 9 0
BBX 8 10 0 2
BITMAP
03
03
1A
12
1A
4A
DA
C2
FF
7F
ENDCHAR
STARTCHAR afii57444
ENCODING 1604
SWIDTH 562 0
DWIDTH 9 0
BBX 8 14 0 -2
BITMAP
03
03
03
03
03
03
43
43
C3
C3
C3
E7
7E
3C
ENDCHAR
STARTCHAR afii57445
ENCODING 1605
SWIDTH 562 0
DWIDTH 9 0
BBX 5 11 2 -3
BITMAP
70
78
18
18
78
F8
C0
C0
C0
40
40
ENDCHAR
STARTCHAR afii57446
ENCODING 1606
SWIDTH 562 0
DWIDTH 9 0
BBX 8 11 0 -2
BITMAP
18
18
00
43
43
C3
C3
C3
E7
7E
3C
ENDCHAR
STARTCHAR afii57470
ENCODING 1607
SWIDTH 562 0
DWIDTH 9 0
BBX 5 6 2 2
BITMAP
60
70
F8
D8
F8
70
ENDCHAR
STARTCHAR afii57448
ENCODING 1608
SWIDTH 562 0
DWIDTH 9 0
BBX 8 9 0 -2
BITMAP
0E
1F
1B
1F
0F
03
E7
7E
3C
ENDCHAR
STARTCHAR afii57449
ENCODING 1609
SWIDTH 562 0
DWIDTH 9 0
BBX 8 8 0 -1
BITMAP
07
0F
0C
4F
C7
C3
FF
7E
ENDCHAR
STARTCHAR afii57450
ENCODING 1610
SWIDTH 562 0
DWIDTH 9 0
BBX 8 11 0 -4
BITMAP
07
0F
0C
4F
C7
C3
FF
7E
00
36
36
ENDCHAR
STARTCHAR uni64B
ENCODING 1611
SWIDTH 562 0
DWIDTH 9 0
BBX 6 5 1 7
BITMAP
18
70
CC
38
60
ENDCHAR
STARTCHAR uni64C
ENCODING 1612
SWIDTH 562 0
DWIDTH 9 0
BBX 7 5 1 7
BITMAP
1C
14
DE
6C
38
ENDCHAR
STARTCHAR uni64D
ENCODING 1613
SWIDTH 562 0
DWIDTH 9 0
BBX 6 5 1 -4
BITMAP
18
70
CC
38
60
ENDCHAR
STARTCHAR uni64E
ENCODING 1614
SWIDTH 562 0
DWIDTH 9 0
BBX 5 3 2 8
BITMAP
18
70
C0
ENDCHAR
STARTCHAR uni64F
ENCODING 1615
SWIDTH 562 0
DWIDTH 9 0
BBX 4 5 2 7
BITMAP
E0
A0
F0
60
C0
ENDCHAR
STARTCHAR uni650
ENCODING 1616
SWIDTH 562 0
DWIDTH 9 0
BBX 5 3 2 -3
BITMAP
18
70
C0
ENDCHAR
STARTCHAR uni651
ENCODING 1617
SWIDTH 562 0
DWIDTH 9 0
BBX 5 4 2 8
BITMAP
28
A8
B8
E0
ENDCHAR
STARTCHAR uni652
ENCODING 1618
SWIDTH 562 0
DWIDTH 9 0
BBX 3 4 3 8
BITMAP
40
E0
A0
E0
ENDCHAR
STARTCHAR uni653
ENCODING 1619
SWIDTH 562 0
DWIDTH 9 0
BBX 7 2 1 9
BITMAP
42
FE
ENDCHAR
STARTCHAR uni654
ENCODING 1620
SWIDTH 562 0
DWIDTH 9 0
BBX 3 4 3 8
BITMAP
60
40
60
C0
ENDCHAR
STARTCHAR uni655
ENCODING 1621
SWIDTH 562 0
DWIDTH 9 0
BBX 3 4 3 -4
BITMAP
60
40
60
C0
ENDCHAR
STARTCHAR uni656
ENCODING 1622
SWIDTH 562 0
DWIDTH 9 0
BBX 1 4 4 -4
BITMAP
80
80
80
80
ENDCHAR
STARTCHAR uni657
ENCODING 1623
SWIDTH 562 0
DWIDTH 9 0
BBX 4 5 2 7
BITMAP
30
60
F0
50
70
ENDCHAR
STARTCHAR uni658
ENCODING 1624
SWIDTH 562 0
DWIDTH 9 0
BBX 5 3 2 9
BITMAP
88
D8
70
ENDCHAR
STARTCHAR uni659
ENCODING 1625
SWIDTH 562 0
DWIDTH 9 0
BBX 4 1 2 10
BITMAP
F0
ENDCHAR
STARTCHAR uni65A
ENCODING 1626
SWIDTH 562 0
DWIDTH 9 0
BBX 5 4 2 8
BITMAP
88
D8
70
20
ENDCHAR
STARTCHAR uni65B
ENCODING 1627
SWIDTH 562 0
DWIDTH 9 0
BBX 5 4 2 8
BITMAP
20
70
D8
88
ENDCHAR
STARTCHAR uni65C
ENCODING 1628
SWIDTH 562 0
DWIDTH 9 0
BBX 2 2 3 -4
BITMAP
C0
C0
ENDCHAR
STARTCHAR uni65D
ENCODING 1629
SWIDTH 562 0
DWIDTH 9 0
BBX 4 5 2 7
BITMAP
70
50
F0
60
30
ENDCHAR
STARTCHAR uni65E
ENCODING 1630
SWIDTH 562 0
DWIDTH 9 0
BBX 5 5 2 7
BITMAP
40
18
70
C0
10
ENDCHAR
STARTCHAR uni65F
ENCODING 1631
SWIDTH 562 0
DWIDTH 9 0
BBX 7 4 1 -4
BITMAP
18
10
DC
76
ENDCHAR
STARTCHAR uni660
ENCODING 1632
SWIDTH 562 0
DWIDTH 9 0
BBX 3 5 3 1
BITMAP
80
C0
E0
60
20
ENDCHAR
STARTCHAR uni661
ENCODING 1633
SWIDTH 562 0
DWIDTH 9 0
BBX 3 8 2 1
BITMAP
80
C0
E0
60
60
60
60
60
ENDCHAR
STARTCHAR uni662
ENCODING 1634
SWIDTH 562 0
DWIDTH 9 0
BBX 5 9 1 1
BITMAP
88
D8
F8
F0
60
70
30
30
30
ENDCHAR
STARTCHAR uni663
ENCODING 1635
SWIDTH 562 0
DWIDTH 9 0
BBX 7 9 1 1
BITMAP
92
FE
FE
EC
60
70
30
30
30
ENDCHAR
STARTCHAR uni664
ENCODING 1636
SWIDTH 562 0
DWIDTH 9 0
BBX 5 9 2 1
BITMAP
30
60
C0
C0
E0
60
C0
F8
70
ENDCHAR
STARTCHAR uni665
ENCODING 1637
SWIDTH 562 0
DWIDTH 9 0
BBX 5 7 2 1
BITMAP
20
70
F8
88
88
F8
70
ENDCHAR
STARTCHAR uni666
ENCODING 1638
SWIDTH 562 0
DWIDTH 9 0
BBX 6 7 1 1
BITMAP
F8
F8
18
18
18
0C
0C
ENDCHAR
STARTCHAR uni667
ENCODING 1639
SWIDTH 562 0
DWIDTH 9 0
BBX 6 6 1 1
BITMAP
CC
CC
78
78
30
30
ENDCHAR
STARTCHAR uni668
ENCODING 1640
SWIDTH 562 0
DWIDTH 9 0
BBX 6 6 1 1
BITMAP
30
30
78
78
CC
CC
ENDCHAR
STARTCHAR uni669
ENCODING 1641
SWIDTH 562 0
DWIDTH 9 0
BBX 6 9 1 1
BITMAP
70
F0
D8
F8
78
18
18
0C
0C
ENDCHAR
STARTCHAR uni66A
ENCODING 1642
SWIDTH 562 0
DWIDTH 9 0
BBX 7 16 1 -4
BITMAP
04
04
04
CC
C8
08
18
10
10
30
20
26
66
40
40
40
ENDCHAR
STARTCHAR uni66B
ENCODING 1643
SWIDTH 562 0
DWIDTH 9 0
BBX 5 5 2 -2
BITMAP
18
18
38
F0
60
ENDCHAR
STARTCHAR uni66C
ENCODING 1644
SWIDTH 562 0
DWIDTH 9 0
BBX 2 4 4 2
BITMAP
C0
C0
40
C0
ENDCHAR
STARTCHAR uni66D
ENCODING 1645
SWIDTH 562 0
DWIDTH 9 0
BBX 7 7 1 0
BITMAP
10
38
FE
7C
7C
6C
44
ENDCHAR
STARTCHAR uni66E
ENCODING 1646
SWIDTH 562 0
DWIDTH 9 0
BBX 8 5 0 2
BITMAP
C3
C3
C3
FF
7E
ENDCHAR
STARTCHAR uni66F
ENCODING 1647
SWIDTH 562 0
DWIDTH 9 0
BBX 8 10 0 -2
BITMAP
0E
1F
5B
DB
DF
CF
C3
E7
7E
3C
ENDCHAR
STARTCHAR uni670
ENCODING 1648
SWIDTH 562 0
DWIDTH 9 0
BBX 1 4 3 8
BITMAP
80
80
80
80
ENDCHAR
STARTCHAR uni671
ENCODING 1649
SWIDTH 562 0
DWIDTH 9 0
BBX 5 10 2 2
BITMAP
38
E8
38
00
60
60
60
60
60
60
ENDCHAR
STARTCHAR uni672
ENCODING 1650
SWIDTH 562 0
DWIDTH 9 0
BBX 6 10 1 2
BITMAP
30
E4
BC
00
30
30
30
30
30
30
ENDCHAR
STARTCHAR uni673
ENCODING 1651
SWIDTH 562 0
DWIDTH 9 0
BBX 6 14 1 -2
BITMAP
30
30
30
30
30
30
30
30
30
30
00
30
E4
BC
ENDCHAR
STARTCHAR uni674
ENCODING 1652
SWIDTH 562 0
DWIDTH 9 0
BBX 3 4 2 8
BITMAP
60
40
E0
80
ENDCHAR
STARTCHAR uni675
ENCODING 1653
SWIDTH 562 0
DWIDTH 9 0
BBX 6 10 3 2
BITMAP
0C
C8
DC
D0
C0
C0
C0
C0
C0
C0
ENDCHAR
STARTCHAR uni676
ENCODING 1654
SWIDTH 562 0
DWIDTH 9 0
BBX 9 14 0 -2
BITMAP
0180
0100
0380
0200
0000
0E00
1F00
1B00
1F00
0F00
0300
E700
7E00
3C00
ENDCHAR
STARTCHAR uni677
ENCODING 1655
SWIDTH 562 0
DWIDTH 9 0
BBX 9 14 0 -2
BITMAP
7180
5100
7B80
3200
6000
0E00
1F00
1B00
1F00
0F00
0300
E700
7E00
3C00
ENDCHAR
STARTCHAR uni678
ENCODING 1656
SWIDTH 562 0
DWIDTH 9 0
BBX 9 14 0 -2
BITMAP
0180
0100
0380
0200
0000
0700
0F00
0C00
4F00
C700
C300
E700
7E00
3C00
ENDCHAR
STARTCHAR uni679
ENCODING 1657
SWIDTH 562 0
DWIDTH 9 0
BBX 8 10 0 2
BITMAP
10
1E
12
3E
00
C3
C3
C3
FF
7E
ENDCHAR
STARTCHAR uni67A
ENCODING 1658
SWIDTH 562 0
DWIDTH 9 0
BBX 8 10 0 2
BITMAP
30
30
00
18
18
C3
C3
C3
FF
7E
ENDCHAR
STARTCHAR uni67B
ENCODING 1659
SWIDTH 562 0
DWIDTH 9 0
BBX 8 11 0 -4
BITMAP
C3
C3
C3
FF
7E
00
18
18
00
0C
0C
ENDCHAR
STARTCHAR uni67C
ENCODING 1660
SWIDTH 562 0
DWIDTH 9 0
BBX 8 13 0 -2
BITMAP
0C
6C
60
00
C3
C3
C3
FF
7E
18
24
24
18
ENDCHAR
STARTCHAR uni67D
ENCODING 1661
SWIDTH 562 0
DWIDTH 9 0
BBX 8 10 0 2
BITMAP
36
36
00
18
18
C3
C3
C3
FF
7E
ENDCHAR
STARTCHAR uni67E
ENCODING 1662
SWIDTH 562 0
DWIDTH 9 0
BBX 8 11 0 -4
BITMAP
C3
C3
C3
FF
7E
00
36
36
00
18
18
ENDCHAR
STARTCHAR uni67F
ENCODING 1663
SWIDTH 562 0
DWIDTH 9 0
BBX 8 10 0 2
BITMAP
6C
6C
00
36
36
C3
C3
C3
FF
7E
ENDCHAR
STARTCHAR uni680
ENCODING 1664
SWIDTH 562 0
DWIDTH 9 0
BBX 8 11 0 -4
BITMAP
C3
C3
C3
FF
7E
00
36
36
00
1B
1B
ENDCHAR
STARTCHAR uni681
ENCODING 1665
SWIDTH 562 0
DWIDTH 9 0
BBX 8 16 0 -4
BITMAP
18
10
18
30
00
00
FF
FF
1C
38
70
E0
C0
E0
7F
3F
ENDCHAR
STARTCHAR uni682
ENCODING 1666
SWIDTH 562 0
DWIDTH 9 0
BBX 8 16 0 -4
BITMAP
18
18
00
18
18
00
FF
FF
1C
38
70
E0
C0
E0
7F
3F
ENDCHAR
STARTCHAR uni683
ENCODING 1667
SWIDTH 562 0
DWIDTH 9 0
BBX 8 10 0 -4
BITMAP
FF
FF
1C
38
70
FB
DB
E0
7F
3F
ENDCHAR
STARTCHAR uni684
ENCODING 1668
SWIDTH 562 0
DWIDTH 9 0
BBX 8 10 0 -4
BITMAP
FF
FF
1C
3E
76
E0
C6
C6
60
3F
ENDCHAR
STARTCHAR uni685
ENCODING 1669
SWIDTH 562 0
DWIDTH 9 0
BBX 8 16 0 -4
BITMAP
18
18
00
36
36
00
FF
FF
1C
38
70
E0
C0
E0
7F
3F
ENDCHAR
STARTCHAR uni686
ENCODING 1670
SWIDTH 562 0
DWIDTH 9 0
BBX 8 10 0 -4
BITMAP
FF
FF
38
76
E6
C0
DB
DB
60
3F
ENDCHAR
STARTCHAR uni687
ENCODING 1671
SWIDTH 562 0
DWIDTH 9 0
BBX 9 10 0 -4
BITMAP
FF00
FF00
3000
7B00
DB00
8000
8D80
CD80
6000
3F00
ENDCHAR
STARTCHAR uni688
ENCODING 1672
SWIDTH 562 0
DWIDTH 9 0
BBX 7 10 0 2
BITMAP
10
1E
1A
3E
18
1C
0C
0C
FC
F8
ENDCHAR
STARTCHAR uni689
ENCODING 1673
SWIDTH 562 0
DWIDTH 9 0
BBX 6 8 0 0
BITMAP
18
1C
0C
0C
FC
F8
28
38
ENDCHAR
STARTCHAR uni68A
ENCODING 1674
SWIDTH 562 0
DWIDTH 9 0
BBX 6 9 0 -1
BITMAP
18
1C
0C
0C
FC
F8
00
18
18
ENDCHAR
STARTCHAR uni68B
ENCODING 1675
SWIDTH 562 0
DWIDTH 9 0
BBX 7 13 0 -1
BITMAP
10
1E
1A
3E
18
1C
0C
0C
FC
F8
00
18
18
ENDCHAR
STARTCHAR uni68C
ENCODING 1676
SWIDTH 562 0
DWIDTH 9 0
BBX 7 10 0 2
BITMAP
06
36
30
00
18
1C
0C
0C
FC
F8
ENDCHAR
STARTCHAR uni68D
ENCODING 1677
SWIDTH 562 0
DWIDTH 9 0
BBX 7 10 0 -2
BITMAP
18
1C
0C
0C
FC
F8
00
06
36
30
ENDCHAR
STARTCHAR uni68E
ENCODING 1678
SWIDTH 562 0
DWIDTH 9 0
BBX 6 10 0 2
BITMAP
30
30
6C
6C
00
18
1C
0C
FC
F8
ENDCHAR
STARTCHAR uni68F
ENCODING 1679
SWIDTH 562 0
DWIDTH 9 0
BBX 6 10 0 2
BITMAP
6C
6C
18
18
00
18
1C
0C
FC
F8
ENDCHAR
STARTCHAR uni690
ENCODING 1680
SWIDTH 562 0
DWIDTH 9 0
BBX 7 10 0 2
BITMAP
36
36
6C
6C
00
18
1C
0C
FC
F8
ENDCHAR
STARTCHAR uni691
ENCODING 1681
SWIDTH 562 0
DWIDTH 9 0
BBX 7 14 0 -2
BITMAP
10
10
1E
1A
3E
00
0C
0C
0C
0C
0C
1C
F8
70
ENDCHAR
STARTCHAR uni692
ENCODING 1682
SWIDTH 562 0
DWIDTH 9 0
BBX 6 14 0 -2
BITMAP
44
6C
38
10
00
00
0C
0C
0C
0C
0C
1C
F8
70
ENDCHAR
STARTCHAR uni693
ENCODING 1683
SWIDTH 562 0
DWIDTH 9 0
BBX 6 9 0 -3
BITMAP
0C
0C
0C
0C
0C
1C
FC
74
1C
ENDCHAR
STARTCHAR uni694
ENCODING 1684
SWIDTH 562 0
DWIDTH 9 0
BBX 7 9 0 -3
BITMAP
0C
0C
0C
0C
0C
1C
F8
76
06
ENDCHAR
STARTCHAR uni695
ENCODING 1685
SWIDTH 562 0
DWIDTH 9 0
BBX 8 10 0 -4
BITMAP
0C
0C
0C
0C
0C
1C
F8
75
07
02
ENDCHAR
STARTCHAR uni696
ENCODING 1686
SWIDTH 562 0
DWIDTH 9 0
BBX 7 9 0 -3
BITMAP
0C
0C
0C
6C
6C
1C
F8
76
06
ENDCHAR
STARTCHAR uni697
ENCODING 1687
SWIDTH 562 0
DWIDTH 9 0
BBX 6 11 0 -2
BITMAP
0C
6C
60
0C
0C
0C
0C
0C
1C
F8
70
ENDCHAR
STARTCHAR uni698
ENCODING 1688
SWIDTH 562 0
DWIDTH 9 0
BBX 6 13 0 -2
BITMAP
60
60
0C
6C
60
0C
0C
0C
0C
0C
1C
F8
70
ENDCHAR
STARTCHAR uni699
ENCODING 1689
SWIDTH 562 0
DWIDTH 9 0
BBX 6 14 0 -2
BITMAP
0C
6C
60
0C
6C
60
0C
0C
0C
0C
0C
1C
F8
70
ENDCHAR
STARTCHAR uni69A
ENCODING 1690
SWIDTH 562 0
DWIDTH 9 0
BBX 8 11 0 -2
BITMAP
0C
0C
00
15
55
DF
DF
D8
DB
FB
70
ENDCHAR
STARTCHAR uni69B
ENCODING 1691
SWIDTH 562 0
DWIDTH 9 0
BBX 9 10 0 -4
BITMAP
1500
5500
DF00
DF00
D800
DB00
FB00
7000
0D80
0D80
ENDCHAR
STARTCHAR uni69C
ENCODING 1692
SWIDTH 562 0
DWIDTH 9 0
BBX 9 16 0 -4
BITMAP
0C00
0C00
0000
1B00
1B00
0000
1500
5500
DF00
DF00
D800
DB00
FB00
7000
0D80
0D80
ENDCHAR
STARTCHAR uni69D
ENCODING 1693
SWIDTH 562 0
DWIDTH 9 0
BBX 9 10 0 -3
BITMAP
1000
1700
5D00
DF00
DF00
D800
F800
7180
0D80
0C00
ENDCHAR
STARTCHAR uni69E
ENCODING 1694
SWIDTH 562 0
DWIDTH 9 0
BBX 8 14 0 -2
BITMAP
0C
0C
00
1B
1B
10
17
5D
DF
DF
D8
D8
F8
70
ENDCHAR
STARTCHAR uni69F
ENCODING 1695
SWIDTH 562 0
DWIDTH 9 0
BBX 7 10 1 2
BITMAP
18
18
C0
F6
76
40
5C
74
FC
FC
ENDCHAR
STARTCHAR uni6A0
ENCODING 1696
SWIDTH 562 0
DWIDTH 9 0
BBX 7 16 0 -4
BITMAP
08
00
14
00
78
FC
C0
EE
7E
78
E0
C0
C0
E0
7E
3C
ENDCHAR
STARTCHAR uni6A1
ENCODING 1697
SWIDTH 562 0
DWIDTH 9 0
BBX 8 6 0 2
BITMAP
0E
DF
DB
DB
FF
7E
ENDCHAR
STARTCHAR uni6A2
ENCODING 1698
SWIDTH 562 0
DWIDTH 9 0
BBX 8 9 0 -1
BITMAP
0E
DF
DB
DB
FF
7E
00
0C
0C
ENDCHAR
STARTCHAR uni6A3
ENCODING 1699
SWIDTH 562 0
DWIDTH 9 0
BBX 8 12 0 -1
BITMAP
0C
0C
00
0E
DF
DB
DB
FF
7E
00
0C
0C
ENDCHAR
STARTCHAR uni6A4
ENCODING 1700
SWIDTH 562 0
DWIDTH 9 0
BBX 8 10 0 2
BITMAP
04
00
0A
00
0E
DF
DB
DB
FF
7E
ENDCHAR
STARTCHAR uni6A5
ENCODING 1701
SWIDTH 562 0
DWIDTH 9 0
BBX 8 10 0 -2
BITMAP
0E
DF
DB
DB
FF
7E
00
0A
00
04
ENDCHAR
STARTCHAR uni6A6
ENCODING 1702
SWIDTH 562 0
DWIDTH 9 0
BBX 8 10 0 2
BITMAP
14
00
0A
00
0E
DF
DB
DB
FF
7E
ENDCHAR
STARTCHAR uni6A7
ENCODING 1703
SWIDTH 562 0
DWIDTH 9 0
BBX 8 14 0 -2
BITMAP
06
06
00
00
0E
1F
5B
DB
DF
CF
C3
E7
7E
3C
ENDCHAR
STARTCHAR uni6A8
ENCODING 1704
SWIDTH 562 0
DWIDTH 9 0
BBX 8 14 0 -2
BITMAP
04
00
0A
00
0E
1F
5B
DB
DF
CF
C3
E7
7E
3C
ENDCHAR
STARTCHAR uni6A9
ENCODING 1705
SWIDTH 562 0
DWIDTH 9 0
BBX 8 8 0 2
BITMAP
07
0F
1C
18
5C
CE
FF
7F
ENDCHAR
STARTCHAR uni6AA
ENCODING 1706
SWIDTH 562 0
DWIDTH 9 0
BBX 8 8 0 2
BITMAP
30
70
60
7E
3F
03
FF
7F
ENDCHAR
STARTCHAR uni6AB
ENCODING 1707
SWIDTH 562 0
DWIDTH 9 0
BBX 8 8 0 2
BITMAP
07
0F
1D
1F
5C
CE
FF
7F
ENDCHAR
STARTCHAR uni6AC
ENCODING 1708
SWIDTH 562 0
DWIDTH 9 0
BBX 8 10 0 2
BITMAP
1B
1B
02
1A
12
4A
DA
C2
FF
7F
ENDCHAR
STARTCHAR uni6AD
ENCODING 1709
SWIDTH 562 0
DWIDTH 9 0
BBX 8 10 0 2
BITMAP
13
03
2A
02
1A
52
CA
DA
FF
7F
ENDCHAR
STARTCHAR uni6AE
ENCODING 1710
SWIDTH 562 0
DWIDTH 9 0
BBX 8 14 0 -2
BITMAP
03
03
1A
12
1A
4A
DA
C2
FF
7F
00
14
00
08
ENDCHAR
STARTCHAR uni6AF
ENCODING 1711
SWIDTH 562 0
DWIDTH 9 0
BBX 8 10 0 2
BITMAP
0F
18
37
0F
1C
18
5C
CE
FF
7F
ENDCHAR
STARTCHAR uni6B0
ENCODING 1712
SWIDTH 562 0
DWIDTH 9 0
BBX 8 10 0 2
BITMAP
0F
18
37
0F
1D
1F
5C
CE
FF
7F
ENDCHAR
STARTCHAR uni6B1
ENCODING 1713
SWIDTH 562 0
DWIDTH 9 0
BBX 8 10 0 2
BITMAP
14
0F
18
17
0C
18
5C
CE
FF
7F
ENDCHAR
STARTCHAR uni6B2
ENCODING 1714
SWIDTH 562 0
DWIDTH 9 0
BBX 8 12 0 0
BITMAP
0F
18
37
0F
1C
18
5C
CE
FF
7F
00
14
ENDCHAR
STARTCHAR uni6B3
ENCODING 1715
SWIDTH 562 0
DWIDTH 9 0
BBX 8 14 0 -2
BITMAP
0F
18
37
0F
1C
18
5C
CE
FF
7F
00
08
00
08
ENDCHAR
STARTCHAR uni6B4
ENCODING 1716
SWIDTH 562 0
DWIDTH 9 0
BBX 8 10 0 2
BITMAP
08
14
0F
18
07
0C
58
CC
FF
7F
ENDCHAR
STARTCHAR uni6B5
ENCODING 1717
SWIDTH 562 0
DWIDTH 9 0
BBX 8 14 0 -2
BITMAP
11
1B
0E
04
03
03
03
43
43
C3
C3
E7
7E
3C
ENDCHAR
STARTCHAR uni6B6
ENCODING 1718
SWIDTH 562 0
DWIDTH 9 0
BBX 8 14 0 -2
BITMAP
03
03
00
03
03
03
03
43
43
C3
C3
E7
7E
3C
ENDCHAR
STARTCHAR uni6B7
ENCODING 1719
SWIDTH 562 0
DWIDTH 9 0
BBX 8 14 0 -2
BITMAP
02
00
05
00
03
03
03
43
43
C3
C3
E7
7E
3C
ENDCHAR
STARTCHAR uni6B8
ENCODING 1720
SWIDTH 562 0
DWIDTH 9 0
BBX 8 16 0 -4
BITMAP
03
03
03
03
03
03
43
43
C3
C3
E7
7E
3C
02
08
02
ENDCHAR
STARTCHAR uni6B9
ENCODING 1721
SWIDTH 562 0
DWIDTH 9 0
BBX 8 13 0 -4
BITMAP
18
18
00
43
43
C3
C3
E7
7E
3C
00
18
18
ENDCHAR
STARTCHAR uni6BA
ENCODING 1722
SWIDTH 562 0
DWIDTH 9 0
BBX 8 8 0 -2
BITMAP
43
43
C3
C3
C3
E7
7E
3C
ENDCHAR
STARTCHAR uni6BB
ENCODING 1723
SWIDTH 562 0
DWIDTH 9 0
BBX 8 14 0 -2
BITMAP
10
10
1E
1A
3E
00
43
43
C3
C3
C3
E7
7E
3C
ENDCHAR
STARTCHAR uni6BC
ENCODING 1724
SWIDTH 562 0
DWIDTH 9 0
BBX 8 13 0 -4
BITMAP
18
18
00
43
43
C3
C3
C3
E7
7E
3C
14
1C
ENDCHAR
STARTCHAR uni6BD
ENCODING 1725
SWIDTH 562 0
DWIDTH 9 0
BBX 8 14 0 -2
BITMAP
18
18
00
36
36
00
43
43
C3
C3
C3
E7
7E
3C
ENDCHAR
STARTCHAR uni6BE
ENCODING 1726
SWIDTH 562 0
DWIDTH 9 0
BBX 8 8 0 2
BITMAP
10
18
3C
3E
6F
7B
FF
F6
ENDCHAR
STARTCHAR uni6BF
ENCODING 1727
SWIDTH 562 0
DWIDTH 9 0
BBX 8 14 0 -4
BITMAP
0C
0C
00
00
FF
FF
38
76
E6
C0
DB
DB
60
3F
ENDCHAR
STARTCHAR uni6C0
ENCODING 1728
SWIDTH 562 0
DWIDTH 9 0
BBX 5 10 2 2
BITMAP
30
20
70
00
60
70
F8
D8
F8
70
ENDCHAR
STARTCHAR uni6C1
ENCODING 1729
SWIDTH 562 0
DWIDTH 9 0
BBX 5 6 2 2
BITMAP
60
70
F8
D8
F8
70
ENDCHAR
STARTCHAR uni6C2
ENCODING 1730
SWIDTH 562 0
DWIDTH 9 0
BBX 5 10 2 2
BITMAP
30
20
70
00
60
70
F8
D8
F8
70
ENDCHAR
STARTCHAR uni6C3
ENCODING 1731
SWIDTH 562 0
DWIDTH 9 0
BBX 6 10 1 2
BITMAP
18
D8
C0
00
30
38
7C
6C
7C
38
ENDCHAR
STARTCHAR uni6C4
ENCODING 1732
SWIDTH 562 0
DWIDTH 9 0
BBX 8 9 0 -2
BITMAP
0E
1F
1B
1F
0F
73
DF
7E
3C
ENDCHAR
STARTCHAR uni6C5
ENCODING 1733
SWIDTH 562 0
DWIDTH 9 0
BBX 8 9 0 -2
BITMAP
0E
1F
1B
1F
2F
33
DF
7E
3C
ENDCHAR
STARTCHAR uni6C6
ENCODING 1734
SWIDTH 562 0
DWIDTH 9 0
BBX 8 14 0 -2
BITMAP
11
1B
0E
04
00
0E
1F
1B
1F
0F
03
E7
7E
3C
ENDCHAR
STARTCHAR uni6C7
ENCODING 1735
SWIDTH 562 0
DWIDTH 9 0
BBX 8 14 0 -2
BITMAP
38
28
3C
18
30
0E
1F
1B
1F
0F
03
E7
7E
3C
ENDCHAR
STARTCHAR uni6C8
ENCODING 1736
SWIDTH 562 0
DWIDTH 9 0
BBX 8 14 0 -2
BITMAP
04
04
04
04
00
0E
1F
1B
1F
0F
03
E7
7E
3C
ENDCHAR
STARTCHAR uni6C9
ENCODING 1737
SWIDTH 562 0
DWIDTH 9 0
BBX 8 14 0 -2
BITMAP
04
0E
1B
11
00
0E
1F
1B
1F
0F
03
E7
7E
3C
ENDCHAR
STARTCHAR uni6CA
ENCODING 1738
SWIDTH 562 0
DWIDTH 9 0
BBX 8 14 0 -2
BITMAP
03
1B
18
00
00
0E
1F
1B
1F
0F
03
E7
7E
3C
ENDCHAR
STARTCHAR uni6CB
ENCODING 1739
SWIDTH 562 0
DWIDTH 9 0
BBX 8 14 0 -2
BITMAP
0C
0C
1B
1B
00
0E
1F
1B
1F
0F
03
E7
7E
3C
ENDCHAR
STARTCHAR uni6CC
ENCODING 1740
SWIDTH 562 0
DWIDTH 9 0
BBX 8 8 0 -1
BITMAP
07
0F
0C
4F
C7
C3
FF
7E
ENDCHAR
STARTCHAR uni6CD
ENCODING 1741
SWIDTH 562 0
DWIDTH 9 0
BBX 8 8 0 -1
BITMAP
07
0F
0C
EF
67
63
7F
3E
ENDCHAR
STARTCHAR uni6CE
ENCODING 1742
SWIDTH 562 0
DWIDTH 9 0
BBX 8 12 0 -1
BITMAP
44
6C
38
10
07
0F
0C
4F
C7
C3
FF
7E
ENDCHAR
STARTCHAR uni6CF
ENCODING 1743
SWIDTH 562 0
DWIDTH 9 0
BBX 8 13 0 -2
BITMAP
0C
0C
00
00
0E
1F
1B
1F
0F
03
E7
7E
3C
ENDCHAR
STARTCHAR uni6D0
ENCODING 1744
SWIDTH 562 0
DWIDTH 9 0
BBX 8 11 0 -4
BITMAP
07
0F
0C
4F
C7
C3
FF
7E
00
18
18
ENDCHAR
STARTCHAR uni6D1
ENCODING 1745
SWIDTH 562 0
DWIDTH 9 0
BBX 8 11 0 -4
BITMAP
07
0F
0C
4F
C7
C3
FF
7E
00
14
08
ENDCHAR
STARTCHAR uni6D2
ENCODING 1746
SWIDTH 562 0
DWIDTH 9 0
BBX 9 6 0 0
BITMAP
1800
3C00
7400
E000
FF80
FF00
ENDCHAR
STARTCHAR uni6D3
ENCODING 1747
SWIDTH 562 0
DWIDTH 9 0
BBX 9 10 0 0
BITMAP
3000
2000
7000
0000
1800
3C00
7400
E000
FF80
FF00
ENDCHAR
STARTCHAR uni6D4
ENCODING 1748
SWIDTH 562 0
DWIDTH 9 0
BBX 3 2 3 2
BITMAP
E0
E0
ENDCHAR
STARTCHAR uni6D5
ENCODING 1749
SWIDTH 562 0
DWIDTH 9 0
BBX 5 6 2 2
BITMAP
60
70
F8
D8
F8
70
ENDCHAR
STARTCHAR uni900
ENCODING 2304
SWIDTH 562 0
DWIDTH 9 0
BBX 5 3 2 9
BITMAP
70
D8
A8
ENDCHAR
STARTCHAR uni901
ENCODING 2305
SWIDTH 562 0
DWIDTH 9 0
BBX 5 3 2 9
BITMAP
A8
D8
70
ENDCHAR
STARTCHAR uni902
ENCODING 2306
SWIDTH 562 0
DWIDTH 9 0
BBX 1 1 4 11
BITMAP
80
ENDCHAR
STARTCHAR uni903
ENCODING 2307
SWIDTH 562 0
DWIDTH 9 0
BBX 2 6 7 0
BITMAP
C0
C0
00
00
C0
C0
ENDCHAR
STARTCHAR uni0904
ENCODING 2308
SWIDTH 562 0
DWIDTH 9 0
BBX 9 11 0 0
BITMAP
1000
1E00
0200
F780
9200
1200
3E00
1200
1200
9200
F200
ENDCHAR
STARTCHAR uni0905
ENCODING 2309
SWIDTH 562 0
DWIDTH 9 0
BBX 9 8 0 0
BITMAP
F780
9200
1200
3E00
1200
1200
9200
F200
ENDCHAR
STARTCHAR uni0906
ENCODING 2310
SWIDTH 562 0
DWIDTH 9 0
BBX 9 8 0 0
BITMAP
EF80
A500
2500
7D00
2500
2500
A500
E500
ENDCHAR
STARTCHAR uni0907
ENCODING 2311
SWIDTH 562 0
DWIDTH 9 0
BBX 9 10 0 -2
BITMAP
FF80
0200
3E00
2000
3E00
0200
3E00
1800
0C00
0400
ENDCHAR
STARTCHAR uni0908
ENCODING 2312
SWIDTH 562 0
DWIDTH 9 0
BBX 9 14 0 -2
BITMAP
0C00
0800
0C00
0400
FF80
0200
3E00
2000
3E00
0200
3E00
1800
0C00
0400
ENDCHAR
STARTCHAR uni0909
ENCODING 2313
SWIDTH 562 0
DWIDTH 9 0
BBX 9 8 0 0
BITMAP
FF80
0200
0600
1C00
0600
0200
3200
1E00
ENDCHAR
STARTCHAR uni090A
ENCODING 2314
SWIDTH 562 0
DWIDTH 9 0
BBX 9 8 0 0
BITMAP
FF80
0400
0C00
3800
0F00
0500
6500
3C00
ENDCHAR
STARTCHAR uni090B
ENCODING 2315
SWIDTH 562 0
DWIDTH 9 0
BBX 9 8 0 0
BITMAP
FF80
1000
F600
3E00
7200
D600
1400
0700
ENDCHAR
STARTCHAR uni090C
ENCODING 2316
SWIDTH 562 0
DWIDTH 9 0
BBX 9 9 0 -1
BITMAP
FF80
0400
0400
FE00
9200
8200
CE00
4800
0E00
ENDCHAR
STARTCHAR uni090D
ENCODING 2317
SWIDTH 562 0
DWIDTH 9 0
BBX 9 13 0 -1
BITMAP
2200
3600
1C00
0000
FF80
4200
4200
4200
4200
6600
3000
1800
0C00
ENDCHAR
STARTCHAR uni090E
ENCODING 2318
SWIDTH 562 0
DWIDTH 9 0
BBX 9 12 0 -1
BITMAP
2000
3E00
0200
FF80
4200
4200
4200
4200
6600
3000
1800
0C00
ENDCHAR
STARTCHAR uni090F
ENCODING 2319
SWIDTH 562 0
DWIDTH 9 0
BBX 9 9 0 -1
BITMAP
FF80
4200
4200
4200
4200
6600
3000
1800
0C00
ENDCHAR
STARTCHAR uni0910
ENCODING 2320
SWIDTH 562 0
DWIDTH 9 0
BBX 9 13 0 -1
BITMAP
1000
1800
0C00
0600
FF80
4200
4200
4200
4200
6600
3000
1800
0C00
ENDCHAR
STARTCHAR uni0911
ENCODING 2321
SWIDTH 562 0
DWIDTH 9 0
BBX 9 12 0 0
BITMAP
1100
1B00
0E00
0000
EF80
A500
2500
7D00
2500
2500
A500
E500
ENDCHAR
STARTCHAR uni0912
ENCODING 2322
SWIDTH 562 0
DWIDTH 9 0
BBX 9 11 0 0
BITMAP
1000
1F00
0100
EF80
A500
2500
7D00
2500
2500
A500
E500
ENDCHAR
STARTCHAR uni0913
ENCODING 2323
SWIDTH 562 0
DWIDTH 9 0
BBX 9 12 0 0
BITMAP
0800
0C00
0600
0300
EF80
A500
2500
7D00
2500
2500
A500
E500
ENDCHAR
STARTCHAR uni0914
ENCODING 2324
SWIDTH 562 0
DWIDTH 9 0
BBX 9 12 0 0
BITMAP
2400
3600
1B00
0D00
EF80
A500
2500
7D00
2500
2500
A500
E500
ENDCHAR
STARTCHAR uni0915
ENCODING 2325
SWIDTH 562 0
DWIDTH 9 0
BBX 9 8 0 0
BITMAP
FF80
1000
1000
FE00
BA00
F200
1000
1000
ENDCHAR
STARTCHAR uni0916
ENCODING 2326
SWIDTH 562 0
DWIDTH 9 0
BBX 9 8 0 0
BITMAP
FF80
2100
2D00
E900
CF00
6100
3100
1F00
ENDCHAR
STARTCHAR uni0917
ENCODING 2327
SWIDTH 562 0
DWIDTH 9 0
BBX 9 8 0 0
BITMAP
FF80
2200
2200
E200
A200
E200
0200
0200
ENDCHAR
STARTCHAR uni0918
ENCODING 2328
SWIDTH 562 0
DWIDTH 9 0
BBX 9 8 0 0
BITMAP
FF80
4100
4100
7100
4100
4100
6700
3D00
ENDCHAR
STARTCHAR uni0919
ENCODING 2329
SWIDTH 562 0
DWIDTH 9 0
BBX 9 7 0 1
BITMAP
FF80
0400
3C00
2100
3C00
0400
3C00
ENDCHAR
STARTCHAR uni091A
ENCODING 2330
SWIDTH 562 0
DWIDTH 9 0
BBX 9 8 0 0
BITMAP
FF80
0200
F200
6200
4200
4E00
7A00
0200
ENDCHAR
STARTCHAR uni091B
ENCODING 2331
SWIDTH 562 0
DWIDTH 9 0
BBX 9 8 0 0
BITMAP
FF80
0400
EE00
8A00
EF00
8500
CC00
7800
ENDCHAR
STARTCHAR uni091C
ENCODING 2332
SWIDTH 562 0
DWIDTH 9 0
BBX 9 8 0 0
BITMAP
FF80
0200
0200
1E00
CA00
7A00
0200
0200
ENDCHAR
STARTCHAR uni091D
ENCODING 2333
SWIDTH 562 0
DWIDTH 9 0
BBX 9 10 0 -2
BITMAP
FF80
1200
F200
8200
FE00
1200
F200
C200
6000
2000
ENDCHAR
STARTCHAR uni091E
ENCODING 2334
SWIDTH 562 0
DWIDTH 9 0
BBX 9 8 0 0
BITMAP
FF80
0200
0200
7200
1E00
1200
7200
0200
ENDCHAR
STARTCHAR uni091F
ENCODING 2335
SWIDTH 562 0
DWIDTH 9 0
BBX 9 8 0 0
BITMAP
FF80
0800
0800
3800
6000
4000
6600
3C00
ENDCHAR
STARTCHAR uni0920
ENCODING 2336
SWIDTH 562 0
DWIDTH 9 0
BBX 9 8 0 0
BITMAP
FF80
0800
0800
3C00
6600
4200
6600
3C00
ENDCHAR
STARTCHAR uni0921
ENCODING 2337
SWIDTH 562 0
DWIDTH 9 0
BBX 9 8 0 0
BITMAP
FF80
0400
3C00
2000
3C00
0400
2400
3C00
ENDCHAR
STARTCHAR uni0922
ENCODING 2338
SWIDTH 562 0
DWIDTH 9 0
BBX 9 8 0 0
BITMAP
FF80
0800
3800
6000
4000
4E00
6A00
3E00
ENDCHAR
STARTCHAR uni0923
ENCODING 2339
SWIDTH 562 0
DWIDTH 9 0
BBX 9 8 0 0
BITMAP
FF80
5200
5200
5200
7200
0200
0200
0200
ENDCHAR
STARTCHAR uni0924
ENCODING 2340
SWIDTH 562 0
DWIDTH 9 0
BBX 9 8 0 0
BITMAP
FF80
0400
0400
7C00
4400
4400
6400
2400
ENDCHAR
STARTCHAR uni0925
ENCODING 2341
SWIDTH 562 0
DWIDTH 9 0
BBX 9 8 0 0
BITMAP
EF80
A400
E400
2400
6400
FC00
0400
0400
ENDCHAR
STARTCHAR uni0926
ENCODING 2342
SWIDTH 562 0
DWIDTH 9 0
BBX 9 10 0 -2
BITMAP
FF80
0400
3C00
6000
4000
4000
6200
3E00
0200
0200
ENDCHAR
STARTCHAR uni0927
ENCODING 2343
SWIDTH 562 0
DWIDTH 9 0
BBX 9 8 0 0
BITMAP
EF80
A400
E400
8400
E400
8400
FC00
0400
ENDCHAR
STARTCHAR uni928
ENCODING 2344
SWIDTH 562 0
DWIDTH 9 0
BBX 7 12 2 0
BITMAP
90
D8
6C
34
3E
08
08
08
08
08
08
08
ENDCHAR
STARTCHAR uni0929
ENCODING 2345
SWIDTH 562 0
DWIDTH 9 0
BBX 9 8 0 0
BITMAP
FF80
0200
0200
7E00
5200
7200
0200
1200
ENDCHAR
STARTCHAR uni092A
ENCODING 2346
SWIDTH 562 0
DWIDTH 9 0
BBX 9 8 0 0
BITMAP
FF80
4200
4200
4200
4200
6E00
3A00
0200
ENDCHAR
STARTCHAR uni092B
ENCODING 2347
SWIDTH 562 0
DWIDTH 9 0
BBX 9 8 0 0
BITMAP
FF80
8800
8800
CF00
7900
0900
0800
0800
ENDCHAR
STARTCHAR uni092C
ENCODING 2348
SWIDTH 562 0
DWIDTH 9 0
BBX 9 8 0 0
BITMAP
FF80
0200
7E00
5200
5A00
4A00
7E00
0200
ENDCHAR
STARTCHAR uni092D
ENCODING 2349
SWIDTH 562 0
DWIDTH 9 0
BBX 9 8 0 0
BITMAP
EF80
A400
E400
2400
2400
FC00
A400
E400
ENDCHAR
STARTCHAR uni092E
ENCODING 2350
SWIDTH 562 0
DWIDTH 9 0
BBX 9 8 0 0
BITMAP
FF80
2200
2200
2200
FE00
A200
E200
0200
ENDCHAR
STARTCHAR uni092F
ENCODING 2351
SWIDTH 562 0
DWIDTH 9 0
BBX 9 8 0 0
BITMAP
FF80
0A00
1A00
7200
4200
6200
3E00
0200
ENDCHAR
STARTCHAR uni0930
ENCODING 2352
SWIDTH 562 0
DWIDTH 9 0
BBX 9 8 0 0
BITMAP
FF80
0800
0800
6800
3800
1800
0C00
0400
ENDCHAR
STARTCHAR uni0931
ENCODING 2353
SWIDTH 562 0
DWIDTH 9 0
BBX 9 8 0 0
BITMAP
FF80
0800
0800
6800
3800
1800
0C00
4400
ENDCHAR
STARTCHAR uni0932
ENCODING 2354
SWIDTH 562 0
DWIDTH 9 0
BBX 9 8 0 0
BITMAP
FF80
0200
0200
FE00
9A00
9200
C200
4200
ENDCHAR
STARTCHAR uni0933
ENCODING 2355
SWIDTH 562 0
DWIDTH 9 0
BBX 9 6 0 2
BITMAP
FF80
0400
7F00
4900
4900
7F00
ENDCHAR
STARTCHAR uni0934
ENCODING 2356
SWIDTH 562 0
DWIDTH 9 0
BBX 9 8 0 0
BITMAP
FF80
0400
7F00
4900
4900
7F00
0000
0800
ENDCHAR
STARTCHAR uni0935
ENCODING 2357
SWIDTH 562 0
DWIDTH 9 0
BBX 9 8 0 0
BITMAP
FF80
0400
0400
7C00
4400
4400
7C00
0400
ENDCHAR
STARTCHAR uni0936
ENCODING 2358
SWIDTH 562 0
DWIDTH 9 0
BBX 9 8 0 0
BITMAP
EF80
A400
E400
2400
E400
C400
6400
2400
ENDCHAR
STARTCHAR uni0937
ENCODING 2359
SWIDTH 562 0
DWIDTH 9 0
BBX 9 8 0 0
BITMAP
FF80
E400
B400
9C00
CC00
7C00
0400
0400
ENDCHAR
STARTCHAR uni0938
ENCODING 2360
SWIDTH 562 0
DWIDTH 9 0
BBX 9 8 0 0
BITMAP
FF80
2200
2200
2200
3E00
E200
6200
3200
ENDCHAR
STARTCHAR uni0939
ENCODING 2361
SWIDTH 562 0
DWIDTH 9 0
BBX 9 9 0 -1
BITMAP
FF80
0400
3C00
2000
3E00
2200
2000
3000
1800
ENDCHAR
STARTCHAR uni93A
ENCODING 2362
SWIDTH 562 0
DWIDTH 9 0
BBX 3 5 3 7
BITMAP
40
40
40
40
E0
ENDCHAR
STARTCHAR uni93B
ENCODING 2363
SWIDTH 562 0
DWIDTH 9 0
BBX 4 12 5 0
BITMAP
40
40
40
40
F0
40
40
40
40
40
40
40
ENDCHAR
STARTCHAR uni93C
ENCODING 2364
SWIDTH 562 0
DWIDTH 9 0
BBX 1 1 4 -1
BITMAP
80
ENDCHAR
STARTCHAR uni93D
ENCODING 2365
SWIDTH 562 0
DWIDTH 9 0
BBX 6 8 3 0
BITMAP
7C
40
60
30
18
08
D8
70
ENDCHAR
STARTCHAR uni093E
ENCODING 2366
SWIDTH 562 0
DWIDTH 9 0
BBX 9 8 0 0
BITMAP
FF80
0800
0800
0800
0800
0800
0800
0800
ENDCHAR
STARTCHAR uni093F
ENCODING 2367
SWIDTH 562 0
DWIDTH 9 0
BBX 9 11 0 0
BITMAP
3C00
6700
4180
FF80
2000
2000
2000
2000
2000
2000
2000
ENDCHAR
STARTCHAR uni0940
ENCODING 2368
SWIDTH 562 0
DWIDTH 9 0
BBX 9 11 0 0
BITMAP
3C00
2600
2200
FF80
0200
0200
0200
0200
0200
0200
0200
ENDCHAR
STARTCHAR uni0941
ENCODING 2369
SWIDTH 562 0
DWIDTH 9 0
BBX 5 3 2 -4
BITMAP
38
08
F8
ENDCHAR
STARTCHAR uni0942
ENCODING 2370
SWIDTH 562 0
DWIDTH 9 0
BBX 5 3 2 -4
BITMAP
E0
B0
98
ENDCHAR
STARTCHAR uni0943
ENCODING 2371
SWIDTH 562 0
DWIDTH 9 0
BBX 4 3 2 -4
BITMAP
C0
80
F0
ENDCHAR
STARTCHAR uni0944
ENCODING 2372
SWIDTH 562 0
DWIDTH 9 0
BBX 4 4 2 -4
BITMAP
C0
80
D0
70
ENDCHAR
STARTCHAR uni0945
ENCODING 2373
SWIDTH 562 0
DWIDTH 9 0
BBX 5 3 3 9
BITMAP
88
D8
70
ENDCHAR
STARTCHAR uni0946
ENCODING 2374
SWIDTH 562 0
DWIDTH 9 0
BBX 5 3 2 8
BITMAP
80
F8
08
ENDCHAR
STARTCHAR uni0947
ENCODING 2375
SWIDTH 562 0
DWIDTH 9 0
BBX 4 4 3 8
BITMAP
80
C0
60
30
ENDCHAR
STARTCHAR uni0948
ENCODING 2376
SWIDTH 562 0
DWIDTH 9 0
BBX 6 4 2 8
BITMAP
90
D8
6C
34
ENDCHAR
STARTCHAR uni0949
ENCODING 2377
SWIDTH 562 0
DWIDTH 9 0
BBX 6 12 3 0
BITMAP
88
D8
70
00
7C
10
10
10
10
10
10
10
ENDCHAR
STARTCHAR uni094A
ENCODING 2378
SWIDTH 562 0
DWIDTH 9 0
BBX 7 11 2 0
BITMAP
80
F8
08
3E
08
08
08
08
08
08
08
ENDCHAR
STARTCHAR uni094B
ENCODING 2379
SWIDTH 562 0
DWIDTH 9 0
BBX 6 12 3 0
BITMAP
80
C0
60
30
7C
10
10
10
10
10
10
10
ENDCHAR
STARTCHAR uni94C
ENCODING 2380
SWIDTH 562 0
DWIDTH 9 0
BBX 9 8 0 0
BITMAP
FF80
0200
0200
7E00
5200
7200
0200
0200
ENDCHAR
STARTCHAR uni094D
ENCODING 2381
SWIDTH 562 0
DWIDTH 9 0
BBX 4 3 2 -4
BITMAP
C0
60
30
ENDCHAR
STARTCHAR uni94E
ENCODING 2382
SWIDTH 562 0
DWIDTH 9 0
BBX 3 7 0 0
BITMAP
E0
80
80
80
80
80
80
ENDCHAR
STARTCHAR uni94F
ENCODING 2383
SWIDTH 562 0
DWIDTH 9 0
BBX 7 12 2 0
BITMAP
08
8C
F4
14
3E
08
08
08
08
08
08
08
ENDCHAR
STARTCHAR uni950
ENCODING 2384
SWIDTH 562 0
DWIDTH 9 0
BBX 8 12 0 0
BITMAP
15
1B
0E
60
30
10
30
67
3D
91
93
F0
ENDCHAR
STARTCHAR uni951
ENCODING 2385
SWIDTH 562 0
DWIDTH 9 0
BBX 1 3 3 9
BITMAP
80
80
80
ENDCHAR
STARTCHAR uni952
ENCODING 2386
SWIDTH 562 0
DWIDTH 9 0
BBX 4 1 2 -1
BITMAP
F0
ENDCHAR
STARTCHAR uni953
ENCODING 2387
SWIDTH 562 0
DWIDTH 9 0
BBX 4 3 2 9
BITMAP
C0
60
30
ENDCHAR
STARTCHAR uni954
ENCODING 2388
SWIDTH 562 0
DWIDTH 9 0
BBX 4 3 2 9
BITMAP
30
60
C0
ENDCHAR
STARTCHAR uni955
ENCODING 2389
SWIDTH 562 0
DWIDTH 9 0
BBX 5 5 2 7
BITMAP
88
D8
70
00
F8
ENDCHAR
STARTCHAR uni956
ENCODING 2390
SWIDTH 562 0
DWIDTH 9 0
BBX 6 2 1 -4
BITMAP
CC
78
ENDCHAR
STARTCHAR uni957
ENCODING 2391
SWIDTH 562 0
DWIDTH 9 0
BBX 6 4 1 -4
BITMAP
CC
78
CC
78
ENDCHAR
STARTCHAR uni0958
ENCODING 2392
SWIDTH 562 0
DWIDTH 9 0
BBX 9 8 0 0
BITMAP
FF80
1000
1000
FE00
BA00
F200
1000
5000
ENDCHAR
STARTCHAR uni0959
ENCODING 2393
SWIDTH 562 0
DWIDTH 9 0
BBX 9 8 0 0
BITMAP
FF80
2100
2D00
E900
CF00
6100
3100
9F00
ENDCHAR
STARTCHAR uni095A
ENCODING 2394
SWIDTH 562 0
DWIDTH 9 0
BBX 9 8 0 0
BITMAP
FF80
2200
2200
E200
A200
E200
0200
2200
ENDCHAR
STARTCHAR uni095B
ENCODING 2395
SWIDTH 562 0
DWIDTH 9 0
BBX 9 8 0 0
BITMAP
FF80
0200
0200
1E00
CA00
7A00
0200
2200
ENDCHAR
STARTCHAR uni095C
ENCODING 2396
SWIDTH 562 0
DWIDTH 9 0
BBX 9 10 0 -2
BITMAP
FF80
0400
3C00
2000
3C00
0400
2400
3C00
0000
0800
ENDCHAR
STARTCHAR uni095D
ENCODING 2397
SWIDTH 562 0
DWIDTH 9 0
BBX 9 10 0 -2
BITMAP
FF80
0400
3C00
6000
4000
4E00
6A00
3E00
0000
0800
ENDCHAR
STARTCHAR uni095E
ENCODING 2398
SWIDTH 562 0
DWIDTH 9 0
BBX 9 8 0 0
BITMAP
FF80
8800
8800
CF00
7900
0900
4800
0800
ENDCHAR
STARTCHAR uni095F
ENCODING 2399
SWIDTH 562 0
DWIDTH 9 0
BBX 9 9 0 -1
BITMAP
FF80
0A00
1A00
7200
4200
6200
3E00
0200
2000
ENDCHAR
STARTCHAR uni0964
ENCODING 2404
SWIDTH 562 0
DWIDTH 9 0
BBX 1 12 4 -2
BITMAP
80
80
80
80
80
80
80
80
80
80
80
80
ENDCHAR
STARTCHAR uni0965
ENCODING 2405
SWIDTH 562 0
DWIDTH 9 0
BBX 3 12 3 -2
BITMAP
A0
A0
A0
A0
A0
A0
A0
A0
A0
A0
A0
A0
ENDCHAR
STARTCHAR uni0966
ENCODING 2406
SWIDTH 562 0
DWIDTH 9 0
BBX 5 5 1 2
BITMAP
70
D8
88
D8
70
ENDCHAR
STARTCHAR uni0967
ENCODING 2407
SWIDTH 562 0
DWIDTH 9 0
BBX 5 11 2 -3
BITMAP
70
D8
88
D8
70
20
60
40
60
30
10
ENDCHAR
STARTCHAR uni0968
ENCODING 2408
SWIDTH 562 0
DWIDTH 9 0
BBX 6 9 1 -1
BITMAP
F8
0C
04
CC
F8
40
60
20
20
ENDCHAR
STARTCHAR uni0969
ENCODING 2409
SWIDTH 562 0
DWIDTH 9 0
BBX 4 9 2 -1
BITMAP
F0
10
10
F0
10
D0
F0
40
40
ENDCHAR
STARTCHAR uni096A
ENCODING 2410
SWIDTH 562 0
DWIDTH 9 0
BBX 7 8 0 1
BITMAP
82
C6
6C
38
6C
44
6C
38
ENDCHAR
STARTCHAR uni096B
ENCODING 2411
SWIDTH 562 0
DWIDTH 9 0
BBX 7 11 0 -2
BITMAP
80
80
80
8C
CC
7C
04
06
02
02
02
ENDCHAR
STARTCHAR uni096C
ENCODING 2412
SWIDTH 562 0
DWIDTH 9 0
BBX 6 11 1 -2
BITMAP
78
C0
80
C0
70
40
4C
7C
08
08
08
ENDCHAR
STARTCHAR uni096D
ENCODING 2413
SWIDTH 562 0
DWIDTH 9 0
BBX 8 8 0 0
BITMAP
8F
89
C9
4F
41
63
36
1C
ENDCHAR
STARTCHAR uni096E
ENCODING 2414
SWIDTH 562 0
DWIDTH 9 0
BBX 6 8 1 0
BITMAP
0C
18
30
60
C0
84
CC
78
ENDCHAR
STARTCHAR uni096F
ENCODING 2415
SWIDTH 562 0
DWIDTH 9 0
BBX 6 11 1 -2
BITMAP
70
D8
88
D8
70
20
30
18
0C
04
0C
ENDCHAR
STARTCHAR uni0981
ENCODING 2433
SWIDTH 562 0
DWIDTH 9 0
BBX 5 4 1 8
BITMAP
20
88
70
20
ENDCHAR
STARTCHAR uni0982
ENCODING 2434
SWIDTH 562 0
DWIDTH 9 0
BBX 3 8 2 1
BITMAP
E0
A0
E0
00
C0
60
20
20
ENDCHAR
STARTCHAR uni0983
ENCODING 2435
SWIDTH 562 0
DWIDTH 9 0
BBX 3 9 2 0
BITMAP
E0
A0
E0
00
00
00
E0
A0
E0
ENDCHAR
STARTCHAR uni0985
ENCODING 2437
SWIDTH 562 0
DWIDTH 9 0
BBX 9 8 0 0
BITMAP
FF80
0100
0100
0D00
6700
1D00
0100
0100
ENDCHAR
STARTCHAR uni0986
ENCODING 2438
SWIDTH 562 0
DWIDTH 9 0
BBX 9 8 0 0
BITMAP
FE80
0500
0500
3500
9D00
7500
0500
0500
ENDCHAR
STARTCHAR uni0987
ENCODING 2439
SWIDTH 562 0
DWIDTH 9 0
BBX 9 11 0 0
BITMAP
2000
3E00
0200
FF80
1000
7E00
6200
0200
7E00
1800
0C00
ENDCHAR
STARTCHAR uni0988
ENCODING 2440
SWIDTH 562 0
DWIDTH 9 0
BBX 9 12 0 -1
BITMAP
2000
3E00
0200
FF80
2000
7200
5600
1E00
1A00
3200
0200
0200
ENDCHAR
STARTCHAR uni0989
ENCODING 2441
SWIDTH 562 0
DWIDTH 9 0
BBX 9 11 0 0
BITMAP
2000
3E00
0200
FF80
1000
1200
1E00
4200
4200
6600
3C00
ENDCHAR
STARTCHAR uni098A
ENCODING 2442
SWIDTH 562 0
DWIDTH 9 0
BBX 9 11 0 0
BITMAP
2000
3E00
0200
FF80
0800
0A00
AE00
A200
E200
6600
3C00
ENDCHAR
STARTCHAR uni098B
ENCODING 2443
SWIDTH 562 0
DWIDTH 9 0
BBX 8 9 0 0
BITMAP
9C
F5
05
1D
35
65
37
1D
05
ENDCHAR
STARTCHAR uni098C
ENCODING 2444
SWIDTH 562 0
DWIDTH 9 0
BBX 8 9 0 0
BITMAP
30
18
0E
03
01
E1
B1
13
3E
ENDCHAR
STARTCHAR uni098F
ENCODING 2447
SWIDTH 562 0
DWIDTH 9 0
BBX 8 9 0 0
BITMAP
1E
33
31
31
01
01
01
9F
F3
ENDCHAR
STARTCHAR uni0990
ENCODING 2448
SWIDTH 562 0
DWIDTH 9 0
BBX 8 12 0 0
BITMAP
FC
06
03
39
6D
65
67
04
04
04
BC
EC
ENDCHAR
STARTCHAR uni0993
ENCODING 2451
SWIDTH 562 0
DWIDTH 9 0
BBX 8 8 0 0
BITMAP
1E
33
21
07
83
81
C3
7E
ENDCHAR
STARTCHAR uni0994
ENCODING 2452
SWIDTH 562 0
DWIDTH 9 0
BBX 8 12 0 0
BITMAP
FC
06
03
01
39
6D
45
1F
8C
84
CC
78
ENDCHAR
STARTCHAR uni0995
ENCODING 2453
SWIDTH 562 0
DWIDTH 9 0
BBX 9 8 0 0
BITMAP
FF80
0800
0800
0800
0800
0800
0800
0800
ENDCHAR
STARTCHAR uni0996
ENCODING 2454
SWIDTH 562 0
DWIDTH 9 0
BBX 8 8 0 0
BITMAP
3B
EA
0A
1A
F2
1E
06
02
ENDCHAR
STARTCHAR uni0997
ENCODING 2455
SWIDTH 562 0
DWIDTH 9 0
BBX 8 8 1 0
BITMAP
7B
CE
82
E2
22
62
02
02
ENDCHAR
STARTCHAR uni0998
ENCODING 2456
SWIDTH 562 0
DWIDTH 9 0
BBX 9 8 0 0
BITMAP
FF80
4100
4100
7900
2100
7100
1D00
0780
ENDCHAR
STARTCHAR uni0999
ENCODING 2457
SWIDTH 562 0
DWIDTH 9 0
BBX 8 10 0 0
BITMAP
20
3C
14
1C
10
91
9F
C1
63
3E
ENDCHAR
STARTCHAR uni099A
ENCODING 2458
SWIDTH 562 0
DWIDTH 9 0
BBX 9 8 0 0
BITMAP
FF80
2000
3000
3800
2E00
2200
3600
1C00
ENDCHAR
STARTCHAR uni099B
ENCODING 2459
SWIDTH 562 0
DWIDTH 9 0
BBX 9 9 0 -1
BITMAP
FF80
4000
7800
4C00
6700
3D00
0300
0E00
0300
ENDCHAR
STARTCHAR uni099C
ENCODING 2460
SWIDTH 562 0
DWIDTH 9 0
BBX 9 8 0 0
BITMAP
FF80
1C00
3700
2200
BA00
8A00
DB00
7100
ENDCHAR
STARTCHAR uni099D
ENCODING 2461
SWIDTH 562 0
DWIDTH 9 0
BBX 8 8 0 0
BITMAP
F9
09
39
69
C9
6D
3F
1B
ENDCHAR
STARTCHAR uni0CA0
ENCODING 3232
SWIDTH 562 0
DWIDTH 9 0
BBX 8 11 0 0
BITMAP
06
07
03
FF
FF
E7
DB
DB
E7
7E
3C
ENDCHAR
STARTCHAR uni0CA5
ENCODING 3237
SWIDTH 562 0
DWIDTH 9 0
BBX 8 13 0 -2
BITMAP
06
07
03
FF
FF
E7
DB
DB
FF
FF
66
18
18
ENDCHAR
STARTCHAR uni0CA6
ENCODING 3238
SWIDTH 562 0
DWIDTH 9 0
BBX 8 11 0 0
BITMAP
06
07
03
FF
FF
E7
C3
C3
FF
FF
66
ENDCHAR
STARTCHAR uni0CA7
ENCODING 3239
SWIDTH 562 0
DWIDTH 9 0
BBX 8 13 0 -2
BITMAP
06
07
03
FF
FF
E7
C3
C3
FF
FF
66
18
18
ENDCHAR
STARTCHAR uni0CB0
ENCODING 3248
SWIDTH 562 0
DWIDTH 9 0
BBX 8 11 0 0
BITMAP
06
07
03
FF
FF
E7
C3
C3
E7
7E
3C
ENDCHAR
STARTCHAR uni0E01
ENCODING 3585
SWIDTH 562 0
DWIDTH 9 0
BBX 8 8 0 -1
BITMAP
7E
C3
63
C3
C3
C3
C3
C3
ENDCHAR
STARTCHAR uni0E02
ENCODING 3586
SWIDTH 562 0
DWIDTH 9 0
BBX 8 8 0 -1
BITMAP
EB
BB
EE
1B
33
33
33
FE
ENDCHAR
STARTCHAR uni0E03
ENCODING 3587
SWIDTH 562 0
DWIDTH 9 0
BBX 8 8 0 -1
BITMAP
EB
BB
EB
1B
33
33
33
FE
ENDCHAR
STARTCHAR uni0E04
ENCODING 3588
SWIDTH 562 0
DWIDTH 9 0
BBX 8 8 0 -1
BITMAP
7E
C3
BB
AB
FB
63
63
63
ENDCHAR
STARTCHAR uni0E05
ENCODING 3589
SWIDTH 562 0
DWIDTH 9 0
BBX 8 8 0 -1
BITMAP
6E
FB
83
BB
AB
FB
63
63
ENDCHAR
ENDFONT
